%TF.GenerationSoftware,KiCad,Pcbnew,7.0.11-2.fc38*%
%TF.CreationDate,2024-03-25T20:43:53+00:00*%
%TF.ProjectId,music-box,6d757369-632d-4626-9f78-2e6b69636164,rev?*%
%TF.SameCoordinates,Original*%
%TF.FileFunction,Paste,Top*%
%TF.FilePolarity,Positive*%
%FSLAX46Y46*%
G04 Gerber Fmt 4.6, Leading zero omitted, Abs format (unit mm)*
G04 Created by KiCad (PCBNEW 7.0.11-2.fc38) date 2024-03-25 20:43:53*
%MOMM*%
%LPD*%
G01*
G04 APERTURE LIST*
G04 Aperture macros list*
%AMRoundRect*
0 Rectangle with rounded corners*
0 $1 Rounding radius*
0 $2 $3 $4 $5 $6 $7 $8 $9 X,Y pos of 4 corners*
0 Add a 4 corners polygon primitive as box body*
4,1,4,$2,$3,$4,$5,$6,$7,$8,$9,$2,$3,0*
0 Add four circle primitives for the rounded corners*
1,1,$1+$1,$2,$3*
1,1,$1+$1,$4,$5*
1,1,$1+$1,$6,$7*
1,1,$1+$1,$8,$9*
0 Add four rect primitives between the rounded corners*
20,1,$1+$1,$2,$3,$4,$5,0*
20,1,$1+$1,$4,$5,$6,$7,0*
20,1,$1+$1,$6,$7,$8,$9,0*
20,1,$1+$1,$8,$9,$2,$3,0*%
G04 Aperture macros list end*
%ADD10C,0.010000*%
%ADD11RoundRect,0.225000X0.250000X-0.225000X0.250000X0.225000X-0.250000X0.225000X-0.250000X-0.225000X0*%
%ADD12RoundRect,0.250000X0.250000X0.475000X-0.250000X0.475000X-0.250000X-0.475000X0.250000X-0.475000X0*%
%ADD13R,0.481000X0.198400*%
%ADD14RoundRect,0.218750X-0.218750X-0.256250X0.218750X-0.256250X0.218750X0.256250X-0.218750X0.256250X0*%
%ADD15O,1.800000X1.100000*%
%ADD16O,1.450000X1.050000*%
%ADD17R,1.574800X1.574800*%
%ADD18C,1.574800*%
%ADD19RoundRect,0.450000X0.300000X-0.300000X0.300000X0.300000X-0.300000X0.300000X-0.300000X-0.300000X0*%
%ADD20RoundRect,0.135000X0.185000X-0.135000X0.185000X0.135000X-0.185000X0.135000X-0.185000X-0.135000X0*%
%ADD21R,0.457200X1.358900*%
%ADD22R,0.812800X0.254000*%
%ADD23R,0.254000X0.812800*%
%ADD24R,1.244600X1.244600*%
%ADD25RoundRect,0.225000X0.225000X0.250000X-0.225000X0.250000X-0.225000X-0.250000X0.225000X-0.250000X0*%
%ADD26RoundRect,0.140000X-0.170000X0.140000X-0.170000X-0.140000X0.170000X-0.140000X0.170000X0.140000X0*%
%ADD27RoundRect,0.250000X-0.250000X-0.475000X0.250000X-0.475000X0.250000X0.475000X-0.250000X0.475000X0*%
%ADD28R,1.803400X1.397000*%
%ADD29R,1.397000X1.905000*%
%ADD30R,0.812800X2.006600*%
G04 APERTURE END LIST*
%TO.C,U2*%
D10*
X103862000Y-133248500D02*
X103904000Y-133251500D01*
X103945000Y-133257500D01*
X103986000Y-133264500D01*
X104027000Y-133274500D01*
X104067000Y-133286500D01*
X104107000Y-133300500D01*
X104145000Y-133316500D01*
X104183000Y-133334500D01*
X104220000Y-133354500D01*
X104256000Y-133376500D01*
X104290000Y-133400500D01*
X104323000Y-133425500D01*
X104355000Y-133452500D01*
X104386000Y-133481500D01*
X104415000Y-133512500D01*
X104442000Y-133544500D01*
X104467000Y-133577500D01*
X104491000Y-133611500D01*
X104513000Y-133647500D01*
X104533000Y-133684500D01*
X104551000Y-133722500D01*
X104567000Y-133760500D01*
X104581000Y-133800500D01*
X104593000Y-133840500D01*
X104603000Y-133881500D01*
X104610000Y-133922500D01*
X104616000Y-133963500D01*
X104619000Y-134005500D01*
X104620000Y-134047500D01*
X104620000Y-136447500D01*
X103020000Y-136447500D01*
X103020000Y-134047500D01*
X103021000Y-134005500D01*
X103024000Y-133963500D01*
X103030000Y-133922500D01*
X103037000Y-133881500D01*
X103047000Y-133840500D01*
X103059000Y-133800500D01*
X103073000Y-133760500D01*
X103089000Y-133722500D01*
X103107000Y-133684500D01*
X103127000Y-133647500D01*
X103149000Y-133611500D01*
X103173000Y-133577500D01*
X103198000Y-133544500D01*
X103225000Y-133512500D01*
X103254000Y-133481500D01*
X103285000Y-133452500D01*
X103317000Y-133425500D01*
X103350000Y-133400500D01*
X103384000Y-133376500D01*
X103420000Y-133354500D01*
X103457000Y-133334500D01*
X103495000Y-133316500D01*
X103533000Y-133300500D01*
X103573000Y-133286500D01*
X103613000Y-133274500D01*
X103654000Y-133264500D01*
X103695000Y-133257500D01*
X103736000Y-133251500D01*
X103778000Y-133248500D01*
X103820000Y-133247500D01*
X103862000Y-133248500D01*
G36*
X103862000Y-133248500D02*
G01*
X103904000Y-133251500D01*
X103945000Y-133257500D01*
X103986000Y-133264500D01*
X104027000Y-133274500D01*
X104067000Y-133286500D01*
X104107000Y-133300500D01*
X104145000Y-133316500D01*
X104183000Y-133334500D01*
X104220000Y-133354500D01*
X104256000Y-133376500D01*
X104290000Y-133400500D01*
X104323000Y-133425500D01*
X104355000Y-133452500D01*
X104386000Y-133481500D01*
X104415000Y-133512500D01*
X104442000Y-133544500D01*
X104467000Y-133577500D01*
X104491000Y-133611500D01*
X104513000Y-133647500D01*
X104533000Y-133684500D01*
X104551000Y-133722500D01*
X104567000Y-133760500D01*
X104581000Y-133800500D01*
X104593000Y-133840500D01*
X104603000Y-133881500D01*
X104610000Y-133922500D01*
X104616000Y-133963500D01*
X104619000Y-134005500D01*
X104620000Y-134047500D01*
X104620000Y-136447500D01*
X103020000Y-136447500D01*
X103020000Y-134047500D01*
X103021000Y-134005500D01*
X103024000Y-133963500D01*
X103030000Y-133922500D01*
X103037000Y-133881500D01*
X103047000Y-133840500D01*
X103059000Y-133800500D01*
X103073000Y-133760500D01*
X103089000Y-133722500D01*
X103107000Y-133684500D01*
X103127000Y-133647500D01*
X103149000Y-133611500D01*
X103173000Y-133577500D01*
X103198000Y-133544500D01*
X103225000Y-133512500D01*
X103254000Y-133481500D01*
X103285000Y-133452500D01*
X103317000Y-133425500D01*
X103350000Y-133400500D01*
X103384000Y-133376500D01*
X103420000Y-133354500D01*
X103457000Y-133334500D01*
X103495000Y-133316500D01*
X103533000Y-133300500D01*
X103573000Y-133286500D01*
X103613000Y-133274500D01*
X103654000Y-133264500D01*
X103695000Y-133257500D01*
X103736000Y-133251500D01*
X103778000Y-133248500D01*
X103820000Y-133247500D01*
X103862000Y-133248500D01*
G37*
X106402000Y-133248500D02*
X106444000Y-133251500D01*
X106485000Y-133257500D01*
X106526000Y-133264500D01*
X106567000Y-133274500D01*
X106607000Y-133286500D01*
X106647000Y-133300500D01*
X106685000Y-133316500D01*
X106723000Y-133334500D01*
X106760000Y-133354500D01*
X106796000Y-133376500D01*
X106830000Y-133400500D01*
X106863000Y-133425500D01*
X106895000Y-133452500D01*
X106926000Y-133481500D01*
X106955000Y-133512500D01*
X106982000Y-133544500D01*
X107007000Y-133577500D01*
X107031000Y-133611500D01*
X107053000Y-133647500D01*
X107073000Y-133684500D01*
X107091000Y-133722500D01*
X107107000Y-133760500D01*
X107121000Y-133800500D01*
X107133000Y-133840500D01*
X107143000Y-133881500D01*
X107150000Y-133922500D01*
X107156000Y-133963500D01*
X107159000Y-134005500D01*
X107160000Y-134047500D01*
X107160000Y-136447500D01*
X105560000Y-136447500D01*
X105560000Y-134047500D01*
X105561000Y-134005500D01*
X105564000Y-133963500D01*
X105570000Y-133922500D01*
X105577000Y-133881500D01*
X105587000Y-133840500D01*
X105599000Y-133800500D01*
X105613000Y-133760500D01*
X105629000Y-133722500D01*
X105647000Y-133684500D01*
X105667000Y-133647500D01*
X105689000Y-133611500D01*
X105713000Y-133577500D01*
X105738000Y-133544500D01*
X105765000Y-133512500D01*
X105794000Y-133481500D01*
X105825000Y-133452500D01*
X105857000Y-133425500D01*
X105890000Y-133400500D01*
X105924000Y-133376500D01*
X105960000Y-133354500D01*
X105997000Y-133334500D01*
X106035000Y-133316500D01*
X106073000Y-133300500D01*
X106113000Y-133286500D01*
X106153000Y-133274500D01*
X106194000Y-133264500D01*
X106235000Y-133257500D01*
X106276000Y-133251500D01*
X106318000Y-133248500D01*
X106360000Y-133247500D01*
X106402000Y-133248500D01*
G36*
X106402000Y-133248500D02*
G01*
X106444000Y-133251500D01*
X106485000Y-133257500D01*
X106526000Y-133264500D01*
X106567000Y-133274500D01*
X106607000Y-133286500D01*
X106647000Y-133300500D01*
X106685000Y-133316500D01*
X106723000Y-133334500D01*
X106760000Y-133354500D01*
X106796000Y-133376500D01*
X106830000Y-133400500D01*
X106863000Y-133425500D01*
X106895000Y-133452500D01*
X106926000Y-133481500D01*
X106955000Y-133512500D01*
X106982000Y-133544500D01*
X107007000Y-133577500D01*
X107031000Y-133611500D01*
X107053000Y-133647500D01*
X107073000Y-133684500D01*
X107091000Y-133722500D01*
X107107000Y-133760500D01*
X107121000Y-133800500D01*
X107133000Y-133840500D01*
X107143000Y-133881500D01*
X107150000Y-133922500D01*
X107156000Y-133963500D01*
X107159000Y-134005500D01*
X107160000Y-134047500D01*
X107160000Y-136447500D01*
X105560000Y-136447500D01*
X105560000Y-134047500D01*
X105561000Y-134005500D01*
X105564000Y-133963500D01*
X105570000Y-133922500D01*
X105577000Y-133881500D01*
X105587000Y-133840500D01*
X105599000Y-133800500D01*
X105613000Y-133760500D01*
X105629000Y-133722500D01*
X105647000Y-133684500D01*
X105667000Y-133647500D01*
X105689000Y-133611500D01*
X105713000Y-133577500D01*
X105738000Y-133544500D01*
X105765000Y-133512500D01*
X105794000Y-133481500D01*
X105825000Y-133452500D01*
X105857000Y-133425500D01*
X105890000Y-133400500D01*
X105924000Y-133376500D01*
X105960000Y-133354500D01*
X105997000Y-133334500D01*
X106035000Y-133316500D01*
X106073000Y-133300500D01*
X106113000Y-133286500D01*
X106153000Y-133274500D01*
X106194000Y-133264500D01*
X106235000Y-133257500D01*
X106276000Y-133251500D01*
X106318000Y-133248500D01*
X106360000Y-133247500D01*
X106402000Y-133248500D01*
G37*
X111482000Y-133248500D02*
X111524000Y-133251500D01*
X111565000Y-133257500D01*
X111606000Y-133264500D01*
X111647000Y-133274500D01*
X111687000Y-133286500D01*
X111727000Y-133300500D01*
X111765000Y-133316500D01*
X111803000Y-133334500D01*
X111840000Y-133354500D01*
X111876000Y-133376500D01*
X111910000Y-133400500D01*
X111943000Y-133425500D01*
X111975000Y-133452500D01*
X112006000Y-133481500D01*
X112035000Y-133512500D01*
X112062000Y-133544500D01*
X112087000Y-133577500D01*
X112111000Y-133611500D01*
X112133000Y-133647500D01*
X112153000Y-133684500D01*
X112171000Y-133722500D01*
X112187000Y-133760500D01*
X112201000Y-133800500D01*
X112213000Y-133840500D01*
X112223000Y-133881500D01*
X112230000Y-133922500D01*
X112236000Y-133963500D01*
X112239000Y-134005500D01*
X112240000Y-134047500D01*
X112240000Y-136447500D01*
X110640000Y-136447500D01*
X110640000Y-134047500D01*
X110641000Y-134005500D01*
X110644000Y-133963500D01*
X110650000Y-133922500D01*
X110657000Y-133881500D01*
X110667000Y-133840500D01*
X110679000Y-133800500D01*
X110693000Y-133760500D01*
X110709000Y-133722500D01*
X110727000Y-133684500D01*
X110747000Y-133647500D01*
X110769000Y-133611500D01*
X110793000Y-133577500D01*
X110818000Y-133544500D01*
X110845000Y-133512500D01*
X110874000Y-133481500D01*
X110905000Y-133452500D01*
X110937000Y-133425500D01*
X110970000Y-133400500D01*
X111004000Y-133376500D01*
X111040000Y-133354500D01*
X111077000Y-133334500D01*
X111115000Y-133316500D01*
X111153000Y-133300500D01*
X111193000Y-133286500D01*
X111233000Y-133274500D01*
X111274000Y-133264500D01*
X111315000Y-133257500D01*
X111356000Y-133251500D01*
X111398000Y-133248500D01*
X111440000Y-133247500D01*
X111482000Y-133248500D01*
G36*
X111482000Y-133248500D02*
G01*
X111524000Y-133251500D01*
X111565000Y-133257500D01*
X111606000Y-133264500D01*
X111647000Y-133274500D01*
X111687000Y-133286500D01*
X111727000Y-133300500D01*
X111765000Y-133316500D01*
X111803000Y-133334500D01*
X111840000Y-133354500D01*
X111876000Y-133376500D01*
X111910000Y-133400500D01*
X111943000Y-133425500D01*
X111975000Y-133452500D01*
X112006000Y-133481500D01*
X112035000Y-133512500D01*
X112062000Y-133544500D01*
X112087000Y-133577500D01*
X112111000Y-133611500D01*
X112133000Y-133647500D01*
X112153000Y-133684500D01*
X112171000Y-133722500D01*
X112187000Y-133760500D01*
X112201000Y-133800500D01*
X112213000Y-133840500D01*
X112223000Y-133881500D01*
X112230000Y-133922500D01*
X112236000Y-133963500D01*
X112239000Y-134005500D01*
X112240000Y-134047500D01*
X112240000Y-136447500D01*
X110640000Y-136447500D01*
X110640000Y-134047500D01*
X110641000Y-134005500D01*
X110644000Y-133963500D01*
X110650000Y-133922500D01*
X110657000Y-133881500D01*
X110667000Y-133840500D01*
X110679000Y-133800500D01*
X110693000Y-133760500D01*
X110709000Y-133722500D01*
X110727000Y-133684500D01*
X110747000Y-133647500D01*
X110769000Y-133611500D01*
X110793000Y-133577500D01*
X110818000Y-133544500D01*
X110845000Y-133512500D01*
X110874000Y-133481500D01*
X110905000Y-133452500D01*
X110937000Y-133425500D01*
X110970000Y-133400500D01*
X111004000Y-133376500D01*
X111040000Y-133354500D01*
X111077000Y-133334500D01*
X111115000Y-133316500D01*
X111153000Y-133300500D01*
X111193000Y-133286500D01*
X111233000Y-133274500D01*
X111274000Y-133264500D01*
X111315000Y-133257500D01*
X111356000Y-133251500D01*
X111398000Y-133248500D01*
X111440000Y-133247500D01*
X111482000Y-133248500D01*
G37*
X114022000Y-133248500D02*
X114064000Y-133251500D01*
X114105000Y-133257500D01*
X114146000Y-133264500D01*
X114187000Y-133274500D01*
X114227000Y-133286500D01*
X114267000Y-133300500D01*
X114305000Y-133316500D01*
X114343000Y-133334500D01*
X114380000Y-133354500D01*
X114416000Y-133376500D01*
X114450000Y-133400500D01*
X114483000Y-133425500D01*
X114515000Y-133452500D01*
X114546000Y-133481500D01*
X114575000Y-133512500D01*
X114602000Y-133544500D01*
X114627000Y-133577500D01*
X114651000Y-133611500D01*
X114673000Y-133647500D01*
X114693000Y-133684500D01*
X114711000Y-133722500D01*
X114727000Y-133760500D01*
X114741000Y-133800500D01*
X114753000Y-133840500D01*
X114763000Y-133881500D01*
X114770000Y-133922500D01*
X114776000Y-133963500D01*
X114779000Y-134005500D01*
X114780000Y-134047500D01*
X114780000Y-136447500D01*
X113180000Y-136447500D01*
X113180000Y-134047500D01*
X113181000Y-134005500D01*
X113184000Y-133963500D01*
X113190000Y-133922500D01*
X113197000Y-133881500D01*
X113207000Y-133840500D01*
X113219000Y-133800500D01*
X113233000Y-133760500D01*
X113249000Y-133722500D01*
X113267000Y-133684500D01*
X113287000Y-133647500D01*
X113309000Y-133611500D01*
X113333000Y-133577500D01*
X113358000Y-133544500D01*
X113385000Y-133512500D01*
X113414000Y-133481500D01*
X113445000Y-133452500D01*
X113477000Y-133425500D01*
X113510000Y-133400500D01*
X113544000Y-133376500D01*
X113580000Y-133354500D01*
X113617000Y-133334500D01*
X113655000Y-133316500D01*
X113693000Y-133300500D01*
X113733000Y-133286500D01*
X113773000Y-133274500D01*
X113814000Y-133264500D01*
X113855000Y-133257500D01*
X113896000Y-133251500D01*
X113938000Y-133248500D01*
X113980000Y-133247500D01*
X114022000Y-133248500D01*
G36*
X114022000Y-133248500D02*
G01*
X114064000Y-133251500D01*
X114105000Y-133257500D01*
X114146000Y-133264500D01*
X114187000Y-133274500D01*
X114227000Y-133286500D01*
X114267000Y-133300500D01*
X114305000Y-133316500D01*
X114343000Y-133334500D01*
X114380000Y-133354500D01*
X114416000Y-133376500D01*
X114450000Y-133400500D01*
X114483000Y-133425500D01*
X114515000Y-133452500D01*
X114546000Y-133481500D01*
X114575000Y-133512500D01*
X114602000Y-133544500D01*
X114627000Y-133577500D01*
X114651000Y-133611500D01*
X114673000Y-133647500D01*
X114693000Y-133684500D01*
X114711000Y-133722500D01*
X114727000Y-133760500D01*
X114741000Y-133800500D01*
X114753000Y-133840500D01*
X114763000Y-133881500D01*
X114770000Y-133922500D01*
X114776000Y-133963500D01*
X114779000Y-134005500D01*
X114780000Y-134047500D01*
X114780000Y-136447500D01*
X113180000Y-136447500D01*
X113180000Y-134047500D01*
X113181000Y-134005500D01*
X113184000Y-133963500D01*
X113190000Y-133922500D01*
X113197000Y-133881500D01*
X113207000Y-133840500D01*
X113219000Y-133800500D01*
X113233000Y-133760500D01*
X113249000Y-133722500D01*
X113267000Y-133684500D01*
X113287000Y-133647500D01*
X113309000Y-133611500D01*
X113333000Y-133577500D01*
X113358000Y-133544500D01*
X113385000Y-133512500D01*
X113414000Y-133481500D01*
X113445000Y-133452500D01*
X113477000Y-133425500D01*
X113510000Y-133400500D01*
X113544000Y-133376500D01*
X113580000Y-133354500D01*
X113617000Y-133334500D01*
X113655000Y-133316500D01*
X113693000Y-133300500D01*
X113733000Y-133286500D01*
X113773000Y-133274500D01*
X113814000Y-133264500D01*
X113855000Y-133257500D01*
X113896000Y-133251500D01*
X113938000Y-133248500D01*
X113980000Y-133247500D01*
X114022000Y-133248500D01*
G37*
X116562000Y-133248500D02*
X116604000Y-133251500D01*
X116645000Y-133257500D01*
X116686000Y-133264500D01*
X116727000Y-133274500D01*
X116767000Y-133286500D01*
X116807000Y-133300500D01*
X116845000Y-133316500D01*
X116883000Y-133334500D01*
X116920000Y-133354500D01*
X116956000Y-133376500D01*
X116990000Y-133400500D01*
X117023000Y-133425500D01*
X117055000Y-133452500D01*
X117086000Y-133481500D01*
X117115000Y-133512500D01*
X117142000Y-133544500D01*
X117167000Y-133577500D01*
X117191000Y-133611500D01*
X117213000Y-133647500D01*
X117233000Y-133684500D01*
X117251000Y-133722500D01*
X117267000Y-133760500D01*
X117281000Y-133800500D01*
X117293000Y-133840500D01*
X117303000Y-133881500D01*
X117310000Y-133922500D01*
X117316000Y-133963500D01*
X117319000Y-134005500D01*
X117320000Y-134047500D01*
X117320000Y-136447500D01*
X115720000Y-136447500D01*
X115720000Y-134047500D01*
X115721000Y-134005500D01*
X115724000Y-133963500D01*
X115730000Y-133922500D01*
X115737000Y-133881500D01*
X115747000Y-133840500D01*
X115759000Y-133800500D01*
X115773000Y-133760500D01*
X115789000Y-133722500D01*
X115807000Y-133684500D01*
X115827000Y-133647500D01*
X115849000Y-133611500D01*
X115873000Y-133577500D01*
X115898000Y-133544500D01*
X115925000Y-133512500D01*
X115954000Y-133481500D01*
X115985000Y-133452500D01*
X116017000Y-133425500D01*
X116050000Y-133400500D01*
X116084000Y-133376500D01*
X116120000Y-133354500D01*
X116157000Y-133334500D01*
X116195000Y-133316500D01*
X116233000Y-133300500D01*
X116273000Y-133286500D01*
X116313000Y-133274500D01*
X116354000Y-133264500D01*
X116395000Y-133257500D01*
X116436000Y-133251500D01*
X116478000Y-133248500D01*
X116520000Y-133247500D01*
X116562000Y-133248500D01*
G36*
X116562000Y-133248500D02*
G01*
X116604000Y-133251500D01*
X116645000Y-133257500D01*
X116686000Y-133264500D01*
X116727000Y-133274500D01*
X116767000Y-133286500D01*
X116807000Y-133300500D01*
X116845000Y-133316500D01*
X116883000Y-133334500D01*
X116920000Y-133354500D01*
X116956000Y-133376500D01*
X116990000Y-133400500D01*
X117023000Y-133425500D01*
X117055000Y-133452500D01*
X117086000Y-133481500D01*
X117115000Y-133512500D01*
X117142000Y-133544500D01*
X117167000Y-133577500D01*
X117191000Y-133611500D01*
X117213000Y-133647500D01*
X117233000Y-133684500D01*
X117251000Y-133722500D01*
X117267000Y-133760500D01*
X117281000Y-133800500D01*
X117293000Y-133840500D01*
X117303000Y-133881500D01*
X117310000Y-133922500D01*
X117316000Y-133963500D01*
X117319000Y-134005500D01*
X117320000Y-134047500D01*
X117320000Y-136447500D01*
X115720000Y-136447500D01*
X115720000Y-134047500D01*
X115721000Y-134005500D01*
X115724000Y-133963500D01*
X115730000Y-133922500D01*
X115737000Y-133881500D01*
X115747000Y-133840500D01*
X115759000Y-133800500D01*
X115773000Y-133760500D01*
X115789000Y-133722500D01*
X115807000Y-133684500D01*
X115827000Y-133647500D01*
X115849000Y-133611500D01*
X115873000Y-133577500D01*
X115898000Y-133544500D01*
X115925000Y-133512500D01*
X115954000Y-133481500D01*
X115985000Y-133452500D01*
X116017000Y-133425500D01*
X116050000Y-133400500D01*
X116084000Y-133376500D01*
X116120000Y-133354500D01*
X116157000Y-133334500D01*
X116195000Y-133316500D01*
X116233000Y-133300500D01*
X116273000Y-133286500D01*
X116313000Y-133274500D01*
X116354000Y-133264500D01*
X116395000Y-133257500D01*
X116436000Y-133251500D01*
X116478000Y-133248500D01*
X116520000Y-133247500D01*
X116562000Y-133248500D01*
G37*
X119102000Y-133248500D02*
X119144000Y-133251500D01*
X119185000Y-133257500D01*
X119226000Y-133264500D01*
X119267000Y-133274500D01*
X119307000Y-133286500D01*
X119347000Y-133300500D01*
X119385000Y-133316500D01*
X119423000Y-133334500D01*
X119460000Y-133354500D01*
X119496000Y-133376500D01*
X119530000Y-133400500D01*
X119563000Y-133425500D01*
X119595000Y-133452500D01*
X119626000Y-133481500D01*
X119655000Y-133512500D01*
X119682000Y-133544500D01*
X119707000Y-133577500D01*
X119731000Y-133611500D01*
X119753000Y-133647500D01*
X119773000Y-133684500D01*
X119791000Y-133722500D01*
X119807000Y-133760500D01*
X119821000Y-133800500D01*
X119833000Y-133840500D01*
X119843000Y-133881500D01*
X119850000Y-133922500D01*
X119856000Y-133963500D01*
X119859000Y-134005500D01*
X119860000Y-134047500D01*
X119860000Y-136447500D01*
X118260000Y-136447500D01*
X118260000Y-134047500D01*
X118261000Y-134005500D01*
X118264000Y-133963500D01*
X118270000Y-133922500D01*
X118277000Y-133881500D01*
X118287000Y-133840500D01*
X118299000Y-133800500D01*
X118313000Y-133760500D01*
X118329000Y-133722500D01*
X118347000Y-133684500D01*
X118367000Y-133647500D01*
X118389000Y-133611500D01*
X118413000Y-133577500D01*
X118438000Y-133544500D01*
X118465000Y-133512500D01*
X118494000Y-133481500D01*
X118525000Y-133452500D01*
X118557000Y-133425500D01*
X118590000Y-133400500D01*
X118624000Y-133376500D01*
X118660000Y-133354500D01*
X118697000Y-133334500D01*
X118735000Y-133316500D01*
X118773000Y-133300500D01*
X118813000Y-133286500D01*
X118853000Y-133274500D01*
X118894000Y-133264500D01*
X118935000Y-133257500D01*
X118976000Y-133251500D01*
X119018000Y-133248500D01*
X119060000Y-133247500D01*
X119102000Y-133248500D01*
G36*
X119102000Y-133248500D02*
G01*
X119144000Y-133251500D01*
X119185000Y-133257500D01*
X119226000Y-133264500D01*
X119267000Y-133274500D01*
X119307000Y-133286500D01*
X119347000Y-133300500D01*
X119385000Y-133316500D01*
X119423000Y-133334500D01*
X119460000Y-133354500D01*
X119496000Y-133376500D01*
X119530000Y-133400500D01*
X119563000Y-133425500D01*
X119595000Y-133452500D01*
X119626000Y-133481500D01*
X119655000Y-133512500D01*
X119682000Y-133544500D01*
X119707000Y-133577500D01*
X119731000Y-133611500D01*
X119753000Y-133647500D01*
X119773000Y-133684500D01*
X119791000Y-133722500D01*
X119807000Y-133760500D01*
X119821000Y-133800500D01*
X119833000Y-133840500D01*
X119843000Y-133881500D01*
X119850000Y-133922500D01*
X119856000Y-133963500D01*
X119859000Y-134005500D01*
X119860000Y-134047500D01*
X119860000Y-136447500D01*
X118260000Y-136447500D01*
X118260000Y-134047500D01*
X118261000Y-134005500D01*
X118264000Y-133963500D01*
X118270000Y-133922500D01*
X118277000Y-133881500D01*
X118287000Y-133840500D01*
X118299000Y-133800500D01*
X118313000Y-133760500D01*
X118329000Y-133722500D01*
X118347000Y-133684500D01*
X118367000Y-133647500D01*
X118389000Y-133611500D01*
X118413000Y-133577500D01*
X118438000Y-133544500D01*
X118465000Y-133512500D01*
X118494000Y-133481500D01*
X118525000Y-133452500D01*
X118557000Y-133425500D01*
X118590000Y-133400500D01*
X118624000Y-133376500D01*
X118660000Y-133354500D01*
X118697000Y-133334500D01*
X118735000Y-133316500D01*
X118773000Y-133300500D01*
X118813000Y-133286500D01*
X118853000Y-133274500D01*
X118894000Y-133264500D01*
X118935000Y-133257500D01*
X118976000Y-133251500D01*
X119018000Y-133248500D01*
X119060000Y-133247500D01*
X119102000Y-133248500D01*
G37*
X124182000Y-133248500D02*
X124224000Y-133251500D01*
X124265000Y-133257500D01*
X124306000Y-133264500D01*
X124347000Y-133274500D01*
X124387000Y-133286500D01*
X124427000Y-133300500D01*
X124465000Y-133316500D01*
X124503000Y-133334500D01*
X124540000Y-133354500D01*
X124576000Y-133376500D01*
X124610000Y-133400500D01*
X124643000Y-133425500D01*
X124675000Y-133452500D01*
X124706000Y-133481500D01*
X124735000Y-133512500D01*
X124762000Y-133544500D01*
X124787000Y-133577500D01*
X124811000Y-133611500D01*
X124833000Y-133647500D01*
X124853000Y-133684500D01*
X124871000Y-133722500D01*
X124887000Y-133760500D01*
X124901000Y-133800500D01*
X124913000Y-133840500D01*
X124923000Y-133881500D01*
X124930000Y-133922500D01*
X124936000Y-133963500D01*
X124939000Y-134005500D01*
X124940000Y-134047500D01*
X124940000Y-136447500D01*
X123340000Y-136447500D01*
X123340000Y-134047500D01*
X123341000Y-134005500D01*
X123344000Y-133963500D01*
X123350000Y-133922500D01*
X123357000Y-133881500D01*
X123367000Y-133840500D01*
X123379000Y-133800500D01*
X123393000Y-133760500D01*
X123409000Y-133722500D01*
X123427000Y-133684500D01*
X123447000Y-133647500D01*
X123469000Y-133611500D01*
X123493000Y-133577500D01*
X123518000Y-133544500D01*
X123545000Y-133512500D01*
X123574000Y-133481500D01*
X123605000Y-133452500D01*
X123637000Y-133425500D01*
X123670000Y-133400500D01*
X123704000Y-133376500D01*
X123740000Y-133354500D01*
X123777000Y-133334500D01*
X123815000Y-133316500D01*
X123853000Y-133300500D01*
X123893000Y-133286500D01*
X123933000Y-133274500D01*
X123974000Y-133264500D01*
X124015000Y-133257500D01*
X124056000Y-133251500D01*
X124098000Y-133248500D01*
X124140000Y-133247500D01*
X124182000Y-133248500D01*
G36*
X124182000Y-133248500D02*
G01*
X124224000Y-133251500D01*
X124265000Y-133257500D01*
X124306000Y-133264500D01*
X124347000Y-133274500D01*
X124387000Y-133286500D01*
X124427000Y-133300500D01*
X124465000Y-133316500D01*
X124503000Y-133334500D01*
X124540000Y-133354500D01*
X124576000Y-133376500D01*
X124610000Y-133400500D01*
X124643000Y-133425500D01*
X124675000Y-133452500D01*
X124706000Y-133481500D01*
X124735000Y-133512500D01*
X124762000Y-133544500D01*
X124787000Y-133577500D01*
X124811000Y-133611500D01*
X124833000Y-133647500D01*
X124853000Y-133684500D01*
X124871000Y-133722500D01*
X124887000Y-133760500D01*
X124901000Y-133800500D01*
X124913000Y-133840500D01*
X124923000Y-133881500D01*
X124930000Y-133922500D01*
X124936000Y-133963500D01*
X124939000Y-134005500D01*
X124940000Y-134047500D01*
X124940000Y-136447500D01*
X123340000Y-136447500D01*
X123340000Y-134047500D01*
X123341000Y-134005500D01*
X123344000Y-133963500D01*
X123350000Y-133922500D01*
X123357000Y-133881500D01*
X123367000Y-133840500D01*
X123379000Y-133800500D01*
X123393000Y-133760500D01*
X123409000Y-133722500D01*
X123427000Y-133684500D01*
X123447000Y-133647500D01*
X123469000Y-133611500D01*
X123493000Y-133577500D01*
X123518000Y-133544500D01*
X123545000Y-133512500D01*
X123574000Y-133481500D01*
X123605000Y-133452500D01*
X123637000Y-133425500D01*
X123670000Y-133400500D01*
X123704000Y-133376500D01*
X123740000Y-133354500D01*
X123777000Y-133334500D01*
X123815000Y-133316500D01*
X123853000Y-133300500D01*
X123893000Y-133286500D01*
X123933000Y-133274500D01*
X123974000Y-133264500D01*
X124015000Y-133257500D01*
X124056000Y-133251500D01*
X124098000Y-133248500D01*
X124140000Y-133247500D01*
X124182000Y-133248500D01*
G37*
X126722000Y-133248500D02*
X126764000Y-133251500D01*
X126805000Y-133257500D01*
X126846000Y-133264500D01*
X126887000Y-133274500D01*
X126927000Y-133286500D01*
X126967000Y-133300500D01*
X127005000Y-133316500D01*
X127043000Y-133334500D01*
X127080000Y-133354500D01*
X127116000Y-133376500D01*
X127150000Y-133400500D01*
X127183000Y-133425500D01*
X127215000Y-133452500D01*
X127246000Y-133481500D01*
X127275000Y-133512500D01*
X127302000Y-133544500D01*
X127327000Y-133577500D01*
X127351000Y-133611500D01*
X127373000Y-133647500D01*
X127393000Y-133684500D01*
X127411000Y-133722500D01*
X127427000Y-133760500D01*
X127441000Y-133800500D01*
X127453000Y-133840500D01*
X127463000Y-133881500D01*
X127470000Y-133922500D01*
X127476000Y-133963500D01*
X127479000Y-134005500D01*
X127480000Y-134047500D01*
X127480000Y-136447500D01*
X125880000Y-136447500D01*
X125880000Y-134047500D01*
X125881000Y-134005500D01*
X125884000Y-133963500D01*
X125890000Y-133922500D01*
X125897000Y-133881500D01*
X125907000Y-133840500D01*
X125919000Y-133800500D01*
X125933000Y-133760500D01*
X125949000Y-133722500D01*
X125967000Y-133684500D01*
X125987000Y-133647500D01*
X126009000Y-133611500D01*
X126033000Y-133577500D01*
X126058000Y-133544500D01*
X126085000Y-133512500D01*
X126114000Y-133481500D01*
X126145000Y-133452500D01*
X126177000Y-133425500D01*
X126210000Y-133400500D01*
X126244000Y-133376500D01*
X126280000Y-133354500D01*
X126317000Y-133334500D01*
X126355000Y-133316500D01*
X126393000Y-133300500D01*
X126433000Y-133286500D01*
X126473000Y-133274500D01*
X126514000Y-133264500D01*
X126555000Y-133257500D01*
X126596000Y-133251500D01*
X126638000Y-133248500D01*
X126680000Y-133247500D01*
X126722000Y-133248500D01*
G36*
X126722000Y-133248500D02*
G01*
X126764000Y-133251500D01*
X126805000Y-133257500D01*
X126846000Y-133264500D01*
X126887000Y-133274500D01*
X126927000Y-133286500D01*
X126967000Y-133300500D01*
X127005000Y-133316500D01*
X127043000Y-133334500D01*
X127080000Y-133354500D01*
X127116000Y-133376500D01*
X127150000Y-133400500D01*
X127183000Y-133425500D01*
X127215000Y-133452500D01*
X127246000Y-133481500D01*
X127275000Y-133512500D01*
X127302000Y-133544500D01*
X127327000Y-133577500D01*
X127351000Y-133611500D01*
X127373000Y-133647500D01*
X127393000Y-133684500D01*
X127411000Y-133722500D01*
X127427000Y-133760500D01*
X127441000Y-133800500D01*
X127453000Y-133840500D01*
X127463000Y-133881500D01*
X127470000Y-133922500D01*
X127476000Y-133963500D01*
X127479000Y-134005500D01*
X127480000Y-134047500D01*
X127480000Y-136447500D01*
X125880000Y-136447500D01*
X125880000Y-134047500D01*
X125881000Y-134005500D01*
X125884000Y-133963500D01*
X125890000Y-133922500D01*
X125897000Y-133881500D01*
X125907000Y-133840500D01*
X125919000Y-133800500D01*
X125933000Y-133760500D01*
X125949000Y-133722500D01*
X125967000Y-133684500D01*
X125987000Y-133647500D01*
X126009000Y-133611500D01*
X126033000Y-133577500D01*
X126058000Y-133544500D01*
X126085000Y-133512500D01*
X126114000Y-133481500D01*
X126145000Y-133452500D01*
X126177000Y-133425500D01*
X126210000Y-133400500D01*
X126244000Y-133376500D01*
X126280000Y-133354500D01*
X126317000Y-133334500D01*
X126355000Y-133316500D01*
X126393000Y-133300500D01*
X126433000Y-133286500D01*
X126473000Y-133274500D01*
X126514000Y-133264500D01*
X126555000Y-133257500D01*
X126596000Y-133251500D01*
X126638000Y-133248500D01*
X126680000Y-133247500D01*
X126722000Y-133248500D01*
G37*
X129262000Y-133248500D02*
X129304000Y-133251500D01*
X129345000Y-133257500D01*
X129386000Y-133264500D01*
X129427000Y-133274500D01*
X129467000Y-133286500D01*
X129507000Y-133300500D01*
X129545000Y-133316500D01*
X129583000Y-133334500D01*
X129620000Y-133354500D01*
X129656000Y-133376500D01*
X129690000Y-133400500D01*
X129723000Y-133425500D01*
X129755000Y-133452500D01*
X129786000Y-133481500D01*
X129815000Y-133512500D01*
X129842000Y-133544500D01*
X129867000Y-133577500D01*
X129891000Y-133611500D01*
X129913000Y-133647500D01*
X129933000Y-133684500D01*
X129951000Y-133722500D01*
X129967000Y-133760500D01*
X129981000Y-133800500D01*
X129993000Y-133840500D01*
X130003000Y-133881500D01*
X130010000Y-133922500D01*
X130016000Y-133963500D01*
X130019000Y-134005500D01*
X130020000Y-134047500D01*
X130020000Y-136447500D01*
X128420000Y-136447500D01*
X128420000Y-134047500D01*
X128421000Y-134005500D01*
X128424000Y-133963500D01*
X128430000Y-133922500D01*
X128437000Y-133881500D01*
X128447000Y-133840500D01*
X128459000Y-133800500D01*
X128473000Y-133760500D01*
X128489000Y-133722500D01*
X128507000Y-133684500D01*
X128527000Y-133647500D01*
X128549000Y-133611500D01*
X128573000Y-133577500D01*
X128598000Y-133544500D01*
X128625000Y-133512500D01*
X128654000Y-133481500D01*
X128685000Y-133452500D01*
X128717000Y-133425500D01*
X128750000Y-133400500D01*
X128784000Y-133376500D01*
X128820000Y-133354500D01*
X128857000Y-133334500D01*
X128895000Y-133316500D01*
X128933000Y-133300500D01*
X128973000Y-133286500D01*
X129013000Y-133274500D01*
X129054000Y-133264500D01*
X129095000Y-133257500D01*
X129136000Y-133251500D01*
X129178000Y-133248500D01*
X129220000Y-133247500D01*
X129262000Y-133248500D01*
G36*
X129262000Y-133248500D02*
G01*
X129304000Y-133251500D01*
X129345000Y-133257500D01*
X129386000Y-133264500D01*
X129427000Y-133274500D01*
X129467000Y-133286500D01*
X129507000Y-133300500D01*
X129545000Y-133316500D01*
X129583000Y-133334500D01*
X129620000Y-133354500D01*
X129656000Y-133376500D01*
X129690000Y-133400500D01*
X129723000Y-133425500D01*
X129755000Y-133452500D01*
X129786000Y-133481500D01*
X129815000Y-133512500D01*
X129842000Y-133544500D01*
X129867000Y-133577500D01*
X129891000Y-133611500D01*
X129913000Y-133647500D01*
X129933000Y-133684500D01*
X129951000Y-133722500D01*
X129967000Y-133760500D01*
X129981000Y-133800500D01*
X129993000Y-133840500D01*
X130003000Y-133881500D01*
X130010000Y-133922500D01*
X130016000Y-133963500D01*
X130019000Y-134005500D01*
X130020000Y-134047500D01*
X130020000Y-136447500D01*
X128420000Y-136447500D01*
X128420000Y-134047500D01*
X128421000Y-134005500D01*
X128424000Y-133963500D01*
X128430000Y-133922500D01*
X128437000Y-133881500D01*
X128447000Y-133840500D01*
X128459000Y-133800500D01*
X128473000Y-133760500D01*
X128489000Y-133722500D01*
X128507000Y-133684500D01*
X128527000Y-133647500D01*
X128549000Y-133611500D01*
X128573000Y-133577500D01*
X128598000Y-133544500D01*
X128625000Y-133512500D01*
X128654000Y-133481500D01*
X128685000Y-133452500D01*
X128717000Y-133425500D01*
X128750000Y-133400500D01*
X128784000Y-133376500D01*
X128820000Y-133354500D01*
X128857000Y-133334500D01*
X128895000Y-133316500D01*
X128933000Y-133300500D01*
X128973000Y-133286500D01*
X129013000Y-133274500D01*
X129054000Y-133264500D01*
X129095000Y-133257500D01*
X129136000Y-133251500D01*
X129178000Y-133248500D01*
X129220000Y-133247500D01*
X129262000Y-133248500D01*
G37*
X131802000Y-133248500D02*
X131844000Y-133251500D01*
X131885000Y-133257500D01*
X131926000Y-133264500D01*
X131967000Y-133274500D01*
X132007000Y-133286500D01*
X132047000Y-133300500D01*
X132085000Y-133316500D01*
X132123000Y-133334500D01*
X132160000Y-133354500D01*
X132196000Y-133376500D01*
X132230000Y-133400500D01*
X132263000Y-133425500D01*
X132295000Y-133452500D01*
X132326000Y-133481500D01*
X132355000Y-133512500D01*
X132382000Y-133544500D01*
X132407000Y-133577500D01*
X132431000Y-133611500D01*
X132453000Y-133647500D01*
X132473000Y-133684500D01*
X132491000Y-133722500D01*
X132507000Y-133760500D01*
X132521000Y-133800500D01*
X132533000Y-133840500D01*
X132543000Y-133881500D01*
X132550000Y-133922500D01*
X132556000Y-133963500D01*
X132559000Y-134005500D01*
X132560000Y-134047500D01*
X132560000Y-136447500D01*
X130960000Y-136447500D01*
X130960000Y-134047500D01*
X130961000Y-134005500D01*
X130964000Y-133963500D01*
X130970000Y-133922500D01*
X130977000Y-133881500D01*
X130987000Y-133840500D01*
X130999000Y-133800500D01*
X131013000Y-133760500D01*
X131029000Y-133722500D01*
X131047000Y-133684500D01*
X131067000Y-133647500D01*
X131089000Y-133611500D01*
X131113000Y-133577500D01*
X131138000Y-133544500D01*
X131165000Y-133512500D01*
X131194000Y-133481500D01*
X131225000Y-133452500D01*
X131257000Y-133425500D01*
X131290000Y-133400500D01*
X131324000Y-133376500D01*
X131360000Y-133354500D01*
X131397000Y-133334500D01*
X131435000Y-133316500D01*
X131473000Y-133300500D01*
X131513000Y-133286500D01*
X131553000Y-133274500D01*
X131594000Y-133264500D01*
X131635000Y-133257500D01*
X131676000Y-133251500D01*
X131718000Y-133248500D01*
X131760000Y-133247500D01*
X131802000Y-133248500D01*
G36*
X131802000Y-133248500D02*
G01*
X131844000Y-133251500D01*
X131885000Y-133257500D01*
X131926000Y-133264500D01*
X131967000Y-133274500D01*
X132007000Y-133286500D01*
X132047000Y-133300500D01*
X132085000Y-133316500D01*
X132123000Y-133334500D01*
X132160000Y-133354500D01*
X132196000Y-133376500D01*
X132230000Y-133400500D01*
X132263000Y-133425500D01*
X132295000Y-133452500D01*
X132326000Y-133481500D01*
X132355000Y-133512500D01*
X132382000Y-133544500D01*
X132407000Y-133577500D01*
X132431000Y-133611500D01*
X132453000Y-133647500D01*
X132473000Y-133684500D01*
X132491000Y-133722500D01*
X132507000Y-133760500D01*
X132521000Y-133800500D01*
X132533000Y-133840500D01*
X132543000Y-133881500D01*
X132550000Y-133922500D01*
X132556000Y-133963500D01*
X132559000Y-134005500D01*
X132560000Y-134047500D01*
X132560000Y-136447500D01*
X130960000Y-136447500D01*
X130960000Y-134047500D01*
X130961000Y-134005500D01*
X130964000Y-133963500D01*
X130970000Y-133922500D01*
X130977000Y-133881500D01*
X130987000Y-133840500D01*
X130999000Y-133800500D01*
X131013000Y-133760500D01*
X131029000Y-133722500D01*
X131047000Y-133684500D01*
X131067000Y-133647500D01*
X131089000Y-133611500D01*
X131113000Y-133577500D01*
X131138000Y-133544500D01*
X131165000Y-133512500D01*
X131194000Y-133481500D01*
X131225000Y-133452500D01*
X131257000Y-133425500D01*
X131290000Y-133400500D01*
X131324000Y-133376500D01*
X131360000Y-133354500D01*
X131397000Y-133334500D01*
X131435000Y-133316500D01*
X131473000Y-133300500D01*
X131513000Y-133286500D01*
X131553000Y-133274500D01*
X131594000Y-133264500D01*
X131635000Y-133257500D01*
X131676000Y-133251500D01*
X131718000Y-133248500D01*
X131760000Y-133247500D01*
X131802000Y-133248500D01*
G37*
X136882000Y-133248500D02*
X136924000Y-133251500D01*
X136965000Y-133257500D01*
X137006000Y-133264500D01*
X137047000Y-133274500D01*
X137087000Y-133286500D01*
X137127000Y-133300500D01*
X137165000Y-133316500D01*
X137203000Y-133334500D01*
X137240000Y-133354500D01*
X137276000Y-133376500D01*
X137310000Y-133400500D01*
X137343000Y-133425500D01*
X137375000Y-133452500D01*
X137406000Y-133481500D01*
X137435000Y-133512500D01*
X137462000Y-133544500D01*
X137487000Y-133577500D01*
X137511000Y-133611500D01*
X137533000Y-133647500D01*
X137553000Y-133684500D01*
X137571000Y-133722500D01*
X137587000Y-133760500D01*
X137601000Y-133800500D01*
X137613000Y-133840500D01*
X137623000Y-133881500D01*
X137630000Y-133922500D01*
X137636000Y-133963500D01*
X137639000Y-134005500D01*
X137640000Y-134047500D01*
X137640000Y-136447500D01*
X136040000Y-136447500D01*
X136040000Y-134047500D01*
X136041000Y-134005500D01*
X136044000Y-133963500D01*
X136050000Y-133922500D01*
X136057000Y-133881500D01*
X136067000Y-133840500D01*
X136079000Y-133800500D01*
X136093000Y-133760500D01*
X136109000Y-133722500D01*
X136127000Y-133684500D01*
X136147000Y-133647500D01*
X136169000Y-133611500D01*
X136193000Y-133577500D01*
X136218000Y-133544500D01*
X136245000Y-133512500D01*
X136274000Y-133481500D01*
X136305000Y-133452500D01*
X136337000Y-133425500D01*
X136370000Y-133400500D01*
X136404000Y-133376500D01*
X136440000Y-133354500D01*
X136477000Y-133334500D01*
X136515000Y-133316500D01*
X136553000Y-133300500D01*
X136593000Y-133286500D01*
X136633000Y-133274500D01*
X136674000Y-133264500D01*
X136715000Y-133257500D01*
X136756000Y-133251500D01*
X136798000Y-133248500D01*
X136840000Y-133247500D01*
X136882000Y-133248500D01*
G36*
X136882000Y-133248500D02*
G01*
X136924000Y-133251500D01*
X136965000Y-133257500D01*
X137006000Y-133264500D01*
X137047000Y-133274500D01*
X137087000Y-133286500D01*
X137127000Y-133300500D01*
X137165000Y-133316500D01*
X137203000Y-133334500D01*
X137240000Y-133354500D01*
X137276000Y-133376500D01*
X137310000Y-133400500D01*
X137343000Y-133425500D01*
X137375000Y-133452500D01*
X137406000Y-133481500D01*
X137435000Y-133512500D01*
X137462000Y-133544500D01*
X137487000Y-133577500D01*
X137511000Y-133611500D01*
X137533000Y-133647500D01*
X137553000Y-133684500D01*
X137571000Y-133722500D01*
X137587000Y-133760500D01*
X137601000Y-133800500D01*
X137613000Y-133840500D01*
X137623000Y-133881500D01*
X137630000Y-133922500D01*
X137636000Y-133963500D01*
X137639000Y-134005500D01*
X137640000Y-134047500D01*
X137640000Y-136447500D01*
X136040000Y-136447500D01*
X136040000Y-134047500D01*
X136041000Y-134005500D01*
X136044000Y-133963500D01*
X136050000Y-133922500D01*
X136057000Y-133881500D01*
X136067000Y-133840500D01*
X136079000Y-133800500D01*
X136093000Y-133760500D01*
X136109000Y-133722500D01*
X136127000Y-133684500D01*
X136147000Y-133647500D01*
X136169000Y-133611500D01*
X136193000Y-133577500D01*
X136218000Y-133544500D01*
X136245000Y-133512500D01*
X136274000Y-133481500D01*
X136305000Y-133452500D01*
X136337000Y-133425500D01*
X136370000Y-133400500D01*
X136404000Y-133376500D01*
X136440000Y-133354500D01*
X136477000Y-133334500D01*
X136515000Y-133316500D01*
X136553000Y-133300500D01*
X136593000Y-133286500D01*
X136633000Y-133274500D01*
X136674000Y-133264500D01*
X136715000Y-133257500D01*
X136756000Y-133251500D01*
X136798000Y-133248500D01*
X136840000Y-133247500D01*
X136882000Y-133248500D01*
G37*
X139422000Y-133248500D02*
X139464000Y-133251500D01*
X139505000Y-133257500D01*
X139546000Y-133264500D01*
X139587000Y-133274500D01*
X139627000Y-133286500D01*
X139667000Y-133300500D01*
X139705000Y-133316500D01*
X139743000Y-133334500D01*
X139780000Y-133354500D01*
X139816000Y-133376500D01*
X139850000Y-133400500D01*
X139883000Y-133425500D01*
X139915000Y-133452500D01*
X139946000Y-133481500D01*
X139975000Y-133512500D01*
X140002000Y-133544500D01*
X140027000Y-133577500D01*
X140051000Y-133611500D01*
X140073000Y-133647500D01*
X140093000Y-133684500D01*
X140111000Y-133722500D01*
X140127000Y-133760500D01*
X140141000Y-133800500D01*
X140153000Y-133840500D01*
X140163000Y-133881500D01*
X140170000Y-133922500D01*
X140176000Y-133963500D01*
X140179000Y-134005500D01*
X140180000Y-134047500D01*
X140180000Y-136447500D01*
X138580000Y-136447500D01*
X138580000Y-134047500D01*
X138581000Y-134005500D01*
X138584000Y-133963500D01*
X138590000Y-133922500D01*
X138597000Y-133881500D01*
X138607000Y-133840500D01*
X138619000Y-133800500D01*
X138633000Y-133760500D01*
X138649000Y-133722500D01*
X138667000Y-133684500D01*
X138687000Y-133647500D01*
X138709000Y-133611500D01*
X138733000Y-133577500D01*
X138758000Y-133544500D01*
X138785000Y-133512500D01*
X138814000Y-133481500D01*
X138845000Y-133452500D01*
X138877000Y-133425500D01*
X138910000Y-133400500D01*
X138944000Y-133376500D01*
X138980000Y-133354500D01*
X139017000Y-133334500D01*
X139055000Y-133316500D01*
X139093000Y-133300500D01*
X139133000Y-133286500D01*
X139173000Y-133274500D01*
X139214000Y-133264500D01*
X139255000Y-133257500D01*
X139296000Y-133251500D01*
X139338000Y-133248500D01*
X139380000Y-133247500D01*
X139422000Y-133248500D01*
G36*
X139422000Y-133248500D02*
G01*
X139464000Y-133251500D01*
X139505000Y-133257500D01*
X139546000Y-133264500D01*
X139587000Y-133274500D01*
X139627000Y-133286500D01*
X139667000Y-133300500D01*
X139705000Y-133316500D01*
X139743000Y-133334500D01*
X139780000Y-133354500D01*
X139816000Y-133376500D01*
X139850000Y-133400500D01*
X139883000Y-133425500D01*
X139915000Y-133452500D01*
X139946000Y-133481500D01*
X139975000Y-133512500D01*
X140002000Y-133544500D01*
X140027000Y-133577500D01*
X140051000Y-133611500D01*
X140073000Y-133647500D01*
X140093000Y-133684500D01*
X140111000Y-133722500D01*
X140127000Y-133760500D01*
X140141000Y-133800500D01*
X140153000Y-133840500D01*
X140163000Y-133881500D01*
X140170000Y-133922500D01*
X140176000Y-133963500D01*
X140179000Y-134005500D01*
X140180000Y-134047500D01*
X140180000Y-136447500D01*
X138580000Y-136447500D01*
X138580000Y-134047500D01*
X138581000Y-134005500D01*
X138584000Y-133963500D01*
X138590000Y-133922500D01*
X138597000Y-133881500D01*
X138607000Y-133840500D01*
X138619000Y-133800500D01*
X138633000Y-133760500D01*
X138649000Y-133722500D01*
X138667000Y-133684500D01*
X138687000Y-133647500D01*
X138709000Y-133611500D01*
X138733000Y-133577500D01*
X138758000Y-133544500D01*
X138785000Y-133512500D01*
X138814000Y-133481500D01*
X138845000Y-133452500D01*
X138877000Y-133425500D01*
X138910000Y-133400500D01*
X138944000Y-133376500D01*
X138980000Y-133354500D01*
X139017000Y-133334500D01*
X139055000Y-133316500D01*
X139093000Y-133300500D01*
X139133000Y-133286500D01*
X139173000Y-133274500D01*
X139214000Y-133264500D01*
X139255000Y-133257500D01*
X139296000Y-133251500D01*
X139338000Y-133248500D01*
X139380000Y-133247500D01*
X139422000Y-133248500D01*
G37*
X141962000Y-133248500D02*
X142004000Y-133251500D01*
X142045000Y-133257500D01*
X142086000Y-133264500D01*
X142127000Y-133274500D01*
X142167000Y-133286500D01*
X142207000Y-133300500D01*
X142245000Y-133316500D01*
X142283000Y-133334500D01*
X142320000Y-133354500D01*
X142356000Y-133376500D01*
X142390000Y-133400500D01*
X142423000Y-133425500D01*
X142455000Y-133452500D01*
X142486000Y-133481500D01*
X142515000Y-133512500D01*
X142542000Y-133544500D01*
X142567000Y-133577500D01*
X142591000Y-133611500D01*
X142613000Y-133647500D01*
X142633000Y-133684500D01*
X142651000Y-133722500D01*
X142667000Y-133760500D01*
X142681000Y-133800500D01*
X142693000Y-133840500D01*
X142703000Y-133881500D01*
X142710000Y-133922500D01*
X142716000Y-133963500D01*
X142719000Y-134005500D01*
X142720000Y-134047500D01*
X142720000Y-136447500D01*
X141120000Y-136447500D01*
X141120000Y-134047500D01*
X141121000Y-134005500D01*
X141124000Y-133963500D01*
X141130000Y-133922500D01*
X141137000Y-133881500D01*
X141147000Y-133840500D01*
X141159000Y-133800500D01*
X141173000Y-133760500D01*
X141189000Y-133722500D01*
X141207000Y-133684500D01*
X141227000Y-133647500D01*
X141249000Y-133611500D01*
X141273000Y-133577500D01*
X141298000Y-133544500D01*
X141325000Y-133512500D01*
X141354000Y-133481500D01*
X141385000Y-133452500D01*
X141417000Y-133425500D01*
X141450000Y-133400500D01*
X141484000Y-133376500D01*
X141520000Y-133354500D01*
X141557000Y-133334500D01*
X141595000Y-133316500D01*
X141633000Y-133300500D01*
X141673000Y-133286500D01*
X141713000Y-133274500D01*
X141754000Y-133264500D01*
X141795000Y-133257500D01*
X141836000Y-133251500D01*
X141878000Y-133248500D01*
X141920000Y-133247500D01*
X141962000Y-133248500D01*
G36*
X141962000Y-133248500D02*
G01*
X142004000Y-133251500D01*
X142045000Y-133257500D01*
X142086000Y-133264500D01*
X142127000Y-133274500D01*
X142167000Y-133286500D01*
X142207000Y-133300500D01*
X142245000Y-133316500D01*
X142283000Y-133334500D01*
X142320000Y-133354500D01*
X142356000Y-133376500D01*
X142390000Y-133400500D01*
X142423000Y-133425500D01*
X142455000Y-133452500D01*
X142486000Y-133481500D01*
X142515000Y-133512500D01*
X142542000Y-133544500D01*
X142567000Y-133577500D01*
X142591000Y-133611500D01*
X142613000Y-133647500D01*
X142633000Y-133684500D01*
X142651000Y-133722500D01*
X142667000Y-133760500D01*
X142681000Y-133800500D01*
X142693000Y-133840500D01*
X142703000Y-133881500D01*
X142710000Y-133922500D01*
X142716000Y-133963500D01*
X142719000Y-134005500D01*
X142720000Y-134047500D01*
X142720000Y-136447500D01*
X141120000Y-136447500D01*
X141120000Y-134047500D01*
X141121000Y-134005500D01*
X141124000Y-133963500D01*
X141130000Y-133922500D01*
X141137000Y-133881500D01*
X141147000Y-133840500D01*
X141159000Y-133800500D01*
X141173000Y-133760500D01*
X141189000Y-133722500D01*
X141207000Y-133684500D01*
X141227000Y-133647500D01*
X141249000Y-133611500D01*
X141273000Y-133577500D01*
X141298000Y-133544500D01*
X141325000Y-133512500D01*
X141354000Y-133481500D01*
X141385000Y-133452500D01*
X141417000Y-133425500D01*
X141450000Y-133400500D01*
X141484000Y-133376500D01*
X141520000Y-133354500D01*
X141557000Y-133334500D01*
X141595000Y-133316500D01*
X141633000Y-133300500D01*
X141673000Y-133286500D01*
X141713000Y-133274500D01*
X141754000Y-133264500D01*
X141795000Y-133257500D01*
X141836000Y-133251500D01*
X141878000Y-133248500D01*
X141920000Y-133247500D01*
X141962000Y-133248500D01*
G37*
X144502000Y-133248500D02*
X144544000Y-133251500D01*
X144585000Y-133257500D01*
X144626000Y-133264500D01*
X144667000Y-133274500D01*
X144707000Y-133286500D01*
X144747000Y-133300500D01*
X144785000Y-133316500D01*
X144823000Y-133334500D01*
X144860000Y-133354500D01*
X144896000Y-133376500D01*
X144930000Y-133400500D01*
X144963000Y-133425500D01*
X144995000Y-133452500D01*
X145026000Y-133481500D01*
X145055000Y-133512500D01*
X145082000Y-133544500D01*
X145107000Y-133577500D01*
X145131000Y-133611500D01*
X145153000Y-133647500D01*
X145173000Y-133684500D01*
X145191000Y-133722500D01*
X145207000Y-133760500D01*
X145221000Y-133800500D01*
X145233000Y-133840500D01*
X145243000Y-133881500D01*
X145250000Y-133922500D01*
X145256000Y-133963500D01*
X145259000Y-134005500D01*
X145260000Y-134047500D01*
X145260000Y-136447500D01*
X143660000Y-136447500D01*
X143660000Y-134047500D01*
X143661000Y-134005500D01*
X143664000Y-133963500D01*
X143670000Y-133922500D01*
X143677000Y-133881500D01*
X143687000Y-133840500D01*
X143699000Y-133800500D01*
X143713000Y-133760500D01*
X143729000Y-133722500D01*
X143747000Y-133684500D01*
X143767000Y-133647500D01*
X143789000Y-133611500D01*
X143813000Y-133577500D01*
X143838000Y-133544500D01*
X143865000Y-133512500D01*
X143894000Y-133481500D01*
X143925000Y-133452500D01*
X143957000Y-133425500D01*
X143990000Y-133400500D01*
X144024000Y-133376500D01*
X144060000Y-133354500D01*
X144097000Y-133334500D01*
X144135000Y-133316500D01*
X144173000Y-133300500D01*
X144213000Y-133286500D01*
X144253000Y-133274500D01*
X144294000Y-133264500D01*
X144335000Y-133257500D01*
X144376000Y-133251500D01*
X144418000Y-133248500D01*
X144460000Y-133247500D01*
X144502000Y-133248500D01*
G36*
X144502000Y-133248500D02*
G01*
X144544000Y-133251500D01*
X144585000Y-133257500D01*
X144626000Y-133264500D01*
X144667000Y-133274500D01*
X144707000Y-133286500D01*
X144747000Y-133300500D01*
X144785000Y-133316500D01*
X144823000Y-133334500D01*
X144860000Y-133354500D01*
X144896000Y-133376500D01*
X144930000Y-133400500D01*
X144963000Y-133425500D01*
X144995000Y-133452500D01*
X145026000Y-133481500D01*
X145055000Y-133512500D01*
X145082000Y-133544500D01*
X145107000Y-133577500D01*
X145131000Y-133611500D01*
X145153000Y-133647500D01*
X145173000Y-133684500D01*
X145191000Y-133722500D01*
X145207000Y-133760500D01*
X145221000Y-133800500D01*
X145233000Y-133840500D01*
X145243000Y-133881500D01*
X145250000Y-133922500D01*
X145256000Y-133963500D01*
X145259000Y-134005500D01*
X145260000Y-134047500D01*
X145260000Y-136447500D01*
X143660000Y-136447500D01*
X143660000Y-134047500D01*
X143661000Y-134005500D01*
X143664000Y-133963500D01*
X143670000Y-133922500D01*
X143677000Y-133881500D01*
X143687000Y-133840500D01*
X143699000Y-133800500D01*
X143713000Y-133760500D01*
X143729000Y-133722500D01*
X143747000Y-133684500D01*
X143767000Y-133647500D01*
X143789000Y-133611500D01*
X143813000Y-133577500D01*
X143838000Y-133544500D01*
X143865000Y-133512500D01*
X143894000Y-133481500D01*
X143925000Y-133452500D01*
X143957000Y-133425500D01*
X143990000Y-133400500D01*
X144024000Y-133376500D01*
X144060000Y-133354500D01*
X144097000Y-133334500D01*
X144135000Y-133316500D01*
X144173000Y-133300500D01*
X144213000Y-133286500D01*
X144253000Y-133274500D01*
X144294000Y-133264500D01*
X144335000Y-133257500D01*
X144376000Y-133251500D01*
X144418000Y-133248500D01*
X144460000Y-133247500D01*
X144502000Y-133248500D01*
G37*
X149582000Y-133248500D02*
X149624000Y-133251500D01*
X149665000Y-133257500D01*
X149706000Y-133264500D01*
X149747000Y-133274500D01*
X149787000Y-133286500D01*
X149827000Y-133300500D01*
X149865000Y-133316500D01*
X149903000Y-133334500D01*
X149940000Y-133354500D01*
X149976000Y-133376500D01*
X150010000Y-133400500D01*
X150043000Y-133425500D01*
X150075000Y-133452500D01*
X150106000Y-133481500D01*
X150135000Y-133512500D01*
X150162000Y-133544500D01*
X150187000Y-133577500D01*
X150211000Y-133611500D01*
X150233000Y-133647500D01*
X150253000Y-133684500D01*
X150271000Y-133722500D01*
X150287000Y-133760500D01*
X150301000Y-133800500D01*
X150313000Y-133840500D01*
X150323000Y-133881500D01*
X150330000Y-133922500D01*
X150336000Y-133963500D01*
X150339000Y-134005500D01*
X150340000Y-134047500D01*
X150340000Y-136447500D01*
X148740000Y-136447500D01*
X148740000Y-134047500D01*
X148741000Y-134005500D01*
X148744000Y-133963500D01*
X148750000Y-133922500D01*
X148757000Y-133881500D01*
X148767000Y-133840500D01*
X148779000Y-133800500D01*
X148793000Y-133760500D01*
X148809000Y-133722500D01*
X148827000Y-133684500D01*
X148847000Y-133647500D01*
X148869000Y-133611500D01*
X148893000Y-133577500D01*
X148918000Y-133544500D01*
X148945000Y-133512500D01*
X148974000Y-133481500D01*
X149005000Y-133452500D01*
X149037000Y-133425500D01*
X149070000Y-133400500D01*
X149104000Y-133376500D01*
X149140000Y-133354500D01*
X149177000Y-133334500D01*
X149215000Y-133316500D01*
X149253000Y-133300500D01*
X149293000Y-133286500D01*
X149333000Y-133274500D01*
X149374000Y-133264500D01*
X149415000Y-133257500D01*
X149456000Y-133251500D01*
X149498000Y-133248500D01*
X149540000Y-133247500D01*
X149582000Y-133248500D01*
G36*
X149582000Y-133248500D02*
G01*
X149624000Y-133251500D01*
X149665000Y-133257500D01*
X149706000Y-133264500D01*
X149747000Y-133274500D01*
X149787000Y-133286500D01*
X149827000Y-133300500D01*
X149865000Y-133316500D01*
X149903000Y-133334500D01*
X149940000Y-133354500D01*
X149976000Y-133376500D01*
X150010000Y-133400500D01*
X150043000Y-133425500D01*
X150075000Y-133452500D01*
X150106000Y-133481500D01*
X150135000Y-133512500D01*
X150162000Y-133544500D01*
X150187000Y-133577500D01*
X150211000Y-133611500D01*
X150233000Y-133647500D01*
X150253000Y-133684500D01*
X150271000Y-133722500D01*
X150287000Y-133760500D01*
X150301000Y-133800500D01*
X150313000Y-133840500D01*
X150323000Y-133881500D01*
X150330000Y-133922500D01*
X150336000Y-133963500D01*
X150339000Y-134005500D01*
X150340000Y-134047500D01*
X150340000Y-136447500D01*
X148740000Y-136447500D01*
X148740000Y-134047500D01*
X148741000Y-134005500D01*
X148744000Y-133963500D01*
X148750000Y-133922500D01*
X148757000Y-133881500D01*
X148767000Y-133840500D01*
X148779000Y-133800500D01*
X148793000Y-133760500D01*
X148809000Y-133722500D01*
X148827000Y-133684500D01*
X148847000Y-133647500D01*
X148869000Y-133611500D01*
X148893000Y-133577500D01*
X148918000Y-133544500D01*
X148945000Y-133512500D01*
X148974000Y-133481500D01*
X149005000Y-133452500D01*
X149037000Y-133425500D01*
X149070000Y-133400500D01*
X149104000Y-133376500D01*
X149140000Y-133354500D01*
X149177000Y-133334500D01*
X149215000Y-133316500D01*
X149253000Y-133300500D01*
X149293000Y-133286500D01*
X149333000Y-133274500D01*
X149374000Y-133264500D01*
X149415000Y-133257500D01*
X149456000Y-133251500D01*
X149498000Y-133248500D01*
X149540000Y-133247500D01*
X149582000Y-133248500D01*
G37*
X152122000Y-133248500D02*
X152164000Y-133251500D01*
X152205000Y-133257500D01*
X152246000Y-133264500D01*
X152287000Y-133274500D01*
X152327000Y-133286500D01*
X152367000Y-133300500D01*
X152405000Y-133316500D01*
X152443000Y-133334500D01*
X152480000Y-133354500D01*
X152516000Y-133376500D01*
X152550000Y-133400500D01*
X152583000Y-133425500D01*
X152615000Y-133452500D01*
X152646000Y-133481500D01*
X152675000Y-133512500D01*
X152702000Y-133544500D01*
X152727000Y-133577500D01*
X152751000Y-133611500D01*
X152773000Y-133647500D01*
X152793000Y-133684500D01*
X152811000Y-133722500D01*
X152827000Y-133760500D01*
X152841000Y-133800500D01*
X152853000Y-133840500D01*
X152863000Y-133881500D01*
X152870000Y-133922500D01*
X152876000Y-133963500D01*
X152879000Y-134005500D01*
X152880000Y-134047500D01*
X152880000Y-136447500D01*
X151280000Y-136447500D01*
X151280000Y-134047500D01*
X151281000Y-134005500D01*
X151284000Y-133963500D01*
X151290000Y-133922500D01*
X151297000Y-133881500D01*
X151307000Y-133840500D01*
X151319000Y-133800500D01*
X151333000Y-133760500D01*
X151349000Y-133722500D01*
X151367000Y-133684500D01*
X151387000Y-133647500D01*
X151409000Y-133611500D01*
X151433000Y-133577500D01*
X151458000Y-133544500D01*
X151485000Y-133512500D01*
X151514000Y-133481500D01*
X151545000Y-133452500D01*
X151577000Y-133425500D01*
X151610000Y-133400500D01*
X151644000Y-133376500D01*
X151680000Y-133354500D01*
X151717000Y-133334500D01*
X151755000Y-133316500D01*
X151793000Y-133300500D01*
X151833000Y-133286500D01*
X151873000Y-133274500D01*
X151914000Y-133264500D01*
X151955000Y-133257500D01*
X151996000Y-133251500D01*
X152038000Y-133248500D01*
X152080000Y-133247500D01*
X152122000Y-133248500D01*
G36*
X152122000Y-133248500D02*
G01*
X152164000Y-133251500D01*
X152205000Y-133257500D01*
X152246000Y-133264500D01*
X152287000Y-133274500D01*
X152327000Y-133286500D01*
X152367000Y-133300500D01*
X152405000Y-133316500D01*
X152443000Y-133334500D01*
X152480000Y-133354500D01*
X152516000Y-133376500D01*
X152550000Y-133400500D01*
X152583000Y-133425500D01*
X152615000Y-133452500D01*
X152646000Y-133481500D01*
X152675000Y-133512500D01*
X152702000Y-133544500D01*
X152727000Y-133577500D01*
X152751000Y-133611500D01*
X152773000Y-133647500D01*
X152793000Y-133684500D01*
X152811000Y-133722500D01*
X152827000Y-133760500D01*
X152841000Y-133800500D01*
X152853000Y-133840500D01*
X152863000Y-133881500D01*
X152870000Y-133922500D01*
X152876000Y-133963500D01*
X152879000Y-134005500D01*
X152880000Y-134047500D01*
X152880000Y-136447500D01*
X151280000Y-136447500D01*
X151280000Y-134047500D01*
X151281000Y-134005500D01*
X151284000Y-133963500D01*
X151290000Y-133922500D01*
X151297000Y-133881500D01*
X151307000Y-133840500D01*
X151319000Y-133800500D01*
X151333000Y-133760500D01*
X151349000Y-133722500D01*
X151367000Y-133684500D01*
X151387000Y-133647500D01*
X151409000Y-133611500D01*
X151433000Y-133577500D01*
X151458000Y-133544500D01*
X151485000Y-133512500D01*
X151514000Y-133481500D01*
X151545000Y-133452500D01*
X151577000Y-133425500D01*
X151610000Y-133400500D01*
X151644000Y-133376500D01*
X151680000Y-133354500D01*
X151717000Y-133334500D01*
X151755000Y-133316500D01*
X151793000Y-133300500D01*
X151833000Y-133286500D01*
X151873000Y-133274500D01*
X151914000Y-133264500D01*
X151955000Y-133257500D01*
X151996000Y-133251500D01*
X152038000Y-133248500D01*
X152080000Y-133247500D01*
X152122000Y-133248500D01*
G37*
X104620000Y-116267500D02*
X104619000Y-116309500D01*
X104616000Y-116351500D01*
X104610000Y-116392500D01*
X104603000Y-116433500D01*
X104593000Y-116474500D01*
X104581000Y-116514500D01*
X104567000Y-116554500D01*
X104551000Y-116592500D01*
X104533000Y-116630500D01*
X104513000Y-116667500D01*
X104491000Y-116703500D01*
X104467000Y-116737500D01*
X104442000Y-116770500D01*
X104415000Y-116802500D01*
X104386000Y-116833500D01*
X104355000Y-116862500D01*
X104323000Y-116889500D01*
X104290000Y-116914500D01*
X104256000Y-116938500D01*
X104220000Y-116960500D01*
X104183000Y-116980500D01*
X104145000Y-116998500D01*
X104107000Y-117014500D01*
X104067000Y-117028500D01*
X104027000Y-117040500D01*
X103986000Y-117050500D01*
X103945000Y-117057500D01*
X103904000Y-117063500D01*
X103862000Y-117066500D01*
X103820000Y-117067500D01*
X103778000Y-117066500D01*
X103736000Y-117063500D01*
X103695000Y-117057500D01*
X103654000Y-117050500D01*
X103613000Y-117040500D01*
X103573000Y-117028500D01*
X103533000Y-117014500D01*
X103495000Y-116998500D01*
X103457000Y-116980500D01*
X103420000Y-116960500D01*
X103384000Y-116938500D01*
X103350000Y-116914500D01*
X103317000Y-116889500D01*
X103285000Y-116862500D01*
X103254000Y-116833500D01*
X103225000Y-116802500D01*
X103198000Y-116770500D01*
X103173000Y-116737500D01*
X103149000Y-116703500D01*
X103127000Y-116667500D01*
X103107000Y-116630500D01*
X103089000Y-116592500D01*
X103073000Y-116554500D01*
X103059000Y-116514500D01*
X103047000Y-116474500D01*
X103037000Y-116433500D01*
X103030000Y-116392500D01*
X103024000Y-116351500D01*
X103021000Y-116309500D01*
X103020000Y-116267500D01*
X103020000Y-113867500D01*
X104620000Y-113867500D01*
X104620000Y-116267500D01*
G36*
X104620000Y-116267500D02*
G01*
X104619000Y-116309500D01*
X104616000Y-116351500D01*
X104610000Y-116392500D01*
X104603000Y-116433500D01*
X104593000Y-116474500D01*
X104581000Y-116514500D01*
X104567000Y-116554500D01*
X104551000Y-116592500D01*
X104533000Y-116630500D01*
X104513000Y-116667500D01*
X104491000Y-116703500D01*
X104467000Y-116737500D01*
X104442000Y-116770500D01*
X104415000Y-116802500D01*
X104386000Y-116833500D01*
X104355000Y-116862500D01*
X104323000Y-116889500D01*
X104290000Y-116914500D01*
X104256000Y-116938500D01*
X104220000Y-116960500D01*
X104183000Y-116980500D01*
X104145000Y-116998500D01*
X104107000Y-117014500D01*
X104067000Y-117028500D01*
X104027000Y-117040500D01*
X103986000Y-117050500D01*
X103945000Y-117057500D01*
X103904000Y-117063500D01*
X103862000Y-117066500D01*
X103820000Y-117067500D01*
X103778000Y-117066500D01*
X103736000Y-117063500D01*
X103695000Y-117057500D01*
X103654000Y-117050500D01*
X103613000Y-117040500D01*
X103573000Y-117028500D01*
X103533000Y-117014500D01*
X103495000Y-116998500D01*
X103457000Y-116980500D01*
X103420000Y-116960500D01*
X103384000Y-116938500D01*
X103350000Y-116914500D01*
X103317000Y-116889500D01*
X103285000Y-116862500D01*
X103254000Y-116833500D01*
X103225000Y-116802500D01*
X103198000Y-116770500D01*
X103173000Y-116737500D01*
X103149000Y-116703500D01*
X103127000Y-116667500D01*
X103107000Y-116630500D01*
X103089000Y-116592500D01*
X103073000Y-116554500D01*
X103059000Y-116514500D01*
X103047000Y-116474500D01*
X103037000Y-116433500D01*
X103030000Y-116392500D01*
X103024000Y-116351500D01*
X103021000Y-116309500D01*
X103020000Y-116267500D01*
X103020000Y-113867500D01*
X104620000Y-113867500D01*
X104620000Y-116267500D01*
G37*
X107160000Y-116267500D02*
X107159000Y-116309500D01*
X107156000Y-116351500D01*
X107150000Y-116392500D01*
X107143000Y-116433500D01*
X107133000Y-116474500D01*
X107121000Y-116514500D01*
X107107000Y-116554500D01*
X107091000Y-116592500D01*
X107073000Y-116630500D01*
X107053000Y-116667500D01*
X107031000Y-116703500D01*
X107007000Y-116737500D01*
X106982000Y-116770500D01*
X106955000Y-116802500D01*
X106926000Y-116833500D01*
X106895000Y-116862500D01*
X106863000Y-116889500D01*
X106830000Y-116914500D01*
X106796000Y-116938500D01*
X106760000Y-116960500D01*
X106723000Y-116980500D01*
X106685000Y-116998500D01*
X106647000Y-117014500D01*
X106607000Y-117028500D01*
X106567000Y-117040500D01*
X106526000Y-117050500D01*
X106485000Y-117057500D01*
X106444000Y-117063500D01*
X106402000Y-117066500D01*
X106360000Y-117067500D01*
X106318000Y-117066500D01*
X106276000Y-117063500D01*
X106235000Y-117057500D01*
X106194000Y-117050500D01*
X106153000Y-117040500D01*
X106113000Y-117028500D01*
X106073000Y-117014500D01*
X106035000Y-116998500D01*
X105997000Y-116980500D01*
X105960000Y-116960500D01*
X105924000Y-116938500D01*
X105890000Y-116914500D01*
X105857000Y-116889500D01*
X105825000Y-116862500D01*
X105794000Y-116833500D01*
X105765000Y-116802500D01*
X105738000Y-116770500D01*
X105713000Y-116737500D01*
X105689000Y-116703500D01*
X105667000Y-116667500D01*
X105647000Y-116630500D01*
X105629000Y-116592500D01*
X105613000Y-116554500D01*
X105599000Y-116514500D01*
X105587000Y-116474500D01*
X105577000Y-116433500D01*
X105570000Y-116392500D01*
X105564000Y-116351500D01*
X105561000Y-116309500D01*
X105560000Y-116267500D01*
X105560000Y-113867500D01*
X107160000Y-113867500D01*
X107160000Y-116267500D01*
G36*
X107160000Y-116267500D02*
G01*
X107159000Y-116309500D01*
X107156000Y-116351500D01*
X107150000Y-116392500D01*
X107143000Y-116433500D01*
X107133000Y-116474500D01*
X107121000Y-116514500D01*
X107107000Y-116554500D01*
X107091000Y-116592500D01*
X107073000Y-116630500D01*
X107053000Y-116667500D01*
X107031000Y-116703500D01*
X107007000Y-116737500D01*
X106982000Y-116770500D01*
X106955000Y-116802500D01*
X106926000Y-116833500D01*
X106895000Y-116862500D01*
X106863000Y-116889500D01*
X106830000Y-116914500D01*
X106796000Y-116938500D01*
X106760000Y-116960500D01*
X106723000Y-116980500D01*
X106685000Y-116998500D01*
X106647000Y-117014500D01*
X106607000Y-117028500D01*
X106567000Y-117040500D01*
X106526000Y-117050500D01*
X106485000Y-117057500D01*
X106444000Y-117063500D01*
X106402000Y-117066500D01*
X106360000Y-117067500D01*
X106318000Y-117066500D01*
X106276000Y-117063500D01*
X106235000Y-117057500D01*
X106194000Y-117050500D01*
X106153000Y-117040500D01*
X106113000Y-117028500D01*
X106073000Y-117014500D01*
X106035000Y-116998500D01*
X105997000Y-116980500D01*
X105960000Y-116960500D01*
X105924000Y-116938500D01*
X105890000Y-116914500D01*
X105857000Y-116889500D01*
X105825000Y-116862500D01*
X105794000Y-116833500D01*
X105765000Y-116802500D01*
X105738000Y-116770500D01*
X105713000Y-116737500D01*
X105689000Y-116703500D01*
X105667000Y-116667500D01*
X105647000Y-116630500D01*
X105629000Y-116592500D01*
X105613000Y-116554500D01*
X105599000Y-116514500D01*
X105587000Y-116474500D01*
X105577000Y-116433500D01*
X105570000Y-116392500D01*
X105564000Y-116351500D01*
X105561000Y-116309500D01*
X105560000Y-116267500D01*
X105560000Y-113867500D01*
X107160000Y-113867500D01*
X107160000Y-116267500D01*
G37*
X112240000Y-116267500D02*
X112239000Y-116309500D01*
X112236000Y-116351500D01*
X112230000Y-116392500D01*
X112223000Y-116433500D01*
X112213000Y-116474500D01*
X112201000Y-116514500D01*
X112187000Y-116554500D01*
X112171000Y-116592500D01*
X112153000Y-116630500D01*
X112133000Y-116667500D01*
X112111000Y-116703500D01*
X112087000Y-116737500D01*
X112062000Y-116770500D01*
X112035000Y-116802500D01*
X112006000Y-116833500D01*
X111975000Y-116862500D01*
X111943000Y-116889500D01*
X111910000Y-116914500D01*
X111876000Y-116938500D01*
X111840000Y-116960500D01*
X111803000Y-116980500D01*
X111765000Y-116998500D01*
X111727000Y-117014500D01*
X111687000Y-117028500D01*
X111647000Y-117040500D01*
X111606000Y-117050500D01*
X111565000Y-117057500D01*
X111524000Y-117063500D01*
X111482000Y-117066500D01*
X111440000Y-117067500D01*
X111398000Y-117066500D01*
X111356000Y-117063500D01*
X111315000Y-117057500D01*
X111274000Y-117050500D01*
X111233000Y-117040500D01*
X111193000Y-117028500D01*
X111153000Y-117014500D01*
X111115000Y-116998500D01*
X111077000Y-116980500D01*
X111040000Y-116960500D01*
X111004000Y-116938500D01*
X110970000Y-116914500D01*
X110937000Y-116889500D01*
X110905000Y-116862500D01*
X110874000Y-116833500D01*
X110845000Y-116802500D01*
X110818000Y-116770500D01*
X110793000Y-116737500D01*
X110769000Y-116703500D01*
X110747000Y-116667500D01*
X110727000Y-116630500D01*
X110709000Y-116592500D01*
X110693000Y-116554500D01*
X110679000Y-116514500D01*
X110667000Y-116474500D01*
X110657000Y-116433500D01*
X110650000Y-116392500D01*
X110644000Y-116351500D01*
X110641000Y-116309500D01*
X110640000Y-116267500D01*
X110640000Y-113867500D01*
X112240000Y-113867500D01*
X112240000Y-116267500D01*
G36*
X112240000Y-116267500D02*
G01*
X112239000Y-116309500D01*
X112236000Y-116351500D01*
X112230000Y-116392500D01*
X112223000Y-116433500D01*
X112213000Y-116474500D01*
X112201000Y-116514500D01*
X112187000Y-116554500D01*
X112171000Y-116592500D01*
X112153000Y-116630500D01*
X112133000Y-116667500D01*
X112111000Y-116703500D01*
X112087000Y-116737500D01*
X112062000Y-116770500D01*
X112035000Y-116802500D01*
X112006000Y-116833500D01*
X111975000Y-116862500D01*
X111943000Y-116889500D01*
X111910000Y-116914500D01*
X111876000Y-116938500D01*
X111840000Y-116960500D01*
X111803000Y-116980500D01*
X111765000Y-116998500D01*
X111727000Y-117014500D01*
X111687000Y-117028500D01*
X111647000Y-117040500D01*
X111606000Y-117050500D01*
X111565000Y-117057500D01*
X111524000Y-117063500D01*
X111482000Y-117066500D01*
X111440000Y-117067500D01*
X111398000Y-117066500D01*
X111356000Y-117063500D01*
X111315000Y-117057500D01*
X111274000Y-117050500D01*
X111233000Y-117040500D01*
X111193000Y-117028500D01*
X111153000Y-117014500D01*
X111115000Y-116998500D01*
X111077000Y-116980500D01*
X111040000Y-116960500D01*
X111004000Y-116938500D01*
X110970000Y-116914500D01*
X110937000Y-116889500D01*
X110905000Y-116862500D01*
X110874000Y-116833500D01*
X110845000Y-116802500D01*
X110818000Y-116770500D01*
X110793000Y-116737500D01*
X110769000Y-116703500D01*
X110747000Y-116667500D01*
X110727000Y-116630500D01*
X110709000Y-116592500D01*
X110693000Y-116554500D01*
X110679000Y-116514500D01*
X110667000Y-116474500D01*
X110657000Y-116433500D01*
X110650000Y-116392500D01*
X110644000Y-116351500D01*
X110641000Y-116309500D01*
X110640000Y-116267500D01*
X110640000Y-113867500D01*
X112240000Y-113867500D01*
X112240000Y-116267500D01*
G37*
X114780000Y-116267500D02*
X114779000Y-116309500D01*
X114776000Y-116351500D01*
X114770000Y-116392500D01*
X114763000Y-116433500D01*
X114753000Y-116474500D01*
X114741000Y-116514500D01*
X114727000Y-116554500D01*
X114711000Y-116592500D01*
X114693000Y-116630500D01*
X114673000Y-116667500D01*
X114651000Y-116703500D01*
X114627000Y-116737500D01*
X114602000Y-116770500D01*
X114575000Y-116802500D01*
X114546000Y-116833500D01*
X114515000Y-116862500D01*
X114483000Y-116889500D01*
X114450000Y-116914500D01*
X114416000Y-116938500D01*
X114380000Y-116960500D01*
X114343000Y-116980500D01*
X114305000Y-116998500D01*
X114267000Y-117014500D01*
X114227000Y-117028500D01*
X114187000Y-117040500D01*
X114146000Y-117050500D01*
X114105000Y-117057500D01*
X114064000Y-117063500D01*
X114022000Y-117066500D01*
X113980000Y-117067500D01*
X113938000Y-117066500D01*
X113896000Y-117063500D01*
X113855000Y-117057500D01*
X113814000Y-117050500D01*
X113773000Y-117040500D01*
X113733000Y-117028500D01*
X113693000Y-117014500D01*
X113655000Y-116998500D01*
X113617000Y-116980500D01*
X113580000Y-116960500D01*
X113544000Y-116938500D01*
X113510000Y-116914500D01*
X113477000Y-116889500D01*
X113445000Y-116862500D01*
X113414000Y-116833500D01*
X113385000Y-116802500D01*
X113358000Y-116770500D01*
X113333000Y-116737500D01*
X113309000Y-116703500D01*
X113287000Y-116667500D01*
X113267000Y-116630500D01*
X113249000Y-116592500D01*
X113233000Y-116554500D01*
X113219000Y-116514500D01*
X113207000Y-116474500D01*
X113197000Y-116433500D01*
X113190000Y-116392500D01*
X113184000Y-116351500D01*
X113181000Y-116309500D01*
X113180000Y-116267500D01*
X113180000Y-113867500D01*
X114780000Y-113867500D01*
X114780000Y-116267500D01*
G36*
X114780000Y-116267500D02*
G01*
X114779000Y-116309500D01*
X114776000Y-116351500D01*
X114770000Y-116392500D01*
X114763000Y-116433500D01*
X114753000Y-116474500D01*
X114741000Y-116514500D01*
X114727000Y-116554500D01*
X114711000Y-116592500D01*
X114693000Y-116630500D01*
X114673000Y-116667500D01*
X114651000Y-116703500D01*
X114627000Y-116737500D01*
X114602000Y-116770500D01*
X114575000Y-116802500D01*
X114546000Y-116833500D01*
X114515000Y-116862500D01*
X114483000Y-116889500D01*
X114450000Y-116914500D01*
X114416000Y-116938500D01*
X114380000Y-116960500D01*
X114343000Y-116980500D01*
X114305000Y-116998500D01*
X114267000Y-117014500D01*
X114227000Y-117028500D01*
X114187000Y-117040500D01*
X114146000Y-117050500D01*
X114105000Y-117057500D01*
X114064000Y-117063500D01*
X114022000Y-117066500D01*
X113980000Y-117067500D01*
X113938000Y-117066500D01*
X113896000Y-117063500D01*
X113855000Y-117057500D01*
X113814000Y-117050500D01*
X113773000Y-117040500D01*
X113733000Y-117028500D01*
X113693000Y-117014500D01*
X113655000Y-116998500D01*
X113617000Y-116980500D01*
X113580000Y-116960500D01*
X113544000Y-116938500D01*
X113510000Y-116914500D01*
X113477000Y-116889500D01*
X113445000Y-116862500D01*
X113414000Y-116833500D01*
X113385000Y-116802500D01*
X113358000Y-116770500D01*
X113333000Y-116737500D01*
X113309000Y-116703500D01*
X113287000Y-116667500D01*
X113267000Y-116630500D01*
X113249000Y-116592500D01*
X113233000Y-116554500D01*
X113219000Y-116514500D01*
X113207000Y-116474500D01*
X113197000Y-116433500D01*
X113190000Y-116392500D01*
X113184000Y-116351500D01*
X113181000Y-116309500D01*
X113180000Y-116267500D01*
X113180000Y-113867500D01*
X114780000Y-113867500D01*
X114780000Y-116267500D01*
G37*
X117320000Y-116267500D02*
X117319000Y-116309500D01*
X117316000Y-116351500D01*
X117310000Y-116392500D01*
X117303000Y-116433500D01*
X117293000Y-116474500D01*
X117281000Y-116514500D01*
X117267000Y-116554500D01*
X117251000Y-116592500D01*
X117233000Y-116630500D01*
X117213000Y-116667500D01*
X117191000Y-116703500D01*
X117167000Y-116737500D01*
X117142000Y-116770500D01*
X117115000Y-116802500D01*
X117086000Y-116833500D01*
X117055000Y-116862500D01*
X117023000Y-116889500D01*
X116990000Y-116914500D01*
X116956000Y-116938500D01*
X116920000Y-116960500D01*
X116883000Y-116980500D01*
X116845000Y-116998500D01*
X116807000Y-117014500D01*
X116767000Y-117028500D01*
X116727000Y-117040500D01*
X116686000Y-117050500D01*
X116645000Y-117057500D01*
X116604000Y-117063500D01*
X116562000Y-117066500D01*
X116520000Y-117067500D01*
X116478000Y-117066500D01*
X116436000Y-117063500D01*
X116395000Y-117057500D01*
X116354000Y-117050500D01*
X116313000Y-117040500D01*
X116273000Y-117028500D01*
X116233000Y-117014500D01*
X116195000Y-116998500D01*
X116157000Y-116980500D01*
X116120000Y-116960500D01*
X116084000Y-116938500D01*
X116050000Y-116914500D01*
X116017000Y-116889500D01*
X115985000Y-116862500D01*
X115954000Y-116833500D01*
X115925000Y-116802500D01*
X115898000Y-116770500D01*
X115873000Y-116737500D01*
X115849000Y-116703500D01*
X115827000Y-116667500D01*
X115807000Y-116630500D01*
X115789000Y-116592500D01*
X115773000Y-116554500D01*
X115759000Y-116514500D01*
X115747000Y-116474500D01*
X115737000Y-116433500D01*
X115730000Y-116392500D01*
X115724000Y-116351500D01*
X115721000Y-116309500D01*
X115720000Y-116267500D01*
X115720000Y-113867500D01*
X117320000Y-113867500D01*
X117320000Y-116267500D01*
G36*
X117320000Y-116267500D02*
G01*
X117319000Y-116309500D01*
X117316000Y-116351500D01*
X117310000Y-116392500D01*
X117303000Y-116433500D01*
X117293000Y-116474500D01*
X117281000Y-116514500D01*
X117267000Y-116554500D01*
X117251000Y-116592500D01*
X117233000Y-116630500D01*
X117213000Y-116667500D01*
X117191000Y-116703500D01*
X117167000Y-116737500D01*
X117142000Y-116770500D01*
X117115000Y-116802500D01*
X117086000Y-116833500D01*
X117055000Y-116862500D01*
X117023000Y-116889500D01*
X116990000Y-116914500D01*
X116956000Y-116938500D01*
X116920000Y-116960500D01*
X116883000Y-116980500D01*
X116845000Y-116998500D01*
X116807000Y-117014500D01*
X116767000Y-117028500D01*
X116727000Y-117040500D01*
X116686000Y-117050500D01*
X116645000Y-117057500D01*
X116604000Y-117063500D01*
X116562000Y-117066500D01*
X116520000Y-117067500D01*
X116478000Y-117066500D01*
X116436000Y-117063500D01*
X116395000Y-117057500D01*
X116354000Y-117050500D01*
X116313000Y-117040500D01*
X116273000Y-117028500D01*
X116233000Y-117014500D01*
X116195000Y-116998500D01*
X116157000Y-116980500D01*
X116120000Y-116960500D01*
X116084000Y-116938500D01*
X116050000Y-116914500D01*
X116017000Y-116889500D01*
X115985000Y-116862500D01*
X115954000Y-116833500D01*
X115925000Y-116802500D01*
X115898000Y-116770500D01*
X115873000Y-116737500D01*
X115849000Y-116703500D01*
X115827000Y-116667500D01*
X115807000Y-116630500D01*
X115789000Y-116592500D01*
X115773000Y-116554500D01*
X115759000Y-116514500D01*
X115747000Y-116474500D01*
X115737000Y-116433500D01*
X115730000Y-116392500D01*
X115724000Y-116351500D01*
X115721000Y-116309500D01*
X115720000Y-116267500D01*
X115720000Y-113867500D01*
X117320000Y-113867500D01*
X117320000Y-116267500D01*
G37*
X119860000Y-116267500D02*
X119859000Y-116309500D01*
X119856000Y-116351500D01*
X119850000Y-116392500D01*
X119843000Y-116433500D01*
X119833000Y-116474500D01*
X119821000Y-116514500D01*
X119807000Y-116554500D01*
X119791000Y-116592500D01*
X119773000Y-116630500D01*
X119753000Y-116667500D01*
X119731000Y-116703500D01*
X119707000Y-116737500D01*
X119682000Y-116770500D01*
X119655000Y-116802500D01*
X119626000Y-116833500D01*
X119595000Y-116862500D01*
X119563000Y-116889500D01*
X119530000Y-116914500D01*
X119496000Y-116938500D01*
X119460000Y-116960500D01*
X119423000Y-116980500D01*
X119385000Y-116998500D01*
X119347000Y-117014500D01*
X119307000Y-117028500D01*
X119267000Y-117040500D01*
X119226000Y-117050500D01*
X119185000Y-117057500D01*
X119144000Y-117063500D01*
X119102000Y-117066500D01*
X119060000Y-117067500D01*
X119018000Y-117066500D01*
X118976000Y-117063500D01*
X118935000Y-117057500D01*
X118894000Y-117050500D01*
X118853000Y-117040500D01*
X118813000Y-117028500D01*
X118773000Y-117014500D01*
X118735000Y-116998500D01*
X118697000Y-116980500D01*
X118660000Y-116960500D01*
X118624000Y-116938500D01*
X118590000Y-116914500D01*
X118557000Y-116889500D01*
X118525000Y-116862500D01*
X118494000Y-116833500D01*
X118465000Y-116802500D01*
X118438000Y-116770500D01*
X118413000Y-116737500D01*
X118389000Y-116703500D01*
X118367000Y-116667500D01*
X118347000Y-116630500D01*
X118329000Y-116592500D01*
X118313000Y-116554500D01*
X118299000Y-116514500D01*
X118287000Y-116474500D01*
X118277000Y-116433500D01*
X118270000Y-116392500D01*
X118264000Y-116351500D01*
X118261000Y-116309500D01*
X118260000Y-116267500D01*
X118260000Y-113867500D01*
X119860000Y-113867500D01*
X119860000Y-116267500D01*
G36*
X119860000Y-116267500D02*
G01*
X119859000Y-116309500D01*
X119856000Y-116351500D01*
X119850000Y-116392500D01*
X119843000Y-116433500D01*
X119833000Y-116474500D01*
X119821000Y-116514500D01*
X119807000Y-116554500D01*
X119791000Y-116592500D01*
X119773000Y-116630500D01*
X119753000Y-116667500D01*
X119731000Y-116703500D01*
X119707000Y-116737500D01*
X119682000Y-116770500D01*
X119655000Y-116802500D01*
X119626000Y-116833500D01*
X119595000Y-116862500D01*
X119563000Y-116889500D01*
X119530000Y-116914500D01*
X119496000Y-116938500D01*
X119460000Y-116960500D01*
X119423000Y-116980500D01*
X119385000Y-116998500D01*
X119347000Y-117014500D01*
X119307000Y-117028500D01*
X119267000Y-117040500D01*
X119226000Y-117050500D01*
X119185000Y-117057500D01*
X119144000Y-117063500D01*
X119102000Y-117066500D01*
X119060000Y-117067500D01*
X119018000Y-117066500D01*
X118976000Y-117063500D01*
X118935000Y-117057500D01*
X118894000Y-117050500D01*
X118853000Y-117040500D01*
X118813000Y-117028500D01*
X118773000Y-117014500D01*
X118735000Y-116998500D01*
X118697000Y-116980500D01*
X118660000Y-116960500D01*
X118624000Y-116938500D01*
X118590000Y-116914500D01*
X118557000Y-116889500D01*
X118525000Y-116862500D01*
X118494000Y-116833500D01*
X118465000Y-116802500D01*
X118438000Y-116770500D01*
X118413000Y-116737500D01*
X118389000Y-116703500D01*
X118367000Y-116667500D01*
X118347000Y-116630500D01*
X118329000Y-116592500D01*
X118313000Y-116554500D01*
X118299000Y-116514500D01*
X118287000Y-116474500D01*
X118277000Y-116433500D01*
X118270000Y-116392500D01*
X118264000Y-116351500D01*
X118261000Y-116309500D01*
X118260000Y-116267500D01*
X118260000Y-113867500D01*
X119860000Y-113867500D01*
X119860000Y-116267500D01*
G37*
X124940000Y-116267500D02*
X124939000Y-116309500D01*
X124936000Y-116351500D01*
X124930000Y-116392500D01*
X124923000Y-116433500D01*
X124913000Y-116474500D01*
X124901000Y-116514500D01*
X124887000Y-116554500D01*
X124871000Y-116592500D01*
X124853000Y-116630500D01*
X124833000Y-116667500D01*
X124811000Y-116703500D01*
X124787000Y-116737500D01*
X124762000Y-116770500D01*
X124735000Y-116802500D01*
X124706000Y-116833500D01*
X124675000Y-116862500D01*
X124643000Y-116889500D01*
X124610000Y-116914500D01*
X124576000Y-116938500D01*
X124540000Y-116960500D01*
X124503000Y-116980500D01*
X124465000Y-116998500D01*
X124427000Y-117014500D01*
X124387000Y-117028500D01*
X124347000Y-117040500D01*
X124306000Y-117050500D01*
X124265000Y-117057500D01*
X124224000Y-117063500D01*
X124182000Y-117066500D01*
X124140000Y-117067500D01*
X124098000Y-117066500D01*
X124056000Y-117063500D01*
X124015000Y-117057500D01*
X123974000Y-117050500D01*
X123933000Y-117040500D01*
X123893000Y-117028500D01*
X123853000Y-117014500D01*
X123815000Y-116998500D01*
X123777000Y-116980500D01*
X123740000Y-116960500D01*
X123704000Y-116938500D01*
X123670000Y-116914500D01*
X123637000Y-116889500D01*
X123605000Y-116862500D01*
X123574000Y-116833500D01*
X123545000Y-116802500D01*
X123518000Y-116770500D01*
X123493000Y-116737500D01*
X123469000Y-116703500D01*
X123447000Y-116667500D01*
X123427000Y-116630500D01*
X123409000Y-116592500D01*
X123393000Y-116554500D01*
X123379000Y-116514500D01*
X123367000Y-116474500D01*
X123357000Y-116433500D01*
X123350000Y-116392500D01*
X123344000Y-116351500D01*
X123341000Y-116309500D01*
X123340000Y-116267500D01*
X123340000Y-113867500D01*
X124940000Y-113867500D01*
X124940000Y-116267500D01*
G36*
X124940000Y-116267500D02*
G01*
X124939000Y-116309500D01*
X124936000Y-116351500D01*
X124930000Y-116392500D01*
X124923000Y-116433500D01*
X124913000Y-116474500D01*
X124901000Y-116514500D01*
X124887000Y-116554500D01*
X124871000Y-116592500D01*
X124853000Y-116630500D01*
X124833000Y-116667500D01*
X124811000Y-116703500D01*
X124787000Y-116737500D01*
X124762000Y-116770500D01*
X124735000Y-116802500D01*
X124706000Y-116833500D01*
X124675000Y-116862500D01*
X124643000Y-116889500D01*
X124610000Y-116914500D01*
X124576000Y-116938500D01*
X124540000Y-116960500D01*
X124503000Y-116980500D01*
X124465000Y-116998500D01*
X124427000Y-117014500D01*
X124387000Y-117028500D01*
X124347000Y-117040500D01*
X124306000Y-117050500D01*
X124265000Y-117057500D01*
X124224000Y-117063500D01*
X124182000Y-117066500D01*
X124140000Y-117067500D01*
X124098000Y-117066500D01*
X124056000Y-117063500D01*
X124015000Y-117057500D01*
X123974000Y-117050500D01*
X123933000Y-117040500D01*
X123893000Y-117028500D01*
X123853000Y-117014500D01*
X123815000Y-116998500D01*
X123777000Y-116980500D01*
X123740000Y-116960500D01*
X123704000Y-116938500D01*
X123670000Y-116914500D01*
X123637000Y-116889500D01*
X123605000Y-116862500D01*
X123574000Y-116833500D01*
X123545000Y-116802500D01*
X123518000Y-116770500D01*
X123493000Y-116737500D01*
X123469000Y-116703500D01*
X123447000Y-116667500D01*
X123427000Y-116630500D01*
X123409000Y-116592500D01*
X123393000Y-116554500D01*
X123379000Y-116514500D01*
X123367000Y-116474500D01*
X123357000Y-116433500D01*
X123350000Y-116392500D01*
X123344000Y-116351500D01*
X123341000Y-116309500D01*
X123340000Y-116267500D01*
X123340000Y-113867500D01*
X124940000Y-113867500D01*
X124940000Y-116267500D01*
G37*
X127480000Y-116267500D02*
X127479000Y-116309500D01*
X127476000Y-116351500D01*
X127470000Y-116392500D01*
X127463000Y-116433500D01*
X127453000Y-116474500D01*
X127441000Y-116514500D01*
X127427000Y-116554500D01*
X127411000Y-116592500D01*
X127393000Y-116630500D01*
X127373000Y-116667500D01*
X127351000Y-116703500D01*
X127327000Y-116737500D01*
X127302000Y-116770500D01*
X127275000Y-116802500D01*
X127246000Y-116833500D01*
X127215000Y-116862500D01*
X127183000Y-116889500D01*
X127150000Y-116914500D01*
X127116000Y-116938500D01*
X127080000Y-116960500D01*
X127043000Y-116980500D01*
X127005000Y-116998500D01*
X126967000Y-117014500D01*
X126927000Y-117028500D01*
X126887000Y-117040500D01*
X126846000Y-117050500D01*
X126805000Y-117057500D01*
X126764000Y-117063500D01*
X126722000Y-117066500D01*
X126680000Y-117067500D01*
X126638000Y-117066500D01*
X126596000Y-117063500D01*
X126555000Y-117057500D01*
X126514000Y-117050500D01*
X126473000Y-117040500D01*
X126433000Y-117028500D01*
X126393000Y-117014500D01*
X126355000Y-116998500D01*
X126317000Y-116980500D01*
X126280000Y-116960500D01*
X126244000Y-116938500D01*
X126210000Y-116914500D01*
X126177000Y-116889500D01*
X126145000Y-116862500D01*
X126114000Y-116833500D01*
X126085000Y-116802500D01*
X126058000Y-116770500D01*
X126033000Y-116737500D01*
X126009000Y-116703500D01*
X125987000Y-116667500D01*
X125967000Y-116630500D01*
X125949000Y-116592500D01*
X125933000Y-116554500D01*
X125919000Y-116514500D01*
X125907000Y-116474500D01*
X125897000Y-116433500D01*
X125890000Y-116392500D01*
X125884000Y-116351500D01*
X125881000Y-116309500D01*
X125880000Y-116267500D01*
X125880000Y-113867500D01*
X127480000Y-113867500D01*
X127480000Y-116267500D01*
G36*
X127480000Y-116267500D02*
G01*
X127479000Y-116309500D01*
X127476000Y-116351500D01*
X127470000Y-116392500D01*
X127463000Y-116433500D01*
X127453000Y-116474500D01*
X127441000Y-116514500D01*
X127427000Y-116554500D01*
X127411000Y-116592500D01*
X127393000Y-116630500D01*
X127373000Y-116667500D01*
X127351000Y-116703500D01*
X127327000Y-116737500D01*
X127302000Y-116770500D01*
X127275000Y-116802500D01*
X127246000Y-116833500D01*
X127215000Y-116862500D01*
X127183000Y-116889500D01*
X127150000Y-116914500D01*
X127116000Y-116938500D01*
X127080000Y-116960500D01*
X127043000Y-116980500D01*
X127005000Y-116998500D01*
X126967000Y-117014500D01*
X126927000Y-117028500D01*
X126887000Y-117040500D01*
X126846000Y-117050500D01*
X126805000Y-117057500D01*
X126764000Y-117063500D01*
X126722000Y-117066500D01*
X126680000Y-117067500D01*
X126638000Y-117066500D01*
X126596000Y-117063500D01*
X126555000Y-117057500D01*
X126514000Y-117050500D01*
X126473000Y-117040500D01*
X126433000Y-117028500D01*
X126393000Y-117014500D01*
X126355000Y-116998500D01*
X126317000Y-116980500D01*
X126280000Y-116960500D01*
X126244000Y-116938500D01*
X126210000Y-116914500D01*
X126177000Y-116889500D01*
X126145000Y-116862500D01*
X126114000Y-116833500D01*
X126085000Y-116802500D01*
X126058000Y-116770500D01*
X126033000Y-116737500D01*
X126009000Y-116703500D01*
X125987000Y-116667500D01*
X125967000Y-116630500D01*
X125949000Y-116592500D01*
X125933000Y-116554500D01*
X125919000Y-116514500D01*
X125907000Y-116474500D01*
X125897000Y-116433500D01*
X125890000Y-116392500D01*
X125884000Y-116351500D01*
X125881000Y-116309500D01*
X125880000Y-116267500D01*
X125880000Y-113867500D01*
X127480000Y-113867500D01*
X127480000Y-116267500D01*
G37*
X130020000Y-116267500D02*
X130019000Y-116309500D01*
X130016000Y-116351500D01*
X130010000Y-116392500D01*
X130003000Y-116433500D01*
X129993000Y-116474500D01*
X129981000Y-116514500D01*
X129967000Y-116554500D01*
X129951000Y-116592500D01*
X129933000Y-116630500D01*
X129913000Y-116667500D01*
X129891000Y-116703500D01*
X129867000Y-116737500D01*
X129842000Y-116770500D01*
X129815000Y-116802500D01*
X129786000Y-116833500D01*
X129755000Y-116862500D01*
X129723000Y-116889500D01*
X129690000Y-116914500D01*
X129656000Y-116938500D01*
X129620000Y-116960500D01*
X129583000Y-116980500D01*
X129545000Y-116998500D01*
X129507000Y-117014500D01*
X129467000Y-117028500D01*
X129427000Y-117040500D01*
X129386000Y-117050500D01*
X129345000Y-117057500D01*
X129304000Y-117063500D01*
X129262000Y-117066500D01*
X129220000Y-117067500D01*
X129178000Y-117066500D01*
X129136000Y-117063500D01*
X129095000Y-117057500D01*
X129054000Y-117050500D01*
X129013000Y-117040500D01*
X128973000Y-117028500D01*
X128933000Y-117014500D01*
X128895000Y-116998500D01*
X128857000Y-116980500D01*
X128820000Y-116960500D01*
X128784000Y-116938500D01*
X128750000Y-116914500D01*
X128717000Y-116889500D01*
X128685000Y-116862500D01*
X128654000Y-116833500D01*
X128625000Y-116802500D01*
X128598000Y-116770500D01*
X128573000Y-116737500D01*
X128549000Y-116703500D01*
X128527000Y-116667500D01*
X128507000Y-116630500D01*
X128489000Y-116592500D01*
X128473000Y-116554500D01*
X128459000Y-116514500D01*
X128447000Y-116474500D01*
X128437000Y-116433500D01*
X128430000Y-116392500D01*
X128424000Y-116351500D01*
X128421000Y-116309500D01*
X128420000Y-116267500D01*
X128420000Y-113867500D01*
X130020000Y-113867500D01*
X130020000Y-116267500D01*
G36*
X130020000Y-116267500D02*
G01*
X130019000Y-116309500D01*
X130016000Y-116351500D01*
X130010000Y-116392500D01*
X130003000Y-116433500D01*
X129993000Y-116474500D01*
X129981000Y-116514500D01*
X129967000Y-116554500D01*
X129951000Y-116592500D01*
X129933000Y-116630500D01*
X129913000Y-116667500D01*
X129891000Y-116703500D01*
X129867000Y-116737500D01*
X129842000Y-116770500D01*
X129815000Y-116802500D01*
X129786000Y-116833500D01*
X129755000Y-116862500D01*
X129723000Y-116889500D01*
X129690000Y-116914500D01*
X129656000Y-116938500D01*
X129620000Y-116960500D01*
X129583000Y-116980500D01*
X129545000Y-116998500D01*
X129507000Y-117014500D01*
X129467000Y-117028500D01*
X129427000Y-117040500D01*
X129386000Y-117050500D01*
X129345000Y-117057500D01*
X129304000Y-117063500D01*
X129262000Y-117066500D01*
X129220000Y-117067500D01*
X129178000Y-117066500D01*
X129136000Y-117063500D01*
X129095000Y-117057500D01*
X129054000Y-117050500D01*
X129013000Y-117040500D01*
X128973000Y-117028500D01*
X128933000Y-117014500D01*
X128895000Y-116998500D01*
X128857000Y-116980500D01*
X128820000Y-116960500D01*
X128784000Y-116938500D01*
X128750000Y-116914500D01*
X128717000Y-116889500D01*
X128685000Y-116862500D01*
X128654000Y-116833500D01*
X128625000Y-116802500D01*
X128598000Y-116770500D01*
X128573000Y-116737500D01*
X128549000Y-116703500D01*
X128527000Y-116667500D01*
X128507000Y-116630500D01*
X128489000Y-116592500D01*
X128473000Y-116554500D01*
X128459000Y-116514500D01*
X128447000Y-116474500D01*
X128437000Y-116433500D01*
X128430000Y-116392500D01*
X128424000Y-116351500D01*
X128421000Y-116309500D01*
X128420000Y-116267500D01*
X128420000Y-113867500D01*
X130020000Y-113867500D01*
X130020000Y-116267500D01*
G37*
X132560000Y-116267500D02*
X132559000Y-116309500D01*
X132556000Y-116351500D01*
X132550000Y-116392500D01*
X132543000Y-116433500D01*
X132533000Y-116474500D01*
X132521000Y-116514500D01*
X132507000Y-116554500D01*
X132491000Y-116592500D01*
X132473000Y-116630500D01*
X132453000Y-116667500D01*
X132431000Y-116703500D01*
X132407000Y-116737500D01*
X132382000Y-116770500D01*
X132355000Y-116802500D01*
X132326000Y-116833500D01*
X132295000Y-116862500D01*
X132263000Y-116889500D01*
X132230000Y-116914500D01*
X132196000Y-116938500D01*
X132160000Y-116960500D01*
X132123000Y-116980500D01*
X132085000Y-116998500D01*
X132047000Y-117014500D01*
X132007000Y-117028500D01*
X131967000Y-117040500D01*
X131926000Y-117050500D01*
X131885000Y-117057500D01*
X131844000Y-117063500D01*
X131802000Y-117066500D01*
X131760000Y-117067500D01*
X131718000Y-117066500D01*
X131676000Y-117063500D01*
X131635000Y-117057500D01*
X131594000Y-117050500D01*
X131553000Y-117040500D01*
X131513000Y-117028500D01*
X131473000Y-117014500D01*
X131435000Y-116998500D01*
X131397000Y-116980500D01*
X131360000Y-116960500D01*
X131324000Y-116938500D01*
X131290000Y-116914500D01*
X131257000Y-116889500D01*
X131225000Y-116862500D01*
X131194000Y-116833500D01*
X131165000Y-116802500D01*
X131138000Y-116770500D01*
X131113000Y-116737500D01*
X131089000Y-116703500D01*
X131067000Y-116667500D01*
X131047000Y-116630500D01*
X131029000Y-116592500D01*
X131013000Y-116554500D01*
X130999000Y-116514500D01*
X130987000Y-116474500D01*
X130977000Y-116433500D01*
X130970000Y-116392500D01*
X130964000Y-116351500D01*
X130961000Y-116309500D01*
X130960000Y-116267500D01*
X130960000Y-113867500D01*
X132560000Y-113867500D01*
X132560000Y-116267500D01*
G36*
X132560000Y-116267500D02*
G01*
X132559000Y-116309500D01*
X132556000Y-116351500D01*
X132550000Y-116392500D01*
X132543000Y-116433500D01*
X132533000Y-116474500D01*
X132521000Y-116514500D01*
X132507000Y-116554500D01*
X132491000Y-116592500D01*
X132473000Y-116630500D01*
X132453000Y-116667500D01*
X132431000Y-116703500D01*
X132407000Y-116737500D01*
X132382000Y-116770500D01*
X132355000Y-116802500D01*
X132326000Y-116833500D01*
X132295000Y-116862500D01*
X132263000Y-116889500D01*
X132230000Y-116914500D01*
X132196000Y-116938500D01*
X132160000Y-116960500D01*
X132123000Y-116980500D01*
X132085000Y-116998500D01*
X132047000Y-117014500D01*
X132007000Y-117028500D01*
X131967000Y-117040500D01*
X131926000Y-117050500D01*
X131885000Y-117057500D01*
X131844000Y-117063500D01*
X131802000Y-117066500D01*
X131760000Y-117067500D01*
X131718000Y-117066500D01*
X131676000Y-117063500D01*
X131635000Y-117057500D01*
X131594000Y-117050500D01*
X131553000Y-117040500D01*
X131513000Y-117028500D01*
X131473000Y-117014500D01*
X131435000Y-116998500D01*
X131397000Y-116980500D01*
X131360000Y-116960500D01*
X131324000Y-116938500D01*
X131290000Y-116914500D01*
X131257000Y-116889500D01*
X131225000Y-116862500D01*
X131194000Y-116833500D01*
X131165000Y-116802500D01*
X131138000Y-116770500D01*
X131113000Y-116737500D01*
X131089000Y-116703500D01*
X131067000Y-116667500D01*
X131047000Y-116630500D01*
X131029000Y-116592500D01*
X131013000Y-116554500D01*
X130999000Y-116514500D01*
X130987000Y-116474500D01*
X130977000Y-116433500D01*
X130970000Y-116392500D01*
X130964000Y-116351500D01*
X130961000Y-116309500D01*
X130960000Y-116267500D01*
X130960000Y-113867500D01*
X132560000Y-113867500D01*
X132560000Y-116267500D01*
G37*
X137640000Y-116267500D02*
X137639000Y-116309500D01*
X137636000Y-116351500D01*
X137630000Y-116392500D01*
X137623000Y-116433500D01*
X137613000Y-116474500D01*
X137601000Y-116514500D01*
X137587000Y-116554500D01*
X137571000Y-116592500D01*
X137553000Y-116630500D01*
X137533000Y-116667500D01*
X137511000Y-116703500D01*
X137487000Y-116737500D01*
X137462000Y-116770500D01*
X137435000Y-116802500D01*
X137406000Y-116833500D01*
X137375000Y-116862500D01*
X137343000Y-116889500D01*
X137310000Y-116914500D01*
X137276000Y-116938500D01*
X137240000Y-116960500D01*
X137203000Y-116980500D01*
X137165000Y-116998500D01*
X137127000Y-117014500D01*
X137087000Y-117028500D01*
X137047000Y-117040500D01*
X137006000Y-117050500D01*
X136965000Y-117057500D01*
X136924000Y-117063500D01*
X136882000Y-117066500D01*
X136840000Y-117067500D01*
X136798000Y-117066500D01*
X136756000Y-117063500D01*
X136715000Y-117057500D01*
X136674000Y-117050500D01*
X136633000Y-117040500D01*
X136593000Y-117028500D01*
X136553000Y-117014500D01*
X136515000Y-116998500D01*
X136477000Y-116980500D01*
X136440000Y-116960500D01*
X136404000Y-116938500D01*
X136370000Y-116914500D01*
X136337000Y-116889500D01*
X136305000Y-116862500D01*
X136274000Y-116833500D01*
X136245000Y-116802500D01*
X136218000Y-116770500D01*
X136193000Y-116737500D01*
X136169000Y-116703500D01*
X136147000Y-116667500D01*
X136127000Y-116630500D01*
X136109000Y-116592500D01*
X136093000Y-116554500D01*
X136079000Y-116514500D01*
X136067000Y-116474500D01*
X136057000Y-116433500D01*
X136050000Y-116392500D01*
X136044000Y-116351500D01*
X136041000Y-116309500D01*
X136040000Y-116267500D01*
X136040000Y-113867500D01*
X137640000Y-113867500D01*
X137640000Y-116267500D01*
G36*
X137640000Y-116267500D02*
G01*
X137639000Y-116309500D01*
X137636000Y-116351500D01*
X137630000Y-116392500D01*
X137623000Y-116433500D01*
X137613000Y-116474500D01*
X137601000Y-116514500D01*
X137587000Y-116554500D01*
X137571000Y-116592500D01*
X137553000Y-116630500D01*
X137533000Y-116667500D01*
X137511000Y-116703500D01*
X137487000Y-116737500D01*
X137462000Y-116770500D01*
X137435000Y-116802500D01*
X137406000Y-116833500D01*
X137375000Y-116862500D01*
X137343000Y-116889500D01*
X137310000Y-116914500D01*
X137276000Y-116938500D01*
X137240000Y-116960500D01*
X137203000Y-116980500D01*
X137165000Y-116998500D01*
X137127000Y-117014500D01*
X137087000Y-117028500D01*
X137047000Y-117040500D01*
X137006000Y-117050500D01*
X136965000Y-117057500D01*
X136924000Y-117063500D01*
X136882000Y-117066500D01*
X136840000Y-117067500D01*
X136798000Y-117066500D01*
X136756000Y-117063500D01*
X136715000Y-117057500D01*
X136674000Y-117050500D01*
X136633000Y-117040500D01*
X136593000Y-117028500D01*
X136553000Y-117014500D01*
X136515000Y-116998500D01*
X136477000Y-116980500D01*
X136440000Y-116960500D01*
X136404000Y-116938500D01*
X136370000Y-116914500D01*
X136337000Y-116889500D01*
X136305000Y-116862500D01*
X136274000Y-116833500D01*
X136245000Y-116802500D01*
X136218000Y-116770500D01*
X136193000Y-116737500D01*
X136169000Y-116703500D01*
X136147000Y-116667500D01*
X136127000Y-116630500D01*
X136109000Y-116592500D01*
X136093000Y-116554500D01*
X136079000Y-116514500D01*
X136067000Y-116474500D01*
X136057000Y-116433500D01*
X136050000Y-116392500D01*
X136044000Y-116351500D01*
X136041000Y-116309500D01*
X136040000Y-116267500D01*
X136040000Y-113867500D01*
X137640000Y-113867500D01*
X137640000Y-116267500D01*
G37*
X140180000Y-116267500D02*
X140179000Y-116309500D01*
X140176000Y-116351500D01*
X140170000Y-116392500D01*
X140163000Y-116433500D01*
X140153000Y-116474500D01*
X140141000Y-116514500D01*
X140127000Y-116554500D01*
X140111000Y-116592500D01*
X140093000Y-116630500D01*
X140073000Y-116667500D01*
X140051000Y-116703500D01*
X140027000Y-116737500D01*
X140002000Y-116770500D01*
X139975000Y-116802500D01*
X139946000Y-116833500D01*
X139915000Y-116862500D01*
X139883000Y-116889500D01*
X139850000Y-116914500D01*
X139816000Y-116938500D01*
X139780000Y-116960500D01*
X139743000Y-116980500D01*
X139705000Y-116998500D01*
X139667000Y-117014500D01*
X139627000Y-117028500D01*
X139587000Y-117040500D01*
X139546000Y-117050500D01*
X139505000Y-117057500D01*
X139464000Y-117063500D01*
X139422000Y-117066500D01*
X139380000Y-117067500D01*
X139338000Y-117066500D01*
X139296000Y-117063500D01*
X139255000Y-117057500D01*
X139214000Y-117050500D01*
X139173000Y-117040500D01*
X139133000Y-117028500D01*
X139093000Y-117014500D01*
X139055000Y-116998500D01*
X139017000Y-116980500D01*
X138980000Y-116960500D01*
X138944000Y-116938500D01*
X138910000Y-116914500D01*
X138877000Y-116889500D01*
X138845000Y-116862500D01*
X138814000Y-116833500D01*
X138785000Y-116802500D01*
X138758000Y-116770500D01*
X138733000Y-116737500D01*
X138709000Y-116703500D01*
X138687000Y-116667500D01*
X138667000Y-116630500D01*
X138649000Y-116592500D01*
X138633000Y-116554500D01*
X138619000Y-116514500D01*
X138607000Y-116474500D01*
X138597000Y-116433500D01*
X138590000Y-116392500D01*
X138584000Y-116351500D01*
X138581000Y-116309500D01*
X138580000Y-116267500D01*
X138580000Y-113867500D01*
X140180000Y-113867500D01*
X140180000Y-116267500D01*
G36*
X140180000Y-116267500D02*
G01*
X140179000Y-116309500D01*
X140176000Y-116351500D01*
X140170000Y-116392500D01*
X140163000Y-116433500D01*
X140153000Y-116474500D01*
X140141000Y-116514500D01*
X140127000Y-116554500D01*
X140111000Y-116592500D01*
X140093000Y-116630500D01*
X140073000Y-116667500D01*
X140051000Y-116703500D01*
X140027000Y-116737500D01*
X140002000Y-116770500D01*
X139975000Y-116802500D01*
X139946000Y-116833500D01*
X139915000Y-116862500D01*
X139883000Y-116889500D01*
X139850000Y-116914500D01*
X139816000Y-116938500D01*
X139780000Y-116960500D01*
X139743000Y-116980500D01*
X139705000Y-116998500D01*
X139667000Y-117014500D01*
X139627000Y-117028500D01*
X139587000Y-117040500D01*
X139546000Y-117050500D01*
X139505000Y-117057500D01*
X139464000Y-117063500D01*
X139422000Y-117066500D01*
X139380000Y-117067500D01*
X139338000Y-117066500D01*
X139296000Y-117063500D01*
X139255000Y-117057500D01*
X139214000Y-117050500D01*
X139173000Y-117040500D01*
X139133000Y-117028500D01*
X139093000Y-117014500D01*
X139055000Y-116998500D01*
X139017000Y-116980500D01*
X138980000Y-116960500D01*
X138944000Y-116938500D01*
X138910000Y-116914500D01*
X138877000Y-116889500D01*
X138845000Y-116862500D01*
X138814000Y-116833500D01*
X138785000Y-116802500D01*
X138758000Y-116770500D01*
X138733000Y-116737500D01*
X138709000Y-116703500D01*
X138687000Y-116667500D01*
X138667000Y-116630500D01*
X138649000Y-116592500D01*
X138633000Y-116554500D01*
X138619000Y-116514500D01*
X138607000Y-116474500D01*
X138597000Y-116433500D01*
X138590000Y-116392500D01*
X138584000Y-116351500D01*
X138581000Y-116309500D01*
X138580000Y-116267500D01*
X138580000Y-113867500D01*
X140180000Y-113867500D01*
X140180000Y-116267500D01*
G37*
X142720000Y-116267500D02*
X142719000Y-116309500D01*
X142716000Y-116351500D01*
X142710000Y-116392500D01*
X142703000Y-116433500D01*
X142693000Y-116474500D01*
X142681000Y-116514500D01*
X142667000Y-116554500D01*
X142651000Y-116592500D01*
X142633000Y-116630500D01*
X142613000Y-116667500D01*
X142591000Y-116703500D01*
X142567000Y-116737500D01*
X142542000Y-116770500D01*
X142515000Y-116802500D01*
X142486000Y-116833500D01*
X142455000Y-116862500D01*
X142423000Y-116889500D01*
X142390000Y-116914500D01*
X142356000Y-116938500D01*
X142320000Y-116960500D01*
X142283000Y-116980500D01*
X142245000Y-116998500D01*
X142207000Y-117014500D01*
X142167000Y-117028500D01*
X142127000Y-117040500D01*
X142086000Y-117050500D01*
X142045000Y-117057500D01*
X142004000Y-117063500D01*
X141962000Y-117066500D01*
X141920000Y-117067500D01*
X141878000Y-117066500D01*
X141836000Y-117063500D01*
X141795000Y-117057500D01*
X141754000Y-117050500D01*
X141713000Y-117040500D01*
X141673000Y-117028500D01*
X141633000Y-117014500D01*
X141595000Y-116998500D01*
X141557000Y-116980500D01*
X141520000Y-116960500D01*
X141484000Y-116938500D01*
X141450000Y-116914500D01*
X141417000Y-116889500D01*
X141385000Y-116862500D01*
X141354000Y-116833500D01*
X141325000Y-116802500D01*
X141298000Y-116770500D01*
X141273000Y-116737500D01*
X141249000Y-116703500D01*
X141227000Y-116667500D01*
X141207000Y-116630500D01*
X141189000Y-116592500D01*
X141173000Y-116554500D01*
X141159000Y-116514500D01*
X141147000Y-116474500D01*
X141137000Y-116433500D01*
X141130000Y-116392500D01*
X141124000Y-116351500D01*
X141121000Y-116309500D01*
X141120000Y-116267500D01*
X141120000Y-113867500D01*
X142720000Y-113867500D01*
X142720000Y-116267500D01*
G36*
X142720000Y-116267500D02*
G01*
X142719000Y-116309500D01*
X142716000Y-116351500D01*
X142710000Y-116392500D01*
X142703000Y-116433500D01*
X142693000Y-116474500D01*
X142681000Y-116514500D01*
X142667000Y-116554500D01*
X142651000Y-116592500D01*
X142633000Y-116630500D01*
X142613000Y-116667500D01*
X142591000Y-116703500D01*
X142567000Y-116737500D01*
X142542000Y-116770500D01*
X142515000Y-116802500D01*
X142486000Y-116833500D01*
X142455000Y-116862500D01*
X142423000Y-116889500D01*
X142390000Y-116914500D01*
X142356000Y-116938500D01*
X142320000Y-116960500D01*
X142283000Y-116980500D01*
X142245000Y-116998500D01*
X142207000Y-117014500D01*
X142167000Y-117028500D01*
X142127000Y-117040500D01*
X142086000Y-117050500D01*
X142045000Y-117057500D01*
X142004000Y-117063500D01*
X141962000Y-117066500D01*
X141920000Y-117067500D01*
X141878000Y-117066500D01*
X141836000Y-117063500D01*
X141795000Y-117057500D01*
X141754000Y-117050500D01*
X141713000Y-117040500D01*
X141673000Y-117028500D01*
X141633000Y-117014500D01*
X141595000Y-116998500D01*
X141557000Y-116980500D01*
X141520000Y-116960500D01*
X141484000Y-116938500D01*
X141450000Y-116914500D01*
X141417000Y-116889500D01*
X141385000Y-116862500D01*
X141354000Y-116833500D01*
X141325000Y-116802500D01*
X141298000Y-116770500D01*
X141273000Y-116737500D01*
X141249000Y-116703500D01*
X141227000Y-116667500D01*
X141207000Y-116630500D01*
X141189000Y-116592500D01*
X141173000Y-116554500D01*
X141159000Y-116514500D01*
X141147000Y-116474500D01*
X141137000Y-116433500D01*
X141130000Y-116392500D01*
X141124000Y-116351500D01*
X141121000Y-116309500D01*
X141120000Y-116267500D01*
X141120000Y-113867500D01*
X142720000Y-113867500D01*
X142720000Y-116267500D01*
G37*
X145260000Y-116267500D02*
X145259000Y-116309500D01*
X145256000Y-116351500D01*
X145250000Y-116392500D01*
X145243000Y-116433500D01*
X145233000Y-116474500D01*
X145221000Y-116514500D01*
X145207000Y-116554500D01*
X145191000Y-116592500D01*
X145173000Y-116630500D01*
X145153000Y-116667500D01*
X145131000Y-116703500D01*
X145107000Y-116737500D01*
X145082000Y-116770500D01*
X145055000Y-116802500D01*
X145026000Y-116833500D01*
X144995000Y-116862500D01*
X144963000Y-116889500D01*
X144930000Y-116914500D01*
X144896000Y-116938500D01*
X144860000Y-116960500D01*
X144823000Y-116980500D01*
X144785000Y-116998500D01*
X144747000Y-117014500D01*
X144707000Y-117028500D01*
X144667000Y-117040500D01*
X144626000Y-117050500D01*
X144585000Y-117057500D01*
X144544000Y-117063500D01*
X144502000Y-117066500D01*
X144460000Y-117067500D01*
X144418000Y-117066500D01*
X144376000Y-117063500D01*
X144335000Y-117057500D01*
X144294000Y-117050500D01*
X144253000Y-117040500D01*
X144213000Y-117028500D01*
X144173000Y-117014500D01*
X144135000Y-116998500D01*
X144097000Y-116980500D01*
X144060000Y-116960500D01*
X144024000Y-116938500D01*
X143990000Y-116914500D01*
X143957000Y-116889500D01*
X143925000Y-116862500D01*
X143894000Y-116833500D01*
X143865000Y-116802500D01*
X143838000Y-116770500D01*
X143813000Y-116737500D01*
X143789000Y-116703500D01*
X143767000Y-116667500D01*
X143747000Y-116630500D01*
X143729000Y-116592500D01*
X143713000Y-116554500D01*
X143699000Y-116514500D01*
X143687000Y-116474500D01*
X143677000Y-116433500D01*
X143670000Y-116392500D01*
X143664000Y-116351500D01*
X143661000Y-116309500D01*
X143660000Y-116267500D01*
X143660000Y-113867500D01*
X145260000Y-113867500D01*
X145260000Y-116267500D01*
G36*
X145260000Y-116267500D02*
G01*
X145259000Y-116309500D01*
X145256000Y-116351500D01*
X145250000Y-116392500D01*
X145243000Y-116433500D01*
X145233000Y-116474500D01*
X145221000Y-116514500D01*
X145207000Y-116554500D01*
X145191000Y-116592500D01*
X145173000Y-116630500D01*
X145153000Y-116667500D01*
X145131000Y-116703500D01*
X145107000Y-116737500D01*
X145082000Y-116770500D01*
X145055000Y-116802500D01*
X145026000Y-116833500D01*
X144995000Y-116862500D01*
X144963000Y-116889500D01*
X144930000Y-116914500D01*
X144896000Y-116938500D01*
X144860000Y-116960500D01*
X144823000Y-116980500D01*
X144785000Y-116998500D01*
X144747000Y-117014500D01*
X144707000Y-117028500D01*
X144667000Y-117040500D01*
X144626000Y-117050500D01*
X144585000Y-117057500D01*
X144544000Y-117063500D01*
X144502000Y-117066500D01*
X144460000Y-117067500D01*
X144418000Y-117066500D01*
X144376000Y-117063500D01*
X144335000Y-117057500D01*
X144294000Y-117050500D01*
X144253000Y-117040500D01*
X144213000Y-117028500D01*
X144173000Y-117014500D01*
X144135000Y-116998500D01*
X144097000Y-116980500D01*
X144060000Y-116960500D01*
X144024000Y-116938500D01*
X143990000Y-116914500D01*
X143957000Y-116889500D01*
X143925000Y-116862500D01*
X143894000Y-116833500D01*
X143865000Y-116802500D01*
X143838000Y-116770500D01*
X143813000Y-116737500D01*
X143789000Y-116703500D01*
X143767000Y-116667500D01*
X143747000Y-116630500D01*
X143729000Y-116592500D01*
X143713000Y-116554500D01*
X143699000Y-116514500D01*
X143687000Y-116474500D01*
X143677000Y-116433500D01*
X143670000Y-116392500D01*
X143664000Y-116351500D01*
X143661000Y-116309500D01*
X143660000Y-116267500D01*
X143660000Y-113867500D01*
X145260000Y-113867500D01*
X145260000Y-116267500D01*
G37*
X150340000Y-116267500D02*
X150339000Y-116309500D01*
X150336000Y-116351500D01*
X150330000Y-116392500D01*
X150323000Y-116433500D01*
X150313000Y-116474500D01*
X150301000Y-116514500D01*
X150287000Y-116554500D01*
X150271000Y-116592500D01*
X150253000Y-116630500D01*
X150233000Y-116667500D01*
X150211000Y-116703500D01*
X150187000Y-116737500D01*
X150162000Y-116770500D01*
X150135000Y-116802500D01*
X150106000Y-116833500D01*
X150075000Y-116862500D01*
X150043000Y-116889500D01*
X150010000Y-116914500D01*
X149976000Y-116938500D01*
X149940000Y-116960500D01*
X149903000Y-116980500D01*
X149865000Y-116998500D01*
X149827000Y-117014500D01*
X149787000Y-117028500D01*
X149747000Y-117040500D01*
X149706000Y-117050500D01*
X149665000Y-117057500D01*
X149624000Y-117063500D01*
X149582000Y-117066500D01*
X149540000Y-117067500D01*
X149498000Y-117066500D01*
X149456000Y-117063500D01*
X149415000Y-117057500D01*
X149374000Y-117050500D01*
X149333000Y-117040500D01*
X149293000Y-117028500D01*
X149253000Y-117014500D01*
X149215000Y-116998500D01*
X149177000Y-116980500D01*
X149140000Y-116960500D01*
X149104000Y-116938500D01*
X149070000Y-116914500D01*
X149037000Y-116889500D01*
X149005000Y-116862500D01*
X148974000Y-116833500D01*
X148945000Y-116802500D01*
X148918000Y-116770500D01*
X148893000Y-116737500D01*
X148869000Y-116703500D01*
X148847000Y-116667500D01*
X148827000Y-116630500D01*
X148809000Y-116592500D01*
X148793000Y-116554500D01*
X148779000Y-116514500D01*
X148767000Y-116474500D01*
X148757000Y-116433500D01*
X148750000Y-116392500D01*
X148744000Y-116351500D01*
X148741000Y-116309500D01*
X148740000Y-116267500D01*
X148740000Y-113867500D01*
X150340000Y-113867500D01*
X150340000Y-116267500D01*
G36*
X150340000Y-116267500D02*
G01*
X150339000Y-116309500D01*
X150336000Y-116351500D01*
X150330000Y-116392500D01*
X150323000Y-116433500D01*
X150313000Y-116474500D01*
X150301000Y-116514500D01*
X150287000Y-116554500D01*
X150271000Y-116592500D01*
X150253000Y-116630500D01*
X150233000Y-116667500D01*
X150211000Y-116703500D01*
X150187000Y-116737500D01*
X150162000Y-116770500D01*
X150135000Y-116802500D01*
X150106000Y-116833500D01*
X150075000Y-116862500D01*
X150043000Y-116889500D01*
X150010000Y-116914500D01*
X149976000Y-116938500D01*
X149940000Y-116960500D01*
X149903000Y-116980500D01*
X149865000Y-116998500D01*
X149827000Y-117014500D01*
X149787000Y-117028500D01*
X149747000Y-117040500D01*
X149706000Y-117050500D01*
X149665000Y-117057500D01*
X149624000Y-117063500D01*
X149582000Y-117066500D01*
X149540000Y-117067500D01*
X149498000Y-117066500D01*
X149456000Y-117063500D01*
X149415000Y-117057500D01*
X149374000Y-117050500D01*
X149333000Y-117040500D01*
X149293000Y-117028500D01*
X149253000Y-117014500D01*
X149215000Y-116998500D01*
X149177000Y-116980500D01*
X149140000Y-116960500D01*
X149104000Y-116938500D01*
X149070000Y-116914500D01*
X149037000Y-116889500D01*
X149005000Y-116862500D01*
X148974000Y-116833500D01*
X148945000Y-116802500D01*
X148918000Y-116770500D01*
X148893000Y-116737500D01*
X148869000Y-116703500D01*
X148847000Y-116667500D01*
X148827000Y-116630500D01*
X148809000Y-116592500D01*
X148793000Y-116554500D01*
X148779000Y-116514500D01*
X148767000Y-116474500D01*
X148757000Y-116433500D01*
X148750000Y-116392500D01*
X148744000Y-116351500D01*
X148741000Y-116309500D01*
X148740000Y-116267500D01*
X148740000Y-113867500D01*
X150340000Y-113867500D01*
X150340000Y-116267500D01*
G37*
X152880000Y-116267500D02*
X152879000Y-116309500D01*
X152876000Y-116351500D01*
X152870000Y-116392500D01*
X152863000Y-116433500D01*
X152853000Y-116474500D01*
X152841000Y-116514500D01*
X152827000Y-116554500D01*
X152811000Y-116592500D01*
X152793000Y-116630500D01*
X152773000Y-116667500D01*
X152751000Y-116703500D01*
X152727000Y-116737500D01*
X152702000Y-116770500D01*
X152675000Y-116802500D01*
X152646000Y-116833500D01*
X152615000Y-116862500D01*
X152583000Y-116889500D01*
X152550000Y-116914500D01*
X152516000Y-116938500D01*
X152480000Y-116960500D01*
X152443000Y-116980500D01*
X152405000Y-116998500D01*
X152367000Y-117014500D01*
X152327000Y-117028500D01*
X152287000Y-117040500D01*
X152246000Y-117050500D01*
X152205000Y-117057500D01*
X152164000Y-117063500D01*
X152122000Y-117066500D01*
X152080000Y-117067500D01*
X152038000Y-117066500D01*
X151996000Y-117063500D01*
X151955000Y-117057500D01*
X151914000Y-117050500D01*
X151873000Y-117040500D01*
X151833000Y-117028500D01*
X151793000Y-117014500D01*
X151755000Y-116998500D01*
X151717000Y-116980500D01*
X151680000Y-116960500D01*
X151644000Y-116938500D01*
X151610000Y-116914500D01*
X151577000Y-116889500D01*
X151545000Y-116862500D01*
X151514000Y-116833500D01*
X151485000Y-116802500D01*
X151458000Y-116770500D01*
X151433000Y-116737500D01*
X151409000Y-116703500D01*
X151387000Y-116667500D01*
X151367000Y-116630500D01*
X151349000Y-116592500D01*
X151333000Y-116554500D01*
X151319000Y-116514500D01*
X151307000Y-116474500D01*
X151297000Y-116433500D01*
X151290000Y-116392500D01*
X151284000Y-116351500D01*
X151281000Y-116309500D01*
X151280000Y-116267500D01*
X151280000Y-113867500D01*
X152880000Y-113867500D01*
X152880000Y-116267500D01*
G36*
X152880000Y-116267500D02*
G01*
X152879000Y-116309500D01*
X152876000Y-116351500D01*
X152870000Y-116392500D01*
X152863000Y-116433500D01*
X152853000Y-116474500D01*
X152841000Y-116514500D01*
X152827000Y-116554500D01*
X152811000Y-116592500D01*
X152793000Y-116630500D01*
X152773000Y-116667500D01*
X152751000Y-116703500D01*
X152727000Y-116737500D01*
X152702000Y-116770500D01*
X152675000Y-116802500D01*
X152646000Y-116833500D01*
X152615000Y-116862500D01*
X152583000Y-116889500D01*
X152550000Y-116914500D01*
X152516000Y-116938500D01*
X152480000Y-116960500D01*
X152443000Y-116980500D01*
X152405000Y-116998500D01*
X152367000Y-117014500D01*
X152327000Y-117028500D01*
X152287000Y-117040500D01*
X152246000Y-117050500D01*
X152205000Y-117057500D01*
X152164000Y-117063500D01*
X152122000Y-117066500D01*
X152080000Y-117067500D01*
X152038000Y-117066500D01*
X151996000Y-117063500D01*
X151955000Y-117057500D01*
X151914000Y-117050500D01*
X151873000Y-117040500D01*
X151833000Y-117028500D01*
X151793000Y-117014500D01*
X151755000Y-116998500D01*
X151717000Y-116980500D01*
X151680000Y-116960500D01*
X151644000Y-116938500D01*
X151610000Y-116914500D01*
X151577000Y-116889500D01*
X151545000Y-116862500D01*
X151514000Y-116833500D01*
X151485000Y-116802500D01*
X151458000Y-116770500D01*
X151433000Y-116737500D01*
X151409000Y-116703500D01*
X151387000Y-116667500D01*
X151367000Y-116630500D01*
X151349000Y-116592500D01*
X151333000Y-116554500D01*
X151319000Y-116514500D01*
X151307000Y-116474500D01*
X151297000Y-116433500D01*
X151290000Y-116392500D01*
X151284000Y-116351500D01*
X151281000Y-116309500D01*
X151280000Y-116267500D01*
X151280000Y-113867500D01*
X152880000Y-113867500D01*
X152880000Y-116267500D01*
G37*
X109521000Y-133248500D02*
X109531000Y-133249500D01*
X109542000Y-133251500D01*
X109552000Y-133254500D01*
X109562000Y-133257500D01*
X109572000Y-133260500D01*
X109581000Y-133264500D01*
X109591000Y-133269500D01*
X109600000Y-133274500D01*
X109609000Y-133279500D01*
X109618000Y-133285500D01*
X109626000Y-133292500D01*
X109634000Y-133298500D01*
X109641000Y-133306500D01*
X109649000Y-133313500D01*
X109655000Y-133321500D01*
X109662000Y-133329500D01*
X109668000Y-133338500D01*
X109673000Y-133347500D01*
X109678000Y-133356500D01*
X109683000Y-133366500D01*
X109687000Y-133375500D01*
X109690000Y-133385500D01*
X109693000Y-133395500D01*
X109696000Y-133405500D01*
X109698000Y-133416500D01*
X109699000Y-133426500D01*
X109700000Y-133437500D01*
X109700000Y-133447500D01*
X109700000Y-136447500D01*
X108100000Y-136447500D01*
X108100000Y-133447500D01*
X108100000Y-133437500D01*
X108101000Y-133426500D01*
X108102000Y-133416500D01*
X108104000Y-133405500D01*
X108107000Y-133395500D01*
X108110000Y-133385500D01*
X108113000Y-133375500D01*
X108117000Y-133366500D01*
X108122000Y-133356500D01*
X108127000Y-133347500D01*
X108132000Y-133338500D01*
X108138000Y-133329500D01*
X108145000Y-133321500D01*
X108151000Y-133313500D01*
X108159000Y-133306500D01*
X108166000Y-133298500D01*
X108174000Y-133292500D01*
X108182000Y-133285500D01*
X108191000Y-133279500D01*
X108200000Y-133274500D01*
X108209000Y-133269500D01*
X108219000Y-133264500D01*
X108228000Y-133260500D01*
X108238000Y-133257500D01*
X108248000Y-133254500D01*
X108258000Y-133251500D01*
X108269000Y-133249500D01*
X108279000Y-133248500D01*
X108290000Y-133247500D01*
X108300000Y-133247500D01*
X109500000Y-133247500D01*
X109510000Y-133247500D01*
X109521000Y-133248500D01*
G36*
X109521000Y-133248500D02*
G01*
X109531000Y-133249500D01*
X109542000Y-133251500D01*
X109552000Y-133254500D01*
X109562000Y-133257500D01*
X109572000Y-133260500D01*
X109581000Y-133264500D01*
X109591000Y-133269500D01*
X109600000Y-133274500D01*
X109609000Y-133279500D01*
X109618000Y-133285500D01*
X109626000Y-133292500D01*
X109634000Y-133298500D01*
X109641000Y-133306500D01*
X109649000Y-133313500D01*
X109655000Y-133321500D01*
X109662000Y-133329500D01*
X109668000Y-133338500D01*
X109673000Y-133347500D01*
X109678000Y-133356500D01*
X109683000Y-133366500D01*
X109687000Y-133375500D01*
X109690000Y-133385500D01*
X109693000Y-133395500D01*
X109696000Y-133405500D01*
X109698000Y-133416500D01*
X109699000Y-133426500D01*
X109700000Y-133437500D01*
X109700000Y-133447500D01*
X109700000Y-136447500D01*
X108100000Y-136447500D01*
X108100000Y-133447500D01*
X108100000Y-133437500D01*
X108101000Y-133426500D01*
X108102000Y-133416500D01*
X108104000Y-133405500D01*
X108107000Y-133395500D01*
X108110000Y-133385500D01*
X108113000Y-133375500D01*
X108117000Y-133366500D01*
X108122000Y-133356500D01*
X108127000Y-133347500D01*
X108132000Y-133338500D01*
X108138000Y-133329500D01*
X108145000Y-133321500D01*
X108151000Y-133313500D01*
X108159000Y-133306500D01*
X108166000Y-133298500D01*
X108174000Y-133292500D01*
X108182000Y-133285500D01*
X108191000Y-133279500D01*
X108200000Y-133274500D01*
X108209000Y-133269500D01*
X108219000Y-133264500D01*
X108228000Y-133260500D01*
X108238000Y-133257500D01*
X108248000Y-133254500D01*
X108258000Y-133251500D01*
X108269000Y-133249500D01*
X108279000Y-133248500D01*
X108290000Y-133247500D01*
X108300000Y-133247500D01*
X109500000Y-133247500D01*
X109510000Y-133247500D01*
X109521000Y-133248500D01*
G37*
X122221000Y-133248500D02*
X122231000Y-133249500D01*
X122242000Y-133251500D01*
X122252000Y-133254500D01*
X122262000Y-133257500D01*
X122272000Y-133260500D01*
X122281000Y-133264500D01*
X122291000Y-133269500D01*
X122300000Y-133274500D01*
X122309000Y-133279500D01*
X122318000Y-133285500D01*
X122326000Y-133292500D01*
X122334000Y-133298500D01*
X122341000Y-133306500D01*
X122349000Y-133313500D01*
X122355000Y-133321500D01*
X122362000Y-133329500D01*
X122368000Y-133338500D01*
X122373000Y-133347500D01*
X122378000Y-133356500D01*
X122383000Y-133366500D01*
X122387000Y-133375500D01*
X122390000Y-133385500D01*
X122393000Y-133395500D01*
X122396000Y-133405500D01*
X122398000Y-133416500D01*
X122399000Y-133426500D01*
X122400000Y-133437500D01*
X122400000Y-133447500D01*
X122400000Y-136447500D01*
X120800000Y-136447500D01*
X120800000Y-133447500D01*
X120800000Y-133437500D01*
X120801000Y-133426500D01*
X120802000Y-133416500D01*
X120804000Y-133405500D01*
X120807000Y-133395500D01*
X120810000Y-133385500D01*
X120813000Y-133375500D01*
X120817000Y-133366500D01*
X120822000Y-133356500D01*
X120827000Y-133347500D01*
X120832000Y-133338500D01*
X120838000Y-133329500D01*
X120845000Y-133321500D01*
X120851000Y-133313500D01*
X120859000Y-133306500D01*
X120866000Y-133298500D01*
X120874000Y-133292500D01*
X120882000Y-133285500D01*
X120891000Y-133279500D01*
X120900000Y-133274500D01*
X120909000Y-133269500D01*
X120919000Y-133264500D01*
X120928000Y-133260500D01*
X120938000Y-133257500D01*
X120948000Y-133254500D01*
X120958000Y-133251500D01*
X120969000Y-133249500D01*
X120979000Y-133248500D01*
X120990000Y-133247500D01*
X121000000Y-133247500D01*
X122200000Y-133247500D01*
X122210000Y-133247500D01*
X122221000Y-133248500D01*
G36*
X122221000Y-133248500D02*
G01*
X122231000Y-133249500D01*
X122242000Y-133251500D01*
X122252000Y-133254500D01*
X122262000Y-133257500D01*
X122272000Y-133260500D01*
X122281000Y-133264500D01*
X122291000Y-133269500D01*
X122300000Y-133274500D01*
X122309000Y-133279500D01*
X122318000Y-133285500D01*
X122326000Y-133292500D01*
X122334000Y-133298500D01*
X122341000Y-133306500D01*
X122349000Y-133313500D01*
X122355000Y-133321500D01*
X122362000Y-133329500D01*
X122368000Y-133338500D01*
X122373000Y-133347500D01*
X122378000Y-133356500D01*
X122383000Y-133366500D01*
X122387000Y-133375500D01*
X122390000Y-133385500D01*
X122393000Y-133395500D01*
X122396000Y-133405500D01*
X122398000Y-133416500D01*
X122399000Y-133426500D01*
X122400000Y-133437500D01*
X122400000Y-133447500D01*
X122400000Y-136447500D01*
X120800000Y-136447500D01*
X120800000Y-133447500D01*
X120800000Y-133437500D01*
X120801000Y-133426500D01*
X120802000Y-133416500D01*
X120804000Y-133405500D01*
X120807000Y-133395500D01*
X120810000Y-133385500D01*
X120813000Y-133375500D01*
X120817000Y-133366500D01*
X120822000Y-133356500D01*
X120827000Y-133347500D01*
X120832000Y-133338500D01*
X120838000Y-133329500D01*
X120845000Y-133321500D01*
X120851000Y-133313500D01*
X120859000Y-133306500D01*
X120866000Y-133298500D01*
X120874000Y-133292500D01*
X120882000Y-133285500D01*
X120891000Y-133279500D01*
X120900000Y-133274500D01*
X120909000Y-133269500D01*
X120919000Y-133264500D01*
X120928000Y-133260500D01*
X120938000Y-133257500D01*
X120948000Y-133254500D01*
X120958000Y-133251500D01*
X120969000Y-133249500D01*
X120979000Y-133248500D01*
X120990000Y-133247500D01*
X121000000Y-133247500D01*
X122200000Y-133247500D01*
X122210000Y-133247500D01*
X122221000Y-133248500D01*
G37*
X134921000Y-133248500D02*
X134931000Y-133249500D01*
X134942000Y-133251500D01*
X134952000Y-133254500D01*
X134962000Y-133257500D01*
X134972000Y-133260500D01*
X134981000Y-133264500D01*
X134991000Y-133269500D01*
X135000000Y-133274500D01*
X135009000Y-133279500D01*
X135018000Y-133285500D01*
X135026000Y-133292500D01*
X135034000Y-133298500D01*
X135041000Y-133306500D01*
X135049000Y-133313500D01*
X135055000Y-133321500D01*
X135062000Y-133329500D01*
X135068000Y-133338500D01*
X135073000Y-133347500D01*
X135078000Y-133356500D01*
X135083000Y-133366500D01*
X135087000Y-133375500D01*
X135090000Y-133385500D01*
X135093000Y-133395500D01*
X135096000Y-133405500D01*
X135098000Y-133416500D01*
X135099000Y-133426500D01*
X135100000Y-133437500D01*
X135100000Y-133447500D01*
X135100000Y-136447500D01*
X133500000Y-136447500D01*
X133500000Y-133447500D01*
X133500000Y-133437500D01*
X133501000Y-133426500D01*
X133502000Y-133416500D01*
X133504000Y-133405500D01*
X133507000Y-133395500D01*
X133510000Y-133385500D01*
X133513000Y-133375500D01*
X133517000Y-133366500D01*
X133522000Y-133356500D01*
X133527000Y-133347500D01*
X133532000Y-133338500D01*
X133538000Y-133329500D01*
X133545000Y-133321500D01*
X133551000Y-133313500D01*
X133559000Y-133306500D01*
X133566000Y-133298500D01*
X133574000Y-133292500D01*
X133582000Y-133285500D01*
X133591000Y-133279500D01*
X133600000Y-133274500D01*
X133609000Y-133269500D01*
X133619000Y-133264500D01*
X133628000Y-133260500D01*
X133638000Y-133257500D01*
X133648000Y-133254500D01*
X133658000Y-133251500D01*
X133669000Y-133249500D01*
X133679000Y-133248500D01*
X133690000Y-133247500D01*
X133700000Y-133247500D01*
X134900000Y-133247500D01*
X134910000Y-133247500D01*
X134921000Y-133248500D01*
G36*
X134921000Y-133248500D02*
G01*
X134931000Y-133249500D01*
X134942000Y-133251500D01*
X134952000Y-133254500D01*
X134962000Y-133257500D01*
X134972000Y-133260500D01*
X134981000Y-133264500D01*
X134991000Y-133269500D01*
X135000000Y-133274500D01*
X135009000Y-133279500D01*
X135018000Y-133285500D01*
X135026000Y-133292500D01*
X135034000Y-133298500D01*
X135041000Y-133306500D01*
X135049000Y-133313500D01*
X135055000Y-133321500D01*
X135062000Y-133329500D01*
X135068000Y-133338500D01*
X135073000Y-133347500D01*
X135078000Y-133356500D01*
X135083000Y-133366500D01*
X135087000Y-133375500D01*
X135090000Y-133385500D01*
X135093000Y-133395500D01*
X135096000Y-133405500D01*
X135098000Y-133416500D01*
X135099000Y-133426500D01*
X135100000Y-133437500D01*
X135100000Y-133447500D01*
X135100000Y-136447500D01*
X133500000Y-136447500D01*
X133500000Y-133447500D01*
X133500000Y-133437500D01*
X133501000Y-133426500D01*
X133502000Y-133416500D01*
X133504000Y-133405500D01*
X133507000Y-133395500D01*
X133510000Y-133385500D01*
X133513000Y-133375500D01*
X133517000Y-133366500D01*
X133522000Y-133356500D01*
X133527000Y-133347500D01*
X133532000Y-133338500D01*
X133538000Y-133329500D01*
X133545000Y-133321500D01*
X133551000Y-133313500D01*
X133559000Y-133306500D01*
X133566000Y-133298500D01*
X133574000Y-133292500D01*
X133582000Y-133285500D01*
X133591000Y-133279500D01*
X133600000Y-133274500D01*
X133609000Y-133269500D01*
X133619000Y-133264500D01*
X133628000Y-133260500D01*
X133638000Y-133257500D01*
X133648000Y-133254500D01*
X133658000Y-133251500D01*
X133669000Y-133249500D01*
X133679000Y-133248500D01*
X133690000Y-133247500D01*
X133700000Y-133247500D01*
X134900000Y-133247500D01*
X134910000Y-133247500D01*
X134921000Y-133248500D01*
G37*
X147621000Y-133248500D02*
X147631000Y-133249500D01*
X147642000Y-133251500D01*
X147652000Y-133254500D01*
X147662000Y-133257500D01*
X147672000Y-133260500D01*
X147681000Y-133264500D01*
X147691000Y-133269500D01*
X147700000Y-133274500D01*
X147709000Y-133279500D01*
X147718000Y-133285500D01*
X147726000Y-133292500D01*
X147734000Y-133298500D01*
X147741000Y-133306500D01*
X147749000Y-133313500D01*
X147755000Y-133321500D01*
X147762000Y-133329500D01*
X147768000Y-133338500D01*
X147773000Y-133347500D01*
X147778000Y-133356500D01*
X147783000Y-133366500D01*
X147787000Y-133375500D01*
X147790000Y-133385500D01*
X147793000Y-133395500D01*
X147796000Y-133405500D01*
X147798000Y-133416500D01*
X147799000Y-133426500D01*
X147800000Y-133437500D01*
X147800000Y-133447500D01*
X147800000Y-136447500D01*
X146200000Y-136447500D01*
X146200000Y-133447500D01*
X146200000Y-133437500D01*
X146201000Y-133426500D01*
X146202000Y-133416500D01*
X146204000Y-133405500D01*
X146207000Y-133395500D01*
X146210000Y-133385500D01*
X146213000Y-133375500D01*
X146217000Y-133366500D01*
X146222000Y-133356500D01*
X146227000Y-133347500D01*
X146232000Y-133338500D01*
X146238000Y-133329500D01*
X146245000Y-133321500D01*
X146251000Y-133313500D01*
X146259000Y-133306500D01*
X146266000Y-133298500D01*
X146274000Y-133292500D01*
X146282000Y-133285500D01*
X146291000Y-133279500D01*
X146300000Y-133274500D01*
X146309000Y-133269500D01*
X146319000Y-133264500D01*
X146328000Y-133260500D01*
X146338000Y-133257500D01*
X146348000Y-133254500D01*
X146358000Y-133251500D01*
X146369000Y-133249500D01*
X146379000Y-133248500D01*
X146390000Y-133247500D01*
X146400000Y-133247500D01*
X147600000Y-133247500D01*
X147610000Y-133247500D01*
X147621000Y-133248500D01*
G36*
X147621000Y-133248500D02*
G01*
X147631000Y-133249500D01*
X147642000Y-133251500D01*
X147652000Y-133254500D01*
X147662000Y-133257500D01*
X147672000Y-133260500D01*
X147681000Y-133264500D01*
X147691000Y-133269500D01*
X147700000Y-133274500D01*
X147709000Y-133279500D01*
X147718000Y-133285500D01*
X147726000Y-133292500D01*
X147734000Y-133298500D01*
X147741000Y-133306500D01*
X147749000Y-133313500D01*
X147755000Y-133321500D01*
X147762000Y-133329500D01*
X147768000Y-133338500D01*
X147773000Y-133347500D01*
X147778000Y-133356500D01*
X147783000Y-133366500D01*
X147787000Y-133375500D01*
X147790000Y-133385500D01*
X147793000Y-133395500D01*
X147796000Y-133405500D01*
X147798000Y-133416500D01*
X147799000Y-133426500D01*
X147800000Y-133437500D01*
X147800000Y-133447500D01*
X147800000Y-136447500D01*
X146200000Y-136447500D01*
X146200000Y-133447500D01*
X146200000Y-133437500D01*
X146201000Y-133426500D01*
X146202000Y-133416500D01*
X146204000Y-133405500D01*
X146207000Y-133395500D01*
X146210000Y-133385500D01*
X146213000Y-133375500D01*
X146217000Y-133366500D01*
X146222000Y-133356500D01*
X146227000Y-133347500D01*
X146232000Y-133338500D01*
X146238000Y-133329500D01*
X146245000Y-133321500D01*
X146251000Y-133313500D01*
X146259000Y-133306500D01*
X146266000Y-133298500D01*
X146274000Y-133292500D01*
X146282000Y-133285500D01*
X146291000Y-133279500D01*
X146300000Y-133274500D01*
X146309000Y-133269500D01*
X146319000Y-133264500D01*
X146328000Y-133260500D01*
X146338000Y-133257500D01*
X146348000Y-133254500D01*
X146358000Y-133251500D01*
X146369000Y-133249500D01*
X146379000Y-133248500D01*
X146390000Y-133247500D01*
X146400000Y-133247500D01*
X147600000Y-133247500D01*
X147610000Y-133247500D01*
X147621000Y-133248500D01*
G37*
X109700000Y-116867500D02*
X109700000Y-116877500D01*
X109699000Y-116888500D01*
X109698000Y-116898500D01*
X109696000Y-116909500D01*
X109693000Y-116919500D01*
X109690000Y-116929500D01*
X109687000Y-116939500D01*
X109683000Y-116948500D01*
X109678000Y-116958500D01*
X109673000Y-116967500D01*
X109668000Y-116976500D01*
X109662000Y-116985500D01*
X109655000Y-116993500D01*
X109649000Y-117001500D01*
X109641000Y-117008500D01*
X109634000Y-117016500D01*
X109626000Y-117022500D01*
X109618000Y-117029500D01*
X109609000Y-117035500D01*
X109600000Y-117040500D01*
X109591000Y-117045500D01*
X109581000Y-117050500D01*
X109572000Y-117054500D01*
X109562000Y-117057500D01*
X109552000Y-117060500D01*
X109542000Y-117063500D01*
X109531000Y-117065500D01*
X109521000Y-117066500D01*
X109510000Y-117067500D01*
X109500000Y-117067500D01*
X108300000Y-117067500D01*
X108290000Y-117067500D01*
X108279000Y-117066500D01*
X108269000Y-117065500D01*
X108258000Y-117063500D01*
X108248000Y-117060500D01*
X108238000Y-117057500D01*
X108228000Y-117054500D01*
X108219000Y-117050500D01*
X108209000Y-117045500D01*
X108200000Y-117040500D01*
X108191000Y-117035500D01*
X108182000Y-117029500D01*
X108174000Y-117022500D01*
X108166000Y-117016500D01*
X108159000Y-117008500D01*
X108151000Y-117001500D01*
X108145000Y-116993500D01*
X108138000Y-116985500D01*
X108132000Y-116976500D01*
X108127000Y-116967500D01*
X108122000Y-116958500D01*
X108117000Y-116948500D01*
X108113000Y-116939500D01*
X108110000Y-116929500D01*
X108107000Y-116919500D01*
X108104000Y-116909500D01*
X108102000Y-116898500D01*
X108101000Y-116888500D01*
X108100000Y-116877500D01*
X108100000Y-116867500D01*
X108100000Y-113867500D01*
X109700000Y-113867500D01*
X109700000Y-116867500D01*
G36*
X109700000Y-116867500D02*
G01*
X109700000Y-116877500D01*
X109699000Y-116888500D01*
X109698000Y-116898500D01*
X109696000Y-116909500D01*
X109693000Y-116919500D01*
X109690000Y-116929500D01*
X109687000Y-116939500D01*
X109683000Y-116948500D01*
X109678000Y-116958500D01*
X109673000Y-116967500D01*
X109668000Y-116976500D01*
X109662000Y-116985500D01*
X109655000Y-116993500D01*
X109649000Y-117001500D01*
X109641000Y-117008500D01*
X109634000Y-117016500D01*
X109626000Y-117022500D01*
X109618000Y-117029500D01*
X109609000Y-117035500D01*
X109600000Y-117040500D01*
X109591000Y-117045500D01*
X109581000Y-117050500D01*
X109572000Y-117054500D01*
X109562000Y-117057500D01*
X109552000Y-117060500D01*
X109542000Y-117063500D01*
X109531000Y-117065500D01*
X109521000Y-117066500D01*
X109510000Y-117067500D01*
X109500000Y-117067500D01*
X108300000Y-117067500D01*
X108290000Y-117067500D01*
X108279000Y-117066500D01*
X108269000Y-117065500D01*
X108258000Y-117063500D01*
X108248000Y-117060500D01*
X108238000Y-117057500D01*
X108228000Y-117054500D01*
X108219000Y-117050500D01*
X108209000Y-117045500D01*
X108200000Y-117040500D01*
X108191000Y-117035500D01*
X108182000Y-117029500D01*
X108174000Y-117022500D01*
X108166000Y-117016500D01*
X108159000Y-117008500D01*
X108151000Y-117001500D01*
X108145000Y-116993500D01*
X108138000Y-116985500D01*
X108132000Y-116976500D01*
X108127000Y-116967500D01*
X108122000Y-116958500D01*
X108117000Y-116948500D01*
X108113000Y-116939500D01*
X108110000Y-116929500D01*
X108107000Y-116919500D01*
X108104000Y-116909500D01*
X108102000Y-116898500D01*
X108101000Y-116888500D01*
X108100000Y-116877500D01*
X108100000Y-116867500D01*
X108100000Y-113867500D01*
X109700000Y-113867500D01*
X109700000Y-116867500D01*
G37*
X122400000Y-116867500D02*
X122400000Y-116877500D01*
X122399000Y-116888500D01*
X122398000Y-116898500D01*
X122396000Y-116909500D01*
X122393000Y-116919500D01*
X122390000Y-116929500D01*
X122387000Y-116939500D01*
X122383000Y-116948500D01*
X122378000Y-116958500D01*
X122373000Y-116967500D01*
X122368000Y-116976500D01*
X122362000Y-116985500D01*
X122355000Y-116993500D01*
X122349000Y-117001500D01*
X122341000Y-117008500D01*
X122334000Y-117016500D01*
X122326000Y-117022500D01*
X122318000Y-117029500D01*
X122309000Y-117035500D01*
X122300000Y-117040500D01*
X122291000Y-117045500D01*
X122281000Y-117050500D01*
X122272000Y-117054500D01*
X122262000Y-117057500D01*
X122252000Y-117060500D01*
X122242000Y-117063500D01*
X122231000Y-117065500D01*
X122221000Y-117066500D01*
X122210000Y-117067500D01*
X122200000Y-117067500D01*
X121000000Y-117067500D01*
X120990000Y-117067500D01*
X120979000Y-117066500D01*
X120969000Y-117065500D01*
X120958000Y-117063500D01*
X120948000Y-117060500D01*
X120938000Y-117057500D01*
X120928000Y-117054500D01*
X120919000Y-117050500D01*
X120909000Y-117045500D01*
X120900000Y-117040500D01*
X120891000Y-117035500D01*
X120882000Y-117029500D01*
X120874000Y-117022500D01*
X120866000Y-117016500D01*
X120859000Y-117008500D01*
X120851000Y-117001500D01*
X120845000Y-116993500D01*
X120838000Y-116985500D01*
X120832000Y-116976500D01*
X120827000Y-116967500D01*
X120822000Y-116958500D01*
X120817000Y-116948500D01*
X120813000Y-116939500D01*
X120810000Y-116929500D01*
X120807000Y-116919500D01*
X120804000Y-116909500D01*
X120802000Y-116898500D01*
X120801000Y-116888500D01*
X120800000Y-116877500D01*
X120800000Y-116867500D01*
X120800000Y-113867500D01*
X122400000Y-113867500D01*
X122400000Y-116867500D01*
G36*
X122400000Y-116867500D02*
G01*
X122400000Y-116877500D01*
X122399000Y-116888500D01*
X122398000Y-116898500D01*
X122396000Y-116909500D01*
X122393000Y-116919500D01*
X122390000Y-116929500D01*
X122387000Y-116939500D01*
X122383000Y-116948500D01*
X122378000Y-116958500D01*
X122373000Y-116967500D01*
X122368000Y-116976500D01*
X122362000Y-116985500D01*
X122355000Y-116993500D01*
X122349000Y-117001500D01*
X122341000Y-117008500D01*
X122334000Y-117016500D01*
X122326000Y-117022500D01*
X122318000Y-117029500D01*
X122309000Y-117035500D01*
X122300000Y-117040500D01*
X122291000Y-117045500D01*
X122281000Y-117050500D01*
X122272000Y-117054500D01*
X122262000Y-117057500D01*
X122252000Y-117060500D01*
X122242000Y-117063500D01*
X122231000Y-117065500D01*
X122221000Y-117066500D01*
X122210000Y-117067500D01*
X122200000Y-117067500D01*
X121000000Y-117067500D01*
X120990000Y-117067500D01*
X120979000Y-117066500D01*
X120969000Y-117065500D01*
X120958000Y-117063500D01*
X120948000Y-117060500D01*
X120938000Y-117057500D01*
X120928000Y-117054500D01*
X120919000Y-117050500D01*
X120909000Y-117045500D01*
X120900000Y-117040500D01*
X120891000Y-117035500D01*
X120882000Y-117029500D01*
X120874000Y-117022500D01*
X120866000Y-117016500D01*
X120859000Y-117008500D01*
X120851000Y-117001500D01*
X120845000Y-116993500D01*
X120838000Y-116985500D01*
X120832000Y-116976500D01*
X120827000Y-116967500D01*
X120822000Y-116958500D01*
X120817000Y-116948500D01*
X120813000Y-116939500D01*
X120810000Y-116929500D01*
X120807000Y-116919500D01*
X120804000Y-116909500D01*
X120802000Y-116898500D01*
X120801000Y-116888500D01*
X120800000Y-116877500D01*
X120800000Y-116867500D01*
X120800000Y-113867500D01*
X122400000Y-113867500D01*
X122400000Y-116867500D01*
G37*
X135100000Y-116867500D02*
X135100000Y-116877500D01*
X135099000Y-116888500D01*
X135098000Y-116898500D01*
X135096000Y-116909500D01*
X135093000Y-116919500D01*
X135090000Y-116929500D01*
X135087000Y-116939500D01*
X135083000Y-116948500D01*
X135078000Y-116958500D01*
X135073000Y-116967500D01*
X135068000Y-116976500D01*
X135062000Y-116985500D01*
X135055000Y-116993500D01*
X135049000Y-117001500D01*
X135041000Y-117008500D01*
X135034000Y-117016500D01*
X135026000Y-117022500D01*
X135018000Y-117029500D01*
X135009000Y-117035500D01*
X135000000Y-117040500D01*
X134991000Y-117045500D01*
X134981000Y-117050500D01*
X134972000Y-117054500D01*
X134962000Y-117057500D01*
X134952000Y-117060500D01*
X134942000Y-117063500D01*
X134931000Y-117065500D01*
X134921000Y-117066500D01*
X134910000Y-117067500D01*
X134900000Y-117067500D01*
X133700000Y-117067500D01*
X133690000Y-117067500D01*
X133679000Y-117066500D01*
X133669000Y-117065500D01*
X133658000Y-117063500D01*
X133648000Y-117060500D01*
X133638000Y-117057500D01*
X133628000Y-117054500D01*
X133619000Y-117050500D01*
X133609000Y-117045500D01*
X133600000Y-117040500D01*
X133591000Y-117035500D01*
X133582000Y-117029500D01*
X133574000Y-117022500D01*
X133566000Y-117016500D01*
X133559000Y-117008500D01*
X133551000Y-117001500D01*
X133545000Y-116993500D01*
X133538000Y-116985500D01*
X133532000Y-116976500D01*
X133527000Y-116967500D01*
X133522000Y-116958500D01*
X133517000Y-116948500D01*
X133513000Y-116939500D01*
X133510000Y-116929500D01*
X133507000Y-116919500D01*
X133504000Y-116909500D01*
X133502000Y-116898500D01*
X133501000Y-116888500D01*
X133500000Y-116877500D01*
X133500000Y-116867500D01*
X133500000Y-113867500D01*
X135100000Y-113867500D01*
X135100000Y-116867500D01*
G36*
X135100000Y-116867500D02*
G01*
X135100000Y-116877500D01*
X135099000Y-116888500D01*
X135098000Y-116898500D01*
X135096000Y-116909500D01*
X135093000Y-116919500D01*
X135090000Y-116929500D01*
X135087000Y-116939500D01*
X135083000Y-116948500D01*
X135078000Y-116958500D01*
X135073000Y-116967500D01*
X135068000Y-116976500D01*
X135062000Y-116985500D01*
X135055000Y-116993500D01*
X135049000Y-117001500D01*
X135041000Y-117008500D01*
X135034000Y-117016500D01*
X135026000Y-117022500D01*
X135018000Y-117029500D01*
X135009000Y-117035500D01*
X135000000Y-117040500D01*
X134991000Y-117045500D01*
X134981000Y-117050500D01*
X134972000Y-117054500D01*
X134962000Y-117057500D01*
X134952000Y-117060500D01*
X134942000Y-117063500D01*
X134931000Y-117065500D01*
X134921000Y-117066500D01*
X134910000Y-117067500D01*
X134900000Y-117067500D01*
X133700000Y-117067500D01*
X133690000Y-117067500D01*
X133679000Y-117066500D01*
X133669000Y-117065500D01*
X133658000Y-117063500D01*
X133648000Y-117060500D01*
X133638000Y-117057500D01*
X133628000Y-117054500D01*
X133619000Y-117050500D01*
X133609000Y-117045500D01*
X133600000Y-117040500D01*
X133591000Y-117035500D01*
X133582000Y-117029500D01*
X133574000Y-117022500D01*
X133566000Y-117016500D01*
X133559000Y-117008500D01*
X133551000Y-117001500D01*
X133545000Y-116993500D01*
X133538000Y-116985500D01*
X133532000Y-116976500D01*
X133527000Y-116967500D01*
X133522000Y-116958500D01*
X133517000Y-116948500D01*
X133513000Y-116939500D01*
X133510000Y-116929500D01*
X133507000Y-116919500D01*
X133504000Y-116909500D01*
X133502000Y-116898500D01*
X133501000Y-116888500D01*
X133500000Y-116877500D01*
X133500000Y-116867500D01*
X133500000Y-113867500D01*
X135100000Y-113867500D01*
X135100000Y-116867500D01*
G37*
X147800000Y-116867500D02*
X147800000Y-116877500D01*
X147799000Y-116888500D01*
X147798000Y-116898500D01*
X147796000Y-116909500D01*
X147793000Y-116919500D01*
X147790000Y-116929500D01*
X147787000Y-116939500D01*
X147783000Y-116948500D01*
X147778000Y-116958500D01*
X147773000Y-116967500D01*
X147768000Y-116976500D01*
X147762000Y-116985500D01*
X147755000Y-116993500D01*
X147749000Y-117001500D01*
X147741000Y-117008500D01*
X147734000Y-117016500D01*
X147726000Y-117022500D01*
X147718000Y-117029500D01*
X147709000Y-117035500D01*
X147700000Y-117040500D01*
X147691000Y-117045500D01*
X147681000Y-117050500D01*
X147672000Y-117054500D01*
X147662000Y-117057500D01*
X147652000Y-117060500D01*
X147642000Y-117063500D01*
X147631000Y-117065500D01*
X147621000Y-117066500D01*
X147610000Y-117067500D01*
X147600000Y-117067500D01*
X146400000Y-117067500D01*
X146390000Y-117067500D01*
X146379000Y-117066500D01*
X146369000Y-117065500D01*
X146358000Y-117063500D01*
X146348000Y-117060500D01*
X146338000Y-117057500D01*
X146328000Y-117054500D01*
X146319000Y-117050500D01*
X146309000Y-117045500D01*
X146300000Y-117040500D01*
X146291000Y-117035500D01*
X146282000Y-117029500D01*
X146274000Y-117022500D01*
X146266000Y-117016500D01*
X146259000Y-117008500D01*
X146251000Y-117001500D01*
X146245000Y-116993500D01*
X146238000Y-116985500D01*
X146232000Y-116976500D01*
X146227000Y-116967500D01*
X146222000Y-116958500D01*
X146217000Y-116948500D01*
X146213000Y-116939500D01*
X146210000Y-116929500D01*
X146207000Y-116919500D01*
X146204000Y-116909500D01*
X146202000Y-116898500D01*
X146201000Y-116888500D01*
X146200000Y-116877500D01*
X146200000Y-116867500D01*
X146200000Y-113867500D01*
X147800000Y-113867500D01*
X147800000Y-116867500D01*
G36*
X147800000Y-116867500D02*
G01*
X147800000Y-116877500D01*
X147799000Y-116888500D01*
X147798000Y-116898500D01*
X147796000Y-116909500D01*
X147793000Y-116919500D01*
X147790000Y-116929500D01*
X147787000Y-116939500D01*
X147783000Y-116948500D01*
X147778000Y-116958500D01*
X147773000Y-116967500D01*
X147768000Y-116976500D01*
X147762000Y-116985500D01*
X147755000Y-116993500D01*
X147749000Y-117001500D01*
X147741000Y-117008500D01*
X147734000Y-117016500D01*
X147726000Y-117022500D01*
X147718000Y-117029500D01*
X147709000Y-117035500D01*
X147700000Y-117040500D01*
X147691000Y-117045500D01*
X147681000Y-117050500D01*
X147672000Y-117054500D01*
X147662000Y-117057500D01*
X147652000Y-117060500D01*
X147642000Y-117063500D01*
X147631000Y-117065500D01*
X147621000Y-117066500D01*
X147610000Y-117067500D01*
X147600000Y-117067500D01*
X146400000Y-117067500D01*
X146390000Y-117067500D01*
X146379000Y-117066500D01*
X146369000Y-117065500D01*
X146358000Y-117063500D01*
X146348000Y-117060500D01*
X146338000Y-117057500D01*
X146328000Y-117054500D01*
X146319000Y-117050500D01*
X146309000Y-117045500D01*
X146300000Y-117040500D01*
X146291000Y-117035500D01*
X146282000Y-117029500D01*
X146274000Y-117022500D01*
X146266000Y-117016500D01*
X146259000Y-117008500D01*
X146251000Y-117001500D01*
X146245000Y-116993500D01*
X146238000Y-116985500D01*
X146232000Y-116976500D01*
X146227000Y-116967500D01*
X146222000Y-116958500D01*
X146217000Y-116948500D01*
X146213000Y-116939500D01*
X146210000Y-116929500D01*
X146207000Y-116919500D01*
X146204000Y-116909500D01*
X146202000Y-116898500D01*
X146201000Y-116888500D01*
X146200000Y-116877500D01*
X146200000Y-116867500D01*
X146200000Y-113867500D01*
X147800000Y-113867500D01*
X147800000Y-116867500D01*
G37*
%TD*%
D11*
%TO.C,C6*%
X174990000Y-147705000D03*
X174990000Y-146155000D03*
%TD*%
D12*
%TO.C,C1*%
X184900000Y-126780000D03*
X183000000Y-126780000D03*
%TD*%
D13*
%TO.C,R2*%
X181896699Y-144980001D03*
X181896699Y-144480000D03*
X181896699Y-143980000D03*
X181896699Y-143479999D03*
X180463301Y-143479999D03*
X180463301Y-143980000D03*
X180463301Y-144480000D03*
X180463301Y-144980001D03*
%TD*%
D14*
%TO.C,FB1*%
X189035000Y-120490000D03*
X190610000Y-120490000D03*
%TD*%
D15*
%TO.C,U2*%
X103950000Y-127882500D03*
X103950000Y-122432500D03*
D16*
X106980000Y-127582500D03*
X106980000Y-122732500D03*
D17*
X133650000Y-124573400D03*
D18*
X133650000Y-122033400D03*
X133650000Y-119493400D03*
D19*
X106950000Y-125157500D03*
X103650000Y-124157500D03*
X103650000Y-126157500D03*
X111950000Y-127657500D03*
X114450000Y-127657500D03*
X116950000Y-127657500D03*
%TD*%
D20*
%TO.C,R1*%
X180100000Y-123450000D03*
X180100000Y-122430000D03*
%TD*%
D21*
%TO.C,CR1*%
X106330000Y-109570000D03*
X106330000Y-107525300D03*
%TD*%
D22*
%TO.C,U1*%
X182952200Y-120932199D03*
X182952200Y-121432200D03*
X182952200Y-121932200D03*
X182952200Y-122432201D03*
D23*
X183649999Y-123130000D03*
X184150000Y-123130000D03*
X184650000Y-123130000D03*
X185150001Y-123130000D03*
D22*
X185847800Y-122432201D03*
X185847800Y-121932200D03*
X185847800Y-121432200D03*
X185847800Y-120932199D03*
D23*
X185150001Y-120234400D03*
X184650000Y-120234400D03*
X184150000Y-120234400D03*
X183649999Y-120234400D03*
D24*
X184400000Y-121682200D03*
%TD*%
D25*
%TO.C,C2*%
X184940000Y-124900000D03*
X183390000Y-124900000D03*
%TD*%
D26*
%TO.C,C4*%
X190830000Y-124690000D03*
X190830000Y-125650000D03*
%TD*%
D27*
%TO.C,C5*%
X181910000Y-140820000D03*
X183810000Y-140820000D03*
%TD*%
D14*
%TO.C,FB2*%
X189055000Y-122970000D03*
X190630000Y-122970000D03*
%TD*%
D26*
%TO.C,C3*%
X190840000Y-117640000D03*
X190840000Y-118600000D03*
%TD*%
D28*
%TO.C,J2*%
X159850002Y-134366800D03*
X165550003Y-134366800D03*
D29*
X158250002Y-147516802D03*
X171400004Y-148516802D03*
D30*
X166740003Y-144916802D03*
X165639929Y-144516803D03*
X164540003Y-144916802D03*
X163440002Y-145116802D03*
X162340002Y-144916802D03*
X161240002Y-145116802D03*
X160140001Y-144916802D03*
X159040001Y-144916802D03*
%TD*%
M02*
