%TF.GenerationSoftware,KiCad,Pcbnew,7.0.11-2.fc38*%
%TF.CreationDate,2024-04-10T19:42:05+01:00*%
%TF.ProjectId,music-box,6d757369-632d-4626-9f78-2e6b69636164,rev?*%
%TF.SameCoordinates,Original*%
%TF.FileFunction,Legend,Bot*%
%TF.FilePolarity,Positive*%
%FSLAX46Y46*%
G04 Gerber Fmt 4.6, Leading zero omitted, Abs format (unit mm)*
G04 Created by KiCad (PCBNEW 7.0.11-2.fc38) date 2024-04-10 19:42:05*
%MOMM*%
%LPD*%
G01*
G04 APERTURE LIST*
%ADD10C,0.150000*%
G04 APERTURE END LIST*
D10*
X193483220Y-103319819D02*
X193483220Y-102319819D01*
X193483220Y-102319819D02*
X193149887Y-103034104D01*
X193149887Y-103034104D02*
X192816554Y-102319819D01*
X192816554Y-102319819D02*
X192816554Y-103319819D01*
X191911792Y-102653152D02*
X191911792Y-103319819D01*
X192340363Y-102653152D02*
X192340363Y-103176961D01*
X192340363Y-103176961D02*
X192292744Y-103272200D01*
X192292744Y-103272200D02*
X192197506Y-103319819D01*
X192197506Y-103319819D02*
X192054649Y-103319819D01*
X192054649Y-103319819D02*
X191959411Y-103272200D01*
X191959411Y-103272200D02*
X191911792Y-103224580D01*
X191483220Y-103272200D02*
X191387982Y-103319819D01*
X191387982Y-103319819D02*
X191197506Y-103319819D01*
X191197506Y-103319819D02*
X191102268Y-103272200D01*
X191102268Y-103272200D02*
X191054649Y-103176961D01*
X191054649Y-103176961D02*
X191054649Y-103129342D01*
X191054649Y-103129342D02*
X191102268Y-103034104D01*
X191102268Y-103034104D02*
X191197506Y-102986485D01*
X191197506Y-102986485D02*
X191340363Y-102986485D01*
X191340363Y-102986485D02*
X191435601Y-102938866D01*
X191435601Y-102938866D02*
X191483220Y-102843628D01*
X191483220Y-102843628D02*
X191483220Y-102796009D01*
X191483220Y-102796009D02*
X191435601Y-102700771D01*
X191435601Y-102700771D02*
X191340363Y-102653152D01*
X191340363Y-102653152D02*
X191197506Y-102653152D01*
X191197506Y-102653152D02*
X191102268Y-102700771D01*
X190626077Y-103319819D02*
X190626077Y-102653152D01*
X190626077Y-102319819D02*
X190673696Y-102367438D01*
X190673696Y-102367438D02*
X190626077Y-102415057D01*
X190626077Y-102415057D02*
X190578458Y-102367438D01*
X190578458Y-102367438D02*
X190626077Y-102319819D01*
X190626077Y-102319819D02*
X190626077Y-102415057D01*
X189721316Y-103272200D02*
X189816554Y-103319819D01*
X189816554Y-103319819D02*
X190007030Y-103319819D01*
X190007030Y-103319819D02*
X190102268Y-103272200D01*
X190102268Y-103272200D02*
X190149887Y-103224580D01*
X190149887Y-103224580D02*
X190197506Y-103129342D01*
X190197506Y-103129342D02*
X190197506Y-102843628D01*
X190197506Y-102843628D02*
X190149887Y-102748390D01*
X190149887Y-102748390D02*
X190102268Y-102700771D01*
X190102268Y-102700771D02*
X190007030Y-102653152D01*
X190007030Y-102653152D02*
X189816554Y-102653152D01*
X189816554Y-102653152D02*
X189721316Y-102700771D01*
X188197506Y-102796009D02*
X188054649Y-102843628D01*
X188054649Y-102843628D02*
X188007030Y-102891247D01*
X188007030Y-102891247D02*
X187959411Y-102986485D01*
X187959411Y-102986485D02*
X187959411Y-103129342D01*
X187959411Y-103129342D02*
X188007030Y-103224580D01*
X188007030Y-103224580D02*
X188054649Y-103272200D01*
X188054649Y-103272200D02*
X188149887Y-103319819D01*
X188149887Y-103319819D02*
X188530839Y-103319819D01*
X188530839Y-103319819D02*
X188530839Y-102319819D01*
X188530839Y-102319819D02*
X188197506Y-102319819D01*
X188197506Y-102319819D02*
X188102268Y-102367438D01*
X188102268Y-102367438D02*
X188054649Y-102415057D01*
X188054649Y-102415057D02*
X188007030Y-102510295D01*
X188007030Y-102510295D02*
X188007030Y-102605533D01*
X188007030Y-102605533D02*
X188054649Y-102700771D01*
X188054649Y-102700771D02*
X188102268Y-102748390D01*
X188102268Y-102748390D02*
X188197506Y-102796009D01*
X188197506Y-102796009D02*
X188530839Y-102796009D01*
X187387982Y-103319819D02*
X187483220Y-103272200D01*
X187483220Y-103272200D02*
X187530839Y-103224580D01*
X187530839Y-103224580D02*
X187578458Y-103129342D01*
X187578458Y-103129342D02*
X187578458Y-102843628D01*
X187578458Y-102843628D02*
X187530839Y-102748390D01*
X187530839Y-102748390D02*
X187483220Y-102700771D01*
X187483220Y-102700771D02*
X187387982Y-102653152D01*
X187387982Y-102653152D02*
X187245125Y-102653152D01*
X187245125Y-102653152D02*
X187149887Y-102700771D01*
X187149887Y-102700771D02*
X187102268Y-102748390D01*
X187102268Y-102748390D02*
X187054649Y-102843628D01*
X187054649Y-102843628D02*
X187054649Y-103129342D01*
X187054649Y-103129342D02*
X187102268Y-103224580D01*
X187102268Y-103224580D02*
X187149887Y-103272200D01*
X187149887Y-103272200D02*
X187245125Y-103319819D01*
X187245125Y-103319819D02*
X187387982Y-103319819D01*
X186721315Y-103319819D02*
X186197506Y-102653152D01*
X186721315Y-102653152D02*
X186197506Y-103319819D01*
X185149886Y-102653152D02*
X184911791Y-103319819D01*
X184911791Y-103319819D02*
X184673696Y-102653152D01*
X184387981Y-102319819D02*
X183768934Y-102319819D01*
X183768934Y-102319819D02*
X184102267Y-102700771D01*
X184102267Y-102700771D02*
X183959410Y-102700771D01*
X183959410Y-102700771D02*
X183864172Y-102748390D01*
X183864172Y-102748390D02*
X183816553Y-102796009D01*
X183816553Y-102796009D02*
X183768934Y-102891247D01*
X183768934Y-102891247D02*
X183768934Y-103129342D01*
X183768934Y-103129342D02*
X183816553Y-103224580D01*
X183816553Y-103224580D02*
X183864172Y-103272200D01*
X183864172Y-103272200D02*
X183959410Y-103319819D01*
X183959410Y-103319819D02*
X184245124Y-103319819D01*
X184245124Y-103319819D02*
X184340362Y-103272200D01*
X184340362Y-103272200D02*
X184387981Y-103224580D01*
X183340362Y-103224580D02*
X183292743Y-103272200D01*
X183292743Y-103272200D02*
X183340362Y-103319819D01*
X183340362Y-103319819D02*
X183387981Y-103272200D01*
X183387981Y-103272200D02*
X183340362Y-103224580D01*
X183340362Y-103224580D02*
X183340362Y-103319819D01*
X182673696Y-102319819D02*
X182578458Y-102319819D01*
X182578458Y-102319819D02*
X182483220Y-102367438D01*
X182483220Y-102367438D02*
X182435601Y-102415057D01*
X182435601Y-102415057D02*
X182387982Y-102510295D01*
X182387982Y-102510295D02*
X182340363Y-102700771D01*
X182340363Y-102700771D02*
X182340363Y-102938866D01*
X182340363Y-102938866D02*
X182387982Y-103129342D01*
X182387982Y-103129342D02*
X182435601Y-103224580D01*
X182435601Y-103224580D02*
X182483220Y-103272200D01*
X182483220Y-103272200D02*
X182578458Y-103319819D01*
X182578458Y-103319819D02*
X182673696Y-103319819D01*
X182673696Y-103319819D02*
X182768934Y-103272200D01*
X182768934Y-103272200D02*
X182816553Y-103224580D01*
X182816553Y-103224580D02*
X182864172Y-103129342D01*
X182864172Y-103129342D02*
X182911791Y-102938866D01*
X182911791Y-102938866D02*
X182911791Y-102700771D01*
X182911791Y-102700771D02*
X182864172Y-102510295D01*
X182864172Y-102510295D02*
X182816553Y-102415057D01*
X182816553Y-102415057D02*
X182768934Y-102367438D01*
X182768934Y-102367438D02*
X182673696Y-102319819D01*
X181197505Y-102415057D02*
X181149886Y-102367438D01*
X181149886Y-102367438D02*
X181054648Y-102319819D01*
X181054648Y-102319819D02*
X180816553Y-102319819D01*
X180816553Y-102319819D02*
X180721315Y-102367438D01*
X180721315Y-102367438D02*
X180673696Y-102415057D01*
X180673696Y-102415057D02*
X180626077Y-102510295D01*
X180626077Y-102510295D02*
X180626077Y-102605533D01*
X180626077Y-102605533D02*
X180673696Y-102748390D01*
X180673696Y-102748390D02*
X181245124Y-103319819D01*
X181245124Y-103319819D02*
X180626077Y-103319819D01*
X180007029Y-102319819D02*
X179911791Y-102319819D01*
X179911791Y-102319819D02*
X179816553Y-102367438D01*
X179816553Y-102367438D02*
X179768934Y-102415057D01*
X179768934Y-102415057D02*
X179721315Y-102510295D01*
X179721315Y-102510295D02*
X179673696Y-102700771D01*
X179673696Y-102700771D02*
X179673696Y-102938866D01*
X179673696Y-102938866D02*
X179721315Y-103129342D01*
X179721315Y-103129342D02*
X179768934Y-103224580D01*
X179768934Y-103224580D02*
X179816553Y-103272200D01*
X179816553Y-103272200D02*
X179911791Y-103319819D01*
X179911791Y-103319819D02*
X180007029Y-103319819D01*
X180007029Y-103319819D02*
X180102267Y-103272200D01*
X180102267Y-103272200D02*
X180149886Y-103224580D01*
X180149886Y-103224580D02*
X180197505Y-103129342D01*
X180197505Y-103129342D02*
X180245124Y-102938866D01*
X180245124Y-102938866D02*
X180245124Y-102700771D01*
X180245124Y-102700771D02*
X180197505Y-102510295D01*
X180197505Y-102510295D02*
X180149886Y-102415057D01*
X180149886Y-102415057D02*
X180102267Y-102367438D01*
X180102267Y-102367438D02*
X180007029Y-102319819D01*
X179292743Y-102415057D02*
X179245124Y-102367438D01*
X179245124Y-102367438D02*
X179149886Y-102319819D01*
X179149886Y-102319819D02*
X178911791Y-102319819D01*
X178911791Y-102319819D02*
X178816553Y-102367438D01*
X178816553Y-102367438D02*
X178768934Y-102415057D01*
X178768934Y-102415057D02*
X178721315Y-102510295D01*
X178721315Y-102510295D02*
X178721315Y-102605533D01*
X178721315Y-102605533D02*
X178768934Y-102748390D01*
X178768934Y-102748390D02*
X179340362Y-103319819D01*
X179340362Y-103319819D02*
X178721315Y-103319819D01*
X177864172Y-102653152D02*
X177864172Y-103319819D01*
X178102267Y-102272200D02*
X178340362Y-102986485D01*
X178340362Y-102986485D02*
X177721315Y-102986485D01*
X177149886Y-102319819D02*
X177054648Y-102319819D01*
X177054648Y-102319819D02*
X176959410Y-102367438D01*
X176959410Y-102367438D02*
X176911791Y-102415057D01*
X176911791Y-102415057D02*
X176864172Y-102510295D01*
X176864172Y-102510295D02*
X176816553Y-102700771D01*
X176816553Y-102700771D02*
X176816553Y-102938866D01*
X176816553Y-102938866D02*
X176864172Y-103129342D01*
X176864172Y-103129342D02*
X176911791Y-103224580D01*
X176911791Y-103224580D02*
X176959410Y-103272200D01*
X176959410Y-103272200D02*
X177054648Y-103319819D01*
X177054648Y-103319819D02*
X177149886Y-103319819D01*
X177149886Y-103319819D02*
X177245124Y-103272200D01*
X177245124Y-103272200D02*
X177292743Y-103224580D01*
X177292743Y-103224580D02*
X177340362Y-103129342D01*
X177340362Y-103129342D02*
X177387981Y-102938866D01*
X177387981Y-102938866D02*
X177387981Y-102700771D01*
X177387981Y-102700771D02*
X177340362Y-102510295D01*
X177340362Y-102510295D02*
X177292743Y-102415057D01*
X177292743Y-102415057D02*
X177245124Y-102367438D01*
X177245124Y-102367438D02*
X177149886Y-102319819D01*
X176483219Y-102319819D02*
X175864172Y-102319819D01*
X175864172Y-102319819D02*
X176197505Y-102700771D01*
X176197505Y-102700771D02*
X176054648Y-102700771D01*
X176054648Y-102700771D02*
X175959410Y-102748390D01*
X175959410Y-102748390D02*
X175911791Y-102796009D01*
X175911791Y-102796009D02*
X175864172Y-102891247D01*
X175864172Y-102891247D02*
X175864172Y-103129342D01*
X175864172Y-103129342D02*
X175911791Y-103224580D01*
X175911791Y-103224580D02*
X175959410Y-103272200D01*
X175959410Y-103272200D02*
X176054648Y-103319819D01*
X176054648Y-103319819D02*
X176340362Y-103319819D01*
X176340362Y-103319819D02*
X176435600Y-103272200D01*
X176435600Y-103272200D02*
X176483219Y-103224580D01*
X175483219Y-102415057D02*
X175435600Y-102367438D01*
X175435600Y-102367438D02*
X175340362Y-102319819D01*
X175340362Y-102319819D02*
X175102267Y-102319819D01*
X175102267Y-102319819D02*
X175007029Y-102367438D01*
X175007029Y-102367438D02*
X174959410Y-102415057D01*
X174959410Y-102415057D02*
X174911791Y-102510295D01*
X174911791Y-102510295D02*
X174911791Y-102605533D01*
X174911791Y-102605533D02*
X174959410Y-102748390D01*
X174959410Y-102748390D02*
X175530838Y-103319819D01*
X175530838Y-103319819D02*
X174911791Y-103319819D01*
X174007029Y-102319819D02*
X174483219Y-102319819D01*
X174483219Y-102319819D02*
X174530838Y-102796009D01*
X174530838Y-102796009D02*
X174483219Y-102748390D01*
X174483219Y-102748390D02*
X174387981Y-102700771D01*
X174387981Y-102700771D02*
X174149886Y-102700771D01*
X174149886Y-102700771D02*
X174054648Y-102748390D01*
X174054648Y-102748390D02*
X174007029Y-102796009D01*
X174007029Y-102796009D02*
X173959410Y-102891247D01*
X173959410Y-102891247D02*
X173959410Y-103129342D01*
X173959410Y-103129342D02*
X174007029Y-103224580D01*
X174007029Y-103224580D02*
X174054648Y-103272200D01*
X174054648Y-103272200D02*
X174149886Y-103319819D01*
X174149886Y-103319819D02*
X174387981Y-103319819D01*
X174387981Y-103319819D02*
X174483219Y-103272200D01*
X174483219Y-103272200D02*
X174530838Y-103224580D01*
M02*
