%TF.GenerationSoftware,KiCad,Pcbnew,7.0.11-2.fc38*%
%TF.CreationDate,2024-04-10T19:42:05+01:00*%
%TF.ProjectId,music-box,6d757369-632d-4626-9f78-2e6b69636164,rev?*%
%TF.SameCoordinates,Original*%
%TF.FileFunction,Legend,Top*%
%TF.FilePolarity,Positive*%
%FSLAX46Y46*%
G04 Gerber Fmt 4.6, Leading zero omitted, Abs format (unit mm)*
G04 Created by KiCad (PCBNEW 7.0.11-2.fc38) date 2024-04-10 19:42:05*
%MOMM*%
%LPD*%
G01*
G04 APERTURE LIST*
%ADD10C,0.150000*%
%ADD11C,0.127000*%
%ADD12C,0.200000*%
%ADD13C,0.120000*%
%ADD14C,0.152400*%
G04 APERTURE END LIST*
D10*
X138942200Y-108146077D02*
X138989819Y-108003220D01*
X138989819Y-108003220D02*
X138989819Y-107765125D01*
X138989819Y-107765125D02*
X138942200Y-107669887D01*
X138942200Y-107669887D02*
X138894580Y-107622268D01*
X138894580Y-107622268D02*
X138799342Y-107574649D01*
X138799342Y-107574649D02*
X138704104Y-107574649D01*
X138704104Y-107574649D02*
X138608866Y-107622268D01*
X138608866Y-107622268D02*
X138561247Y-107669887D01*
X138561247Y-107669887D02*
X138513628Y-107765125D01*
X138513628Y-107765125D02*
X138466009Y-107955601D01*
X138466009Y-107955601D02*
X138418390Y-108050839D01*
X138418390Y-108050839D02*
X138370771Y-108098458D01*
X138370771Y-108098458D02*
X138275533Y-108146077D01*
X138275533Y-108146077D02*
X138180295Y-108146077D01*
X138180295Y-108146077D02*
X138085057Y-108098458D01*
X138085057Y-108098458D02*
X138037438Y-108050839D01*
X138037438Y-108050839D02*
X137989819Y-107955601D01*
X137989819Y-107955601D02*
X137989819Y-107717506D01*
X137989819Y-107717506D02*
X138037438Y-107574649D01*
X138989819Y-107146077D02*
X137989819Y-107146077D01*
X137989819Y-107146077D02*
X137989819Y-106907982D01*
X137989819Y-106907982D02*
X138037438Y-106765125D01*
X138037438Y-106765125D02*
X138132676Y-106669887D01*
X138132676Y-106669887D02*
X138227914Y-106622268D01*
X138227914Y-106622268D02*
X138418390Y-106574649D01*
X138418390Y-106574649D02*
X138561247Y-106574649D01*
X138561247Y-106574649D02*
X138751723Y-106622268D01*
X138751723Y-106622268D02*
X138846961Y-106669887D01*
X138846961Y-106669887D02*
X138942200Y-106765125D01*
X138942200Y-106765125D02*
X138989819Y-106907982D01*
X138989819Y-106907982D02*
X138989819Y-107146077D01*
X138704104Y-106193696D02*
X138704104Y-105717506D01*
X138989819Y-106288934D02*
X137989819Y-105955601D01*
X137989819Y-105955601D02*
X138989819Y-105622268D01*
X136982200Y-108288934D02*
X137029819Y-108146077D01*
X137029819Y-108146077D02*
X137029819Y-107907982D01*
X137029819Y-107907982D02*
X136982200Y-107812744D01*
X136982200Y-107812744D02*
X136934580Y-107765125D01*
X136934580Y-107765125D02*
X136839342Y-107717506D01*
X136839342Y-107717506D02*
X136744104Y-107717506D01*
X136744104Y-107717506D02*
X136648866Y-107765125D01*
X136648866Y-107765125D02*
X136601247Y-107812744D01*
X136601247Y-107812744D02*
X136553628Y-107907982D01*
X136553628Y-107907982D02*
X136506009Y-108098458D01*
X136506009Y-108098458D02*
X136458390Y-108193696D01*
X136458390Y-108193696D02*
X136410771Y-108241315D01*
X136410771Y-108241315D02*
X136315533Y-108288934D01*
X136315533Y-108288934D02*
X136220295Y-108288934D01*
X136220295Y-108288934D02*
X136125057Y-108241315D01*
X136125057Y-108241315D02*
X136077438Y-108193696D01*
X136077438Y-108193696D02*
X136029819Y-108098458D01*
X136029819Y-108098458D02*
X136029819Y-107860363D01*
X136029819Y-107860363D02*
X136077438Y-107717506D01*
X136934580Y-106717506D02*
X136982200Y-106765125D01*
X136982200Y-106765125D02*
X137029819Y-106907982D01*
X137029819Y-106907982D02*
X137029819Y-107003220D01*
X137029819Y-107003220D02*
X136982200Y-107146077D01*
X136982200Y-107146077D02*
X136886961Y-107241315D01*
X136886961Y-107241315D02*
X136791723Y-107288934D01*
X136791723Y-107288934D02*
X136601247Y-107336553D01*
X136601247Y-107336553D02*
X136458390Y-107336553D01*
X136458390Y-107336553D02*
X136267914Y-107288934D01*
X136267914Y-107288934D02*
X136172676Y-107241315D01*
X136172676Y-107241315D02*
X136077438Y-107146077D01*
X136077438Y-107146077D02*
X136029819Y-107003220D01*
X136029819Y-107003220D02*
X136029819Y-106907982D01*
X136029819Y-106907982D02*
X136077438Y-106765125D01*
X136077438Y-106765125D02*
X136125057Y-106717506D01*
X137029819Y-106288934D02*
X136029819Y-106288934D01*
X137029819Y-105717506D02*
X136458390Y-106146077D01*
X136029819Y-105717506D02*
X136601247Y-106288934D01*
X141269819Y-107336553D02*
X140269819Y-107336553D01*
X140269819Y-107336553D02*
X141269819Y-106765125D01*
X141269819Y-106765125D02*
X140269819Y-106765125D01*
X141174580Y-105717506D02*
X141222200Y-105765125D01*
X141222200Y-105765125D02*
X141269819Y-105907982D01*
X141269819Y-105907982D02*
X141269819Y-106003220D01*
X141269819Y-106003220D02*
X141222200Y-106146077D01*
X141222200Y-106146077D02*
X141126961Y-106241315D01*
X141126961Y-106241315D02*
X141031723Y-106288934D01*
X141031723Y-106288934D02*
X140841247Y-106336553D01*
X140841247Y-106336553D02*
X140698390Y-106336553D01*
X140698390Y-106336553D02*
X140507914Y-106288934D01*
X140507914Y-106288934D02*
X140412676Y-106241315D01*
X140412676Y-106241315D02*
X140317438Y-106146077D01*
X140317438Y-106146077D02*
X140269819Y-106003220D01*
X140269819Y-106003220D02*
X140269819Y-105907982D01*
X140269819Y-105907982D02*
X140317438Y-105765125D01*
X140317438Y-105765125D02*
X140365057Y-105717506D01*
X125779819Y-108288934D02*
X126779819Y-107955601D01*
X126779819Y-107955601D02*
X125779819Y-107622268D01*
X126779819Y-107288934D02*
X125779819Y-107288934D01*
X125779819Y-107288934D02*
X125779819Y-107050839D01*
X125779819Y-107050839D02*
X125827438Y-106907982D01*
X125827438Y-106907982D02*
X125922676Y-106812744D01*
X125922676Y-106812744D02*
X126017914Y-106765125D01*
X126017914Y-106765125D02*
X126208390Y-106717506D01*
X126208390Y-106717506D02*
X126351247Y-106717506D01*
X126351247Y-106717506D02*
X126541723Y-106765125D01*
X126541723Y-106765125D02*
X126636961Y-106812744D01*
X126636961Y-106812744D02*
X126732200Y-106907982D01*
X126732200Y-106907982D02*
X126779819Y-107050839D01*
X126779819Y-107050839D02*
X126779819Y-107288934D01*
X126779819Y-106288934D02*
X125779819Y-106288934D01*
X125779819Y-106288934D02*
X125779819Y-106050839D01*
X125779819Y-106050839D02*
X125827438Y-105907982D01*
X125827438Y-105907982D02*
X125922676Y-105812744D01*
X125922676Y-105812744D02*
X126017914Y-105765125D01*
X126017914Y-105765125D02*
X126208390Y-105717506D01*
X126208390Y-105717506D02*
X126351247Y-105717506D01*
X126351247Y-105717506D02*
X126541723Y-105765125D01*
X126541723Y-105765125D02*
X126636961Y-105812744D01*
X126636961Y-105812744D02*
X126732200Y-105907982D01*
X126732200Y-105907982D02*
X126779819Y-106050839D01*
X126779819Y-106050839D02*
X126779819Y-106288934D01*
X110166779Y-107019819D02*
X110166779Y-106019819D01*
X110166779Y-106019819D02*
X110547731Y-106019819D01*
X110547731Y-106019819D02*
X110642969Y-106067438D01*
X110642969Y-106067438D02*
X110690588Y-106115057D01*
X110690588Y-106115057D02*
X110738207Y-106210295D01*
X110738207Y-106210295D02*
X110738207Y-106353152D01*
X110738207Y-106353152D02*
X110690588Y-106448390D01*
X110690588Y-106448390D02*
X110642969Y-106496009D01*
X110642969Y-106496009D02*
X110547731Y-106543628D01*
X110547731Y-106543628D02*
X110166779Y-106543628D01*
X111071541Y-106019819D02*
X111309636Y-107019819D01*
X111309636Y-107019819D02*
X111500112Y-106305533D01*
X111500112Y-106305533D02*
X111690588Y-107019819D01*
X111690588Y-107019819D02*
X111928684Y-106019819D01*
X112881064Y-107019819D02*
X112547731Y-106543628D01*
X112309636Y-107019819D02*
X112309636Y-106019819D01*
X112309636Y-106019819D02*
X112690588Y-106019819D01*
X112690588Y-106019819D02*
X112785826Y-106067438D01*
X112785826Y-106067438D02*
X112833445Y-106115057D01*
X112833445Y-106115057D02*
X112881064Y-106210295D01*
X112881064Y-106210295D02*
X112881064Y-106353152D01*
X112881064Y-106353152D02*
X112833445Y-106448390D01*
X112833445Y-106448390D02*
X112785826Y-106496009D01*
X112785826Y-106496009D02*
X112690588Y-106543628D01*
X112690588Y-106543628D02*
X112309636Y-106543628D01*
X113642969Y-106496009D02*
X113785826Y-106543628D01*
X113785826Y-106543628D02*
X113833445Y-106591247D01*
X113833445Y-106591247D02*
X113881064Y-106686485D01*
X113881064Y-106686485D02*
X113881064Y-106829342D01*
X113881064Y-106829342D02*
X113833445Y-106924580D01*
X113833445Y-106924580D02*
X113785826Y-106972200D01*
X113785826Y-106972200D02*
X113690588Y-107019819D01*
X113690588Y-107019819D02*
X113309636Y-107019819D01*
X113309636Y-107019819D02*
X113309636Y-106019819D01*
X113309636Y-106019819D02*
X113642969Y-106019819D01*
X113642969Y-106019819D02*
X113738207Y-106067438D01*
X113738207Y-106067438D02*
X113785826Y-106115057D01*
X113785826Y-106115057D02*
X113833445Y-106210295D01*
X113833445Y-106210295D02*
X113833445Y-106305533D01*
X113833445Y-106305533D02*
X113785826Y-106400771D01*
X113785826Y-106400771D02*
X113738207Y-106448390D01*
X113738207Y-106448390D02*
X113642969Y-106496009D01*
X113642969Y-106496009D02*
X113309636Y-106496009D01*
X114166779Y-106019819D02*
X114738207Y-106019819D01*
X114452493Y-107019819D02*
X114452493Y-106019819D01*
X115071541Y-107019819D02*
X115071541Y-106019819D01*
X115071541Y-106019819D02*
X115642969Y-107019819D01*
X115642969Y-107019819D02*
X115642969Y-106019819D01*
X117516779Y-106608866D02*
X118278684Y-106608866D01*
X117897731Y-106989819D02*
X117897731Y-106227914D01*
X118754874Y-106989819D02*
X118754874Y-105989819D01*
X118754874Y-105989819D02*
X119135826Y-105989819D01*
X119135826Y-105989819D02*
X119231064Y-106037438D01*
X119231064Y-106037438D02*
X119278683Y-106085057D01*
X119278683Y-106085057D02*
X119326302Y-106180295D01*
X119326302Y-106180295D02*
X119326302Y-106323152D01*
X119326302Y-106323152D02*
X119278683Y-106418390D01*
X119278683Y-106418390D02*
X119231064Y-106466009D01*
X119231064Y-106466009D02*
X119135826Y-106513628D01*
X119135826Y-106513628D02*
X118754874Y-106513628D01*
X119659636Y-105989819D02*
X119897731Y-106989819D01*
X119897731Y-106989819D02*
X120088207Y-106275533D01*
X120088207Y-106275533D02*
X120278683Y-106989819D01*
X120278683Y-106989819D02*
X120516779Y-105989819D01*
X121469159Y-106989819D02*
X121135826Y-106513628D01*
X120897731Y-106989819D02*
X120897731Y-105989819D01*
X120897731Y-105989819D02*
X121278683Y-105989819D01*
X121278683Y-105989819D02*
X121373921Y-106037438D01*
X121373921Y-106037438D02*
X121421540Y-106085057D01*
X121421540Y-106085057D02*
X121469159Y-106180295D01*
X121469159Y-106180295D02*
X121469159Y-106323152D01*
X121469159Y-106323152D02*
X121421540Y-106418390D01*
X121421540Y-106418390D02*
X121373921Y-106466009D01*
X121373921Y-106466009D02*
X121278683Y-106513628D01*
X121278683Y-106513628D02*
X120897731Y-106513628D01*
X121897731Y-106608866D02*
X122659636Y-106608866D01*
X192858866Y-124193220D02*
X192858866Y-123431316D01*
X193239819Y-123812268D02*
X192477914Y-123812268D01*
X193192200Y-123002744D02*
X193239819Y-122859887D01*
X193239819Y-122859887D02*
X193239819Y-122621792D01*
X193239819Y-122621792D02*
X193192200Y-122526554D01*
X193192200Y-122526554D02*
X193144580Y-122478935D01*
X193144580Y-122478935D02*
X193049342Y-122431316D01*
X193049342Y-122431316D02*
X192954104Y-122431316D01*
X192954104Y-122431316D02*
X192858866Y-122478935D01*
X192858866Y-122478935D02*
X192811247Y-122526554D01*
X192811247Y-122526554D02*
X192763628Y-122621792D01*
X192763628Y-122621792D02*
X192716009Y-122812268D01*
X192716009Y-122812268D02*
X192668390Y-122907506D01*
X192668390Y-122907506D02*
X192620771Y-122955125D01*
X192620771Y-122955125D02*
X192525533Y-123002744D01*
X192525533Y-123002744D02*
X192430295Y-123002744D01*
X192430295Y-123002744D02*
X192335057Y-122955125D01*
X192335057Y-122955125D02*
X192287438Y-122907506D01*
X192287438Y-122907506D02*
X192239819Y-122812268D01*
X192239819Y-122812268D02*
X192239819Y-122574173D01*
X192239819Y-122574173D02*
X192287438Y-122431316D01*
X193239819Y-122002744D02*
X192239819Y-122002744D01*
X192239819Y-122002744D02*
X192239819Y-121621792D01*
X192239819Y-121621792D02*
X192287438Y-121526554D01*
X192287438Y-121526554D02*
X192335057Y-121478935D01*
X192335057Y-121478935D02*
X192430295Y-121431316D01*
X192430295Y-121431316D02*
X192573152Y-121431316D01*
X192573152Y-121431316D02*
X192668390Y-121478935D01*
X192668390Y-121478935D02*
X192716009Y-121526554D01*
X192716009Y-121526554D02*
X192763628Y-121621792D01*
X192763628Y-121621792D02*
X192763628Y-122002744D01*
X193239819Y-121002744D02*
X192239819Y-121002744D01*
X193239819Y-120431316D02*
X192668390Y-120859887D01*
X192239819Y-120431316D02*
X192811247Y-121002744D01*
X192858866Y-120002744D02*
X192858866Y-119240840D01*
X133009819Y-110943220D02*
X132009819Y-110943220D01*
X132009819Y-110943220D02*
X132724104Y-110609887D01*
X132724104Y-110609887D02*
X132009819Y-110276554D01*
X132009819Y-110276554D02*
X133009819Y-110276554D01*
X133009819Y-109800363D02*
X132009819Y-109800363D01*
X132962200Y-109371792D02*
X133009819Y-109228935D01*
X133009819Y-109228935D02*
X133009819Y-108990840D01*
X133009819Y-108990840D02*
X132962200Y-108895602D01*
X132962200Y-108895602D02*
X132914580Y-108847983D01*
X132914580Y-108847983D02*
X132819342Y-108800364D01*
X132819342Y-108800364D02*
X132724104Y-108800364D01*
X132724104Y-108800364D02*
X132628866Y-108847983D01*
X132628866Y-108847983D02*
X132581247Y-108895602D01*
X132581247Y-108895602D02*
X132533628Y-108990840D01*
X132533628Y-108990840D02*
X132486009Y-109181316D01*
X132486009Y-109181316D02*
X132438390Y-109276554D01*
X132438390Y-109276554D02*
X132390771Y-109324173D01*
X132390771Y-109324173D02*
X132295533Y-109371792D01*
X132295533Y-109371792D02*
X132200295Y-109371792D01*
X132200295Y-109371792D02*
X132105057Y-109324173D01*
X132105057Y-109324173D02*
X132057438Y-109276554D01*
X132057438Y-109276554D02*
X132009819Y-109181316D01*
X132009819Y-109181316D02*
X132009819Y-108943221D01*
X132009819Y-108943221D02*
X132057438Y-108800364D01*
X132009819Y-108181316D02*
X132009819Y-107990840D01*
X132009819Y-107990840D02*
X132057438Y-107895602D01*
X132057438Y-107895602D02*
X132152676Y-107800364D01*
X132152676Y-107800364D02*
X132343152Y-107752745D01*
X132343152Y-107752745D02*
X132676485Y-107752745D01*
X132676485Y-107752745D02*
X132866961Y-107800364D01*
X132866961Y-107800364D02*
X132962200Y-107895602D01*
X132962200Y-107895602D02*
X133009819Y-107990840D01*
X133009819Y-107990840D02*
X133009819Y-108181316D01*
X133009819Y-108181316D02*
X132962200Y-108276554D01*
X132962200Y-108276554D02*
X132866961Y-108371792D01*
X132866961Y-108371792D02*
X132676485Y-108419411D01*
X132676485Y-108419411D02*
X132343152Y-108419411D01*
X132343152Y-108419411D02*
X132152676Y-108371792D01*
X132152676Y-108371792D02*
X132057438Y-108276554D01*
X132057438Y-108276554D02*
X132009819Y-108181316D01*
X135029819Y-108907981D02*
X134029819Y-108907981D01*
X134029819Y-108907981D02*
X134744104Y-108574648D01*
X134744104Y-108574648D02*
X134029819Y-108241315D01*
X134029819Y-108241315D02*
X135029819Y-108241315D01*
X134029819Y-107574648D02*
X134029819Y-107384172D01*
X134029819Y-107384172D02*
X134077438Y-107288934D01*
X134077438Y-107288934D02*
X134172676Y-107193696D01*
X134172676Y-107193696D02*
X134363152Y-107146077D01*
X134363152Y-107146077D02*
X134696485Y-107146077D01*
X134696485Y-107146077D02*
X134886961Y-107193696D01*
X134886961Y-107193696D02*
X134982200Y-107288934D01*
X134982200Y-107288934D02*
X135029819Y-107384172D01*
X135029819Y-107384172D02*
X135029819Y-107574648D01*
X135029819Y-107574648D02*
X134982200Y-107669886D01*
X134982200Y-107669886D02*
X134886961Y-107765124D01*
X134886961Y-107765124D02*
X134696485Y-107812743D01*
X134696485Y-107812743D02*
X134363152Y-107812743D01*
X134363152Y-107812743D02*
X134172676Y-107765124D01*
X134172676Y-107765124D02*
X134077438Y-107669886D01*
X134077438Y-107669886D02*
X134029819Y-107574648D01*
X134982200Y-106765124D02*
X135029819Y-106622267D01*
X135029819Y-106622267D02*
X135029819Y-106384172D01*
X135029819Y-106384172D02*
X134982200Y-106288934D01*
X134982200Y-106288934D02*
X134934580Y-106241315D01*
X134934580Y-106241315D02*
X134839342Y-106193696D01*
X134839342Y-106193696D02*
X134744104Y-106193696D01*
X134744104Y-106193696D02*
X134648866Y-106241315D01*
X134648866Y-106241315D02*
X134601247Y-106288934D01*
X134601247Y-106288934D02*
X134553628Y-106384172D01*
X134553628Y-106384172D02*
X134506009Y-106574648D01*
X134506009Y-106574648D02*
X134458390Y-106669886D01*
X134458390Y-106669886D02*
X134410771Y-106717505D01*
X134410771Y-106717505D02*
X134315533Y-106765124D01*
X134315533Y-106765124D02*
X134220295Y-106765124D01*
X134220295Y-106765124D02*
X134125057Y-106717505D01*
X134125057Y-106717505D02*
X134077438Y-106669886D01*
X134077438Y-106669886D02*
X134029819Y-106574648D01*
X134029819Y-106574648D02*
X134029819Y-106336553D01*
X134029819Y-106336553D02*
X134077438Y-106193696D01*
X135029819Y-105765124D02*
X134029819Y-105765124D01*
X128869819Y-107431792D02*
X128393628Y-107765125D01*
X128869819Y-108003220D02*
X127869819Y-108003220D01*
X127869819Y-108003220D02*
X127869819Y-107622268D01*
X127869819Y-107622268D02*
X127917438Y-107527030D01*
X127917438Y-107527030D02*
X127965057Y-107479411D01*
X127965057Y-107479411D02*
X128060295Y-107431792D01*
X128060295Y-107431792D02*
X128203152Y-107431792D01*
X128203152Y-107431792D02*
X128298390Y-107479411D01*
X128298390Y-107479411D02*
X128346009Y-107527030D01*
X128346009Y-107527030D02*
X128393628Y-107622268D01*
X128393628Y-107622268D02*
X128393628Y-108003220D01*
X128822200Y-107050839D02*
X128869819Y-106907982D01*
X128869819Y-106907982D02*
X128869819Y-106669887D01*
X128869819Y-106669887D02*
X128822200Y-106574649D01*
X128822200Y-106574649D02*
X128774580Y-106527030D01*
X128774580Y-106527030D02*
X128679342Y-106479411D01*
X128679342Y-106479411D02*
X128584104Y-106479411D01*
X128584104Y-106479411D02*
X128488866Y-106527030D01*
X128488866Y-106527030D02*
X128441247Y-106574649D01*
X128441247Y-106574649D02*
X128393628Y-106669887D01*
X128393628Y-106669887D02*
X128346009Y-106860363D01*
X128346009Y-106860363D02*
X128298390Y-106955601D01*
X128298390Y-106955601D02*
X128250771Y-107003220D01*
X128250771Y-107003220D02*
X128155533Y-107050839D01*
X128155533Y-107050839D02*
X128060295Y-107050839D01*
X128060295Y-107050839D02*
X127965057Y-107003220D01*
X127965057Y-107003220D02*
X127917438Y-106955601D01*
X127917438Y-106955601D02*
X127869819Y-106860363D01*
X127869819Y-106860363D02*
X127869819Y-106622268D01*
X127869819Y-106622268D02*
X127917438Y-106479411D01*
X127869819Y-106193696D02*
X127869819Y-105622268D01*
X128869819Y-105907982D02*
X127869819Y-105907982D01*
X144128207Y-103469819D02*
X143794874Y-102993628D01*
X143556779Y-103469819D02*
X143556779Y-102469819D01*
X143556779Y-102469819D02*
X143937731Y-102469819D01*
X143937731Y-102469819D02*
X144032969Y-102517438D01*
X144032969Y-102517438D02*
X144080588Y-102565057D01*
X144080588Y-102565057D02*
X144128207Y-102660295D01*
X144128207Y-102660295D02*
X144128207Y-102803152D01*
X144128207Y-102803152D02*
X144080588Y-102898390D01*
X144080588Y-102898390D02*
X144032969Y-102946009D01*
X144032969Y-102946009D02*
X143937731Y-102993628D01*
X143937731Y-102993628D02*
X143556779Y-102993628D01*
X144890112Y-102946009D02*
X144556779Y-102946009D01*
X144556779Y-103469819D02*
X144556779Y-102469819D01*
X144556779Y-102469819D02*
X145032969Y-102469819D01*
X145413922Y-103469819D02*
X145413922Y-102469819D01*
X145890112Y-103469819D02*
X145890112Y-102469819D01*
X145890112Y-102469819D02*
X146128207Y-102469819D01*
X146128207Y-102469819D02*
X146271064Y-102517438D01*
X146271064Y-102517438D02*
X146366302Y-102612676D01*
X146366302Y-102612676D02*
X146413921Y-102707914D01*
X146413921Y-102707914D02*
X146461540Y-102898390D01*
X146461540Y-102898390D02*
X146461540Y-103041247D01*
X146461540Y-103041247D02*
X146413921Y-103231723D01*
X146413921Y-103231723D02*
X146366302Y-103326961D01*
X146366302Y-103326961D02*
X146271064Y-103422200D01*
X146271064Y-103422200D02*
X146128207Y-103469819D01*
X146128207Y-103469819D02*
X145890112Y-103469819D01*
X130177438Y-107812744D02*
X130129819Y-107907982D01*
X130129819Y-107907982D02*
X130129819Y-108050839D01*
X130129819Y-108050839D02*
X130177438Y-108193696D01*
X130177438Y-108193696D02*
X130272676Y-108288934D01*
X130272676Y-108288934D02*
X130367914Y-108336553D01*
X130367914Y-108336553D02*
X130558390Y-108384172D01*
X130558390Y-108384172D02*
X130701247Y-108384172D01*
X130701247Y-108384172D02*
X130891723Y-108336553D01*
X130891723Y-108336553D02*
X130986961Y-108288934D01*
X130986961Y-108288934D02*
X131082200Y-108193696D01*
X131082200Y-108193696D02*
X131129819Y-108050839D01*
X131129819Y-108050839D02*
X131129819Y-107955601D01*
X131129819Y-107955601D02*
X131082200Y-107812744D01*
X131082200Y-107812744D02*
X131034580Y-107765125D01*
X131034580Y-107765125D02*
X130701247Y-107765125D01*
X130701247Y-107765125D02*
X130701247Y-107955601D01*
X131129819Y-107336553D02*
X130129819Y-107336553D01*
X130129819Y-107336553D02*
X131129819Y-106765125D01*
X131129819Y-106765125D02*
X130129819Y-106765125D01*
X131129819Y-106288934D02*
X130129819Y-106288934D01*
X130129819Y-106288934D02*
X130129819Y-106050839D01*
X130129819Y-106050839D02*
X130177438Y-105907982D01*
X130177438Y-105907982D02*
X130272676Y-105812744D01*
X130272676Y-105812744D02*
X130367914Y-105765125D01*
X130367914Y-105765125D02*
X130558390Y-105717506D01*
X130558390Y-105717506D02*
X130701247Y-105717506D01*
X130701247Y-105717506D02*
X130891723Y-105765125D01*
X130891723Y-105765125D02*
X130986961Y-105812744D01*
X130986961Y-105812744D02*
X131082200Y-105907982D01*
X131082200Y-105907982D02*
X131129819Y-106050839D01*
X131129819Y-106050839D02*
X131129819Y-106288934D01*
X121314819Y-123261904D02*
X122124342Y-123261904D01*
X122124342Y-123261904D02*
X122219580Y-123214285D01*
X122219580Y-123214285D02*
X122267200Y-123166666D01*
X122267200Y-123166666D02*
X122314819Y-123071428D01*
X122314819Y-123071428D02*
X122314819Y-122880952D01*
X122314819Y-122880952D02*
X122267200Y-122785714D01*
X122267200Y-122785714D02*
X122219580Y-122738095D01*
X122219580Y-122738095D02*
X122124342Y-122690476D01*
X122124342Y-122690476D02*
X121314819Y-122690476D01*
X121410057Y-122261904D02*
X121362438Y-122214285D01*
X121362438Y-122214285D02*
X121314819Y-122119047D01*
X121314819Y-122119047D02*
X121314819Y-121880952D01*
X121314819Y-121880952D02*
X121362438Y-121785714D01*
X121362438Y-121785714D02*
X121410057Y-121738095D01*
X121410057Y-121738095D02*
X121505295Y-121690476D01*
X121505295Y-121690476D02*
X121600533Y-121690476D01*
X121600533Y-121690476D02*
X121743390Y-121738095D01*
X121743390Y-121738095D02*
X122314819Y-122309523D01*
X122314819Y-122309523D02*
X122314819Y-121690476D01*
X177059580Y-147086666D02*
X177107200Y-147134285D01*
X177107200Y-147134285D02*
X177154819Y-147277142D01*
X177154819Y-147277142D02*
X177154819Y-147372380D01*
X177154819Y-147372380D02*
X177107200Y-147515237D01*
X177107200Y-147515237D02*
X177011961Y-147610475D01*
X177011961Y-147610475D02*
X176916723Y-147658094D01*
X176916723Y-147658094D02*
X176726247Y-147705713D01*
X176726247Y-147705713D02*
X176583390Y-147705713D01*
X176583390Y-147705713D02*
X176392914Y-147658094D01*
X176392914Y-147658094D02*
X176297676Y-147610475D01*
X176297676Y-147610475D02*
X176202438Y-147515237D01*
X176202438Y-147515237D02*
X176154819Y-147372380D01*
X176154819Y-147372380D02*
X176154819Y-147277142D01*
X176154819Y-147277142D02*
X176202438Y-147134285D01*
X176202438Y-147134285D02*
X176250057Y-147086666D01*
X176154819Y-146229523D02*
X176154819Y-146419999D01*
X176154819Y-146419999D02*
X176202438Y-146515237D01*
X176202438Y-146515237D02*
X176250057Y-146562856D01*
X176250057Y-146562856D02*
X176392914Y-146658094D01*
X176392914Y-146658094D02*
X176583390Y-146705713D01*
X176583390Y-146705713D02*
X176964342Y-146705713D01*
X176964342Y-146705713D02*
X177059580Y-146658094D01*
X177059580Y-146658094D02*
X177107200Y-146610475D01*
X177107200Y-146610475D02*
X177154819Y-146515237D01*
X177154819Y-146515237D02*
X177154819Y-146324761D01*
X177154819Y-146324761D02*
X177107200Y-146229523D01*
X177107200Y-146229523D02*
X177059580Y-146181904D01*
X177059580Y-146181904D02*
X176964342Y-146134285D01*
X176964342Y-146134285D02*
X176726247Y-146134285D01*
X176726247Y-146134285D02*
X176631009Y-146181904D01*
X176631009Y-146181904D02*
X176583390Y-146229523D01*
X176583390Y-146229523D02*
X176535771Y-146324761D01*
X176535771Y-146324761D02*
X176535771Y-146515237D01*
X176535771Y-146515237D02*
X176583390Y-146610475D01*
X176583390Y-146610475D02*
X176631009Y-146658094D01*
X176631009Y-146658094D02*
X176726247Y-146705713D01*
X180733333Y-127239580D02*
X180685714Y-127287200D01*
X180685714Y-127287200D02*
X180542857Y-127334819D01*
X180542857Y-127334819D02*
X180447619Y-127334819D01*
X180447619Y-127334819D02*
X180304762Y-127287200D01*
X180304762Y-127287200D02*
X180209524Y-127191961D01*
X180209524Y-127191961D02*
X180161905Y-127096723D01*
X180161905Y-127096723D02*
X180114286Y-126906247D01*
X180114286Y-126906247D02*
X180114286Y-126763390D01*
X180114286Y-126763390D02*
X180161905Y-126572914D01*
X180161905Y-126572914D02*
X180209524Y-126477676D01*
X180209524Y-126477676D02*
X180304762Y-126382438D01*
X180304762Y-126382438D02*
X180447619Y-126334819D01*
X180447619Y-126334819D02*
X180542857Y-126334819D01*
X180542857Y-126334819D02*
X180685714Y-126382438D01*
X180685714Y-126382438D02*
X180733333Y-126430057D01*
X181685714Y-127334819D02*
X181114286Y-127334819D01*
X181400000Y-127334819D02*
X181400000Y-126334819D01*
X181400000Y-126334819D02*
X181304762Y-126477676D01*
X181304762Y-126477676D02*
X181209524Y-126572914D01*
X181209524Y-126572914D02*
X181114286Y-126620533D01*
X185133333Y-144724819D02*
X184800000Y-144248628D01*
X184561905Y-144724819D02*
X184561905Y-143724819D01*
X184561905Y-143724819D02*
X184942857Y-143724819D01*
X184942857Y-143724819D02*
X185038095Y-143772438D01*
X185038095Y-143772438D02*
X185085714Y-143820057D01*
X185085714Y-143820057D02*
X185133333Y-143915295D01*
X185133333Y-143915295D02*
X185133333Y-144058152D01*
X185133333Y-144058152D02*
X185085714Y-144153390D01*
X185085714Y-144153390D02*
X185038095Y-144201009D01*
X185038095Y-144201009D02*
X184942857Y-144248628D01*
X184942857Y-144248628D02*
X184561905Y-144248628D01*
X185514286Y-143820057D02*
X185561905Y-143772438D01*
X185561905Y-143772438D02*
X185657143Y-143724819D01*
X185657143Y-143724819D02*
X185895238Y-143724819D01*
X185895238Y-143724819D02*
X185990476Y-143772438D01*
X185990476Y-143772438D02*
X186038095Y-143820057D01*
X186038095Y-143820057D02*
X186085714Y-143915295D01*
X186085714Y-143915295D02*
X186085714Y-144010533D01*
X186085714Y-144010533D02*
X186038095Y-144153390D01*
X186038095Y-144153390D02*
X185466667Y-144724819D01*
X185466667Y-144724819D02*
X186085714Y-144724819D01*
X182315000Y-145092819D02*
X182315000Y-145330914D01*
X182076905Y-145235676D02*
X182315000Y-145330914D01*
X182315000Y-145330914D02*
X182553095Y-145235676D01*
X182172143Y-145521390D02*
X182315000Y-145330914D01*
X182315000Y-145330914D02*
X182457857Y-145521390D01*
X182314999Y-146183180D02*
X182314999Y-145945085D01*
X182553094Y-146040323D02*
X182314999Y-145945085D01*
X182314999Y-145945085D02*
X182076904Y-146040323D01*
X182457856Y-145754609D02*
X182314999Y-145945085D01*
X182314999Y-145945085D02*
X182172142Y-145754609D01*
X188126666Y-118921009D02*
X187793333Y-118921009D01*
X187793333Y-119444819D02*
X187793333Y-118444819D01*
X187793333Y-118444819D02*
X188269523Y-118444819D01*
X188983809Y-118921009D02*
X189126666Y-118968628D01*
X189126666Y-118968628D02*
X189174285Y-119016247D01*
X189174285Y-119016247D02*
X189221904Y-119111485D01*
X189221904Y-119111485D02*
X189221904Y-119254342D01*
X189221904Y-119254342D02*
X189174285Y-119349580D01*
X189174285Y-119349580D02*
X189126666Y-119397200D01*
X189126666Y-119397200D02*
X189031428Y-119444819D01*
X189031428Y-119444819D02*
X188650476Y-119444819D01*
X188650476Y-119444819D02*
X188650476Y-118444819D01*
X188650476Y-118444819D02*
X188983809Y-118444819D01*
X188983809Y-118444819D02*
X189079047Y-118492438D01*
X189079047Y-118492438D02*
X189126666Y-118540057D01*
X189126666Y-118540057D02*
X189174285Y-118635295D01*
X189174285Y-118635295D02*
X189174285Y-118730533D01*
X189174285Y-118730533D02*
X189126666Y-118825771D01*
X189126666Y-118825771D02*
X189079047Y-118873390D01*
X189079047Y-118873390D02*
X188983809Y-118921009D01*
X188983809Y-118921009D02*
X188650476Y-118921009D01*
X190174285Y-119444819D02*
X189602857Y-119444819D01*
X189888571Y-119444819D02*
X189888571Y-118444819D01*
X189888571Y-118444819D02*
X189793333Y-118587676D01*
X189793333Y-118587676D02*
X189698095Y-118682914D01*
X189698095Y-118682914D02*
X189602857Y-118730533D01*
X197184819Y-116593333D02*
X197899104Y-116593333D01*
X197899104Y-116593333D02*
X198041961Y-116640952D01*
X198041961Y-116640952D02*
X198137200Y-116736190D01*
X198137200Y-116736190D02*
X198184819Y-116879047D01*
X198184819Y-116879047D02*
X198184819Y-116974285D01*
X198184819Y-115593333D02*
X198184819Y-116164761D01*
X198184819Y-115879047D02*
X197184819Y-115879047D01*
X197184819Y-115879047D02*
X197327676Y-115974285D01*
X197327676Y-115974285D02*
X197422914Y-116069523D01*
X197422914Y-116069523D02*
X197470533Y-116164761D01*
X179384819Y-123106666D02*
X178908628Y-123439999D01*
X179384819Y-123678094D02*
X178384819Y-123678094D01*
X178384819Y-123678094D02*
X178384819Y-123297142D01*
X178384819Y-123297142D02*
X178432438Y-123201904D01*
X178432438Y-123201904D02*
X178480057Y-123154285D01*
X178480057Y-123154285D02*
X178575295Y-123106666D01*
X178575295Y-123106666D02*
X178718152Y-123106666D01*
X178718152Y-123106666D02*
X178813390Y-123154285D01*
X178813390Y-123154285D02*
X178861009Y-123201904D01*
X178861009Y-123201904D02*
X178908628Y-123297142D01*
X178908628Y-123297142D02*
X178908628Y-123678094D01*
X179384819Y-122154285D02*
X179384819Y-122725713D01*
X179384819Y-122439999D02*
X178384819Y-122439999D01*
X178384819Y-122439999D02*
X178527676Y-122535237D01*
X178527676Y-122535237D02*
X178622914Y-122630475D01*
X178622914Y-122630475D02*
X178670533Y-122725713D01*
X104869580Y-109236666D02*
X104917200Y-109284285D01*
X104917200Y-109284285D02*
X104964819Y-109427142D01*
X104964819Y-109427142D02*
X104964819Y-109522380D01*
X104964819Y-109522380D02*
X104917200Y-109665237D01*
X104917200Y-109665237D02*
X104821961Y-109760475D01*
X104821961Y-109760475D02*
X104726723Y-109808094D01*
X104726723Y-109808094D02*
X104536247Y-109855713D01*
X104536247Y-109855713D02*
X104393390Y-109855713D01*
X104393390Y-109855713D02*
X104202914Y-109808094D01*
X104202914Y-109808094D02*
X104107676Y-109760475D01*
X104107676Y-109760475D02*
X104012438Y-109665237D01*
X104012438Y-109665237D02*
X103964819Y-109522380D01*
X103964819Y-109522380D02*
X103964819Y-109427142D01*
X103964819Y-109427142D02*
X104012438Y-109284285D01*
X104012438Y-109284285D02*
X104060057Y-109236666D01*
X104964819Y-108236666D02*
X104488628Y-108569999D01*
X104964819Y-108808094D02*
X103964819Y-108808094D01*
X103964819Y-108808094D02*
X103964819Y-108427142D01*
X103964819Y-108427142D02*
X104012438Y-108331904D01*
X104012438Y-108331904D02*
X104060057Y-108284285D01*
X104060057Y-108284285D02*
X104155295Y-108236666D01*
X104155295Y-108236666D02*
X104298152Y-108236666D01*
X104298152Y-108236666D02*
X104393390Y-108284285D01*
X104393390Y-108284285D02*
X104441009Y-108331904D01*
X104441009Y-108331904D02*
X104488628Y-108427142D01*
X104488628Y-108427142D02*
X104488628Y-108808094D01*
X104964819Y-107284285D02*
X104964819Y-107855713D01*
X104964819Y-107569999D02*
X103964819Y-107569999D01*
X103964819Y-107569999D02*
X104107676Y-107665237D01*
X104107676Y-107665237D02*
X104202914Y-107760475D01*
X104202914Y-107760475D02*
X104250533Y-107855713D01*
X180918095Y-118494819D02*
X180918095Y-119304342D01*
X180918095Y-119304342D02*
X180965714Y-119399580D01*
X180965714Y-119399580D02*
X181013333Y-119447200D01*
X181013333Y-119447200D02*
X181108571Y-119494819D01*
X181108571Y-119494819D02*
X181299047Y-119494819D01*
X181299047Y-119494819D02*
X181394285Y-119447200D01*
X181394285Y-119447200D02*
X181441904Y-119399580D01*
X181441904Y-119399580D02*
X181489523Y-119304342D01*
X181489523Y-119304342D02*
X181489523Y-118494819D01*
X182489523Y-119494819D02*
X181918095Y-119494819D01*
X182203809Y-119494819D02*
X182203809Y-118494819D01*
X182203809Y-118494819D02*
X182108571Y-118637676D01*
X182108571Y-118637676D02*
X182013333Y-118732914D01*
X182013333Y-118732914D02*
X181918095Y-118780533D01*
X181910800Y-120137019D02*
X181910800Y-120375114D01*
X181672705Y-120279876D02*
X181910800Y-120375114D01*
X181910800Y-120375114D02*
X182148895Y-120279876D01*
X181767943Y-120565590D02*
X181910800Y-120375114D01*
X181910800Y-120375114D02*
X182053657Y-120565590D01*
X181910800Y-120137019D02*
X181910800Y-120375114D01*
X181672705Y-120279876D02*
X181910800Y-120375114D01*
X181910800Y-120375114D02*
X182148895Y-120279876D01*
X181767943Y-120565590D02*
X181910800Y-120375114D01*
X181910800Y-120375114D02*
X182053657Y-120565590D01*
X180843333Y-125199580D02*
X180795714Y-125247200D01*
X180795714Y-125247200D02*
X180652857Y-125294819D01*
X180652857Y-125294819D02*
X180557619Y-125294819D01*
X180557619Y-125294819D02*
X180414762Y-125247200D01*
X180414762Y-125247200D02*
X180319524Y-125151961D01*
X180319524Y-125151961D02*
X180271905Y-125056723D01*
X180271905Y-125056723D02*
X180224286Y-124866247D01*
X180224286Y-124866247D02*
X180224286Y-124723390D01*
X180224286Y-124723390D02*
X180271905Y-124532914D01*
X180271905Y-124532914D02*
X180319524Y-124437676D01*
X180319524Y-124437676D02*
X180414762Y-124342438D01*
X180414762Y-124342438D02*
X180557619Y-124294819D01*
X180557619Y-124294819D02*
X180652857Y-124294819D01*
X180652857Y-124294819D02*
X180795714Y-124342438D01*
X180795714Y-124342438D02*
X180843333Y-124390057D01*
X181224286Y-124390057D02*
X181271905Y-124342438D01*
X181271905Y-124342438D02*
X181367143Y-124294819D01*
X181367143Y-124294819D02*
X181605238Y-124294819D01*
X181605238Y-124294819D02*
X181700476Y-124342438D01*
X181700476Y-124342438D02*
X181748095Y-124390057D01*
X181748095Y-124390057D02*
X181795714Y-124485295D01*
X181795714Y-124485295D02*
X181795714Y-124580533D01*
X181795714Y-124580533D02*
X181748095Y-124723390D01*
X181748095Y-124723390D02*
X181176667Y-125294819D01*
X181176667Y-125294819D02*
X181795714Y-125294819D01*
X191209580Y-127596666D02*
X191257200Y-127644285D01*
X191257200Y-127644285D02*
X191304819Y-127787142D01*
X191304819Y-127787142D02*
X191304819Y-127882380D01*
X191304819Y-127882380D02*
X191257200Y-128025237D01*
X191257200Y-128025237D02*
X191161961Y-128120475D01*
X191161961Y-128120475D02*
X191066723Y-128168094D01*
X191066723Y-128168094D02*
X190876247Y-128215713D01*
X190876247Y-128215713D02*
X190733390Y-128215713D01*
X190733390Y-128215713D02*
X190542914Y-128168094D01*
X190542914Y-128168094D02*
X190447676Y-128120475D01*
X190447676Y-128120475D02*
X190352438Y-128025237D01*
X190352438Y-128025237D02*
X190304819Y-127882380D01*
X190304819Y-127882380D02*
X190304819Y-127787142D01*
X190304819Y-127787142D02*
X190352438Y-127644285D01*
X190352438Y-127644285D02*
X190400057Y-127596666D01*
X190638152Y-126739523D02*
X191304819Y-126739523D01*
X190257200Y-126977618D02*
X190971485Y-127215713D01*
X190971485Y-127215713D02*
X190971485Y-126596666D01*
X185793333Y-141169580D02*
X185745714Y-141217200D01*
X185745714Y-141217200D02*
X185602857Y-141264819D01*
X185602857Y-141264819D02*
X185507619Y-141264819D01*
X185507619Y-141264819D02*
X185364762Y-141217200D01*
X185364762Y-141217200D02*
X185269524Y-141121961D01*
X185269524Y-141121961D02*
X185221905Y-141026723D01*
X185221905Y-141026723D02*
X185174286Y-140836247D01*
X185174286Y-140836247D02*
X185174286Y-140693390D01*
X185174286Y-140693390D02*
X185221905Y-140502914D01*
X185221905Y-140502914D02*
X185269524Y-140407676D01*
X185269524Y-140407676D02*
X185364762Y-140312438D01*
X185364762Y-140312438D02*
X185507619Y-140264819D01*
X185507619Y-140264819D02*
X185602857Y-140264819D01*
X185602857Y-140264819D02*
X185745714Y-140312438D01*
X185745714Y-140312438D02*
X185793333Y-140360057D01*
X186698095Y-140264819D02*
X186221905Y-140264819D01*
X186221905Y-140264819D02*
X186174286Y-140741009D01*
X186174286Y-140741009D02*
X186221905Y-140693390D01*
X186221905Y-140693390D02*
X186317143Y-140645771D01*
X186317143Y-140645771D02*
X186555238Y-140645771D01*
X186555238Y-140645771D02*
X186650476Y-140693390D01*
X186650476Y-140693390D02*
X186698095Y-140741009D01*
X186698095Y-140741009D02*
X186745714Y-140836247D01*
X186745714Y-140836247D02*
X186745714Y-141074342D01*
X186745714Y-141074342D02*
X186698095Y-141169580D01*
X186698095Y-141169580D02*
X186650476Y-141217200D01*
X186650476Y-141217200D02*
X186555238Y-141264819D01*
X186555238Y-141264819D02*
X186317143Y-141264819D01*
X186317143Y-141264819D02*
X186221905Y-141217200D01*
X186221905Y-141217200D02*
X186174286Y-141169580D01*
X187536666Y-124461009D02*
X187203333Y-124461009D01*
X187203333Y-124984819D02*
X187203333Y-123984819D01*
X187203333Y-123984819D02*
X187679523Y-123984819D01*
X188393809Y-124461009D02*
X188536666Y-124508628D01*
X188536666Y-124508628D02*
X188584285Y-124556247D01*
X188584285Y-124556247D02*
X188631904Y-124651485D01*
X188631904Y-124651485D02*
X188631904Y-124794342D01*
X188631904Y-124794342D02*
X188584285Y-124889580D01*
X188584285Y-124889580D02*
X188536666Y-124937200D01*
X188536666Y-124937200D02*
X188441428Y-124984819D01*
X188441428Y-124984819D02*
X188060476Y-124984819D01*
X188060476Y-124984819D02*
X188060476Y-123984819D01*
X188060476Y-123984819D02*
X188393809Y-123984819D01*
X188393809Y-123984819D02*
X188489047Y-124032438D01*
X188489047Y-124032438D02*
X188536666Y-124080057D01*
X188536666Y-124080057D02*
X188584285Y-124175295D01*
X188584285Y-124175295D02*
X188584285Y-124270533D01*
X188584285Y-124270533D02*
X188536666Y-124365771D01*
X188536666Y-124365771D02*
X188489047Y-124413390D01*
X188489047Y-124413390D02*
X188393809Y-124461009D01*
X188393809Y-124461009D02*
X188060476Y-124461009D01*
X189012857Y-124080057D02*
X189060476Y-124032438D01*
X189060476Y-124032438D02*
X189155714Y-123984819D01*
X189155714Y-123984819D02*
X189393809Y-123984819D01*
X189393809Y-123984819D02*
X189489047Y-124032438D01*
X189489047Y-124032438D02*
X189536666Y-124080057D01*
X189536666Y-124080057D02*
X189584285Y-124175295D01*
X189584285Y-124175295D02*
X189584285Y-124270533D01*
X189584285Y-124270533D02*
X189536666Y-124413390D01*
X189536666Y-124413390D02*
X188965238Y-124984819D01*
X188965238Y-124984819D02*
X189584285Y-124984819D01*
X191189580Y-116226666D02*
X191237200Y-116274285D01*
X191237200Y-116274285D02*
X191284819Y-116417142D01*
X191284819Y-116417142D02*
X191284819Y-116512380D01*
X191284819Y-116512380D02*
X191237200Y-116655237D01*
X191237200Y-116655237D02*
X191141961Y-116750475D01*
X191141961Y-116750475D02*
X191046723Y-116798094D01*
X191046723Y-116798094D02*
X190856247Y-116845713D01*
X190856247Y-116845713D02*
X190713390Y-116845713D01*
X190713390Y-116845713D02*
X190522914Y-116798094D01*
X190522914Y-116798094D02*
X190427676Y-116750475D01*
X190427676Y-116750475D02*
X190332438Y-116655237D01*
X190332438Y-116655237D02*
X190284819Y-116512380D01*
X190284819Y-116512380D02*
X190284819Y-116417142D01*
X190284819Y-116417142D02*
X190332438Y-116274285D01*
X190332438Y-116274285D02*
X190380057Y-116226666D01*
X190284819Y-115893332D02*
X190284819Y-115274285D01*
X190284819Y-115274285D02*
X190665771Y-115607618D01*
X190665771Y-115607618D02*
X190665771Y-115464761D01*
X190665771Y-115464761D02*
X190713390Y-115369523D01*
X190713390Y-115369523D02*
X190761009Y-115321904D01*
X190761009Y-115321904D02*
X190856247Y-115274285D01*
X190856247Y-115274285D02*
X191094342Y-115274285D01*
X191094342Y-115274285D02*
X191189580Y-115321904D01*
X191189580Y-115321904D02*
X191237200Y-115369523D01*
X191237200Y-115369523D02*
X191284819Y-115464761D01*
X191284819Y-115464761D02*
X191284819Y-115750475D01*
X191284819Y-115750475D02*
X191237200Y-115845713D01*
X191237200Y-115845713D02*
X191189580Y-115893332D01*
X172736666Y-134424819D02*
X172736666Y-135139104D01*
X172736666Y-135139104D02*
X172689047Y-135281961D01*
X172689047Y-135281961D02*
X172593809Y-135377200D01*
X172593809Y-135377200D02*
X172450952Y-135424819D01*
X172450952Y-135424819D02*
X172355714Y-135424819D01*
X173165238Y-134520057D02*
X173212857Y-134472438D01*
X173212857Y-134472438D02*
X173308095Y-134424819D01*
X173308095Y-134424819D02*
X173546190Y-134424819D01*
X173546190Y-134424819D02*
X173641428Y-134472438D01*
X173641428Y-134472438D02*
X173689047Y-134520057D01*
X173689047Y-134520057D02*
X173736666Y-134615295D01*
X173736666Y-134615295D02*
X173736666Y-134710533D01*
X173736666Y-134710533D02*
X173689047Y-134853390D01*
X173689047Y-134853390D02*
X173117619Y-135424819D01*
X173117619Y-135424819D02*
X173736666Y-135424819D01*
X167848002Y-144445220D02*
X167848002Y-144683315D01*
X167609907Y-144588077D02*
X167848002Y-144683315D01*
X167848002Y-144683315D02*
X168086097Y-144588077D01*
X167705145Y-144873791D02*
X167848002Y-144683315D01*
X167848002Y-144683315D02*
X167990859Y-144873791D01*
X167848002Y-144445220D02*
X167848002Y-144683315D01*
X167609907Y-144588077D02*
X167848002Y-144683315D01*
X167848002Y-144683315D02*
X168086097Y-144588077D01*
X167705145Y-144873791D02*
X167848002Y-144683315D01*
X167848002Y-144683315D02*
X167990859Y-144873791D01*
D11*
%TO.C,U2*%
X102450000Y-135657500D02*
X102450000Y-114657500D01*
X102700000Y-135657500D02*
X102450000Y-135657500D01*
X153450000Y-135657500D02*
X153200000Y-135657500D01*
X153450000Y-132157500D02*
X153450000Y-135657500D01*
X102450000Y-114657500D02*
X102700000Y-114657500D01*
X153450000Y-114657500D02*
X153450000Y-118157500D01*
X153450000Y-114657500D02*
X153200000Y-114657500D01*
D12*
X103920000Y-137347500D02*
G75*
G03*
X103720000Y-137347500I-100000J0D01*
G01*
X103720000Y-137347500D02*
G75*
G03*
X103920000Y-137347500I100000J0D01*
G01*
D13*
%TO.C,C6*%
X174480000Y-147070580D02*
X174480000Y-146789420D01*
X175500000Y-147070580D02*
X175500000Y-146789420D01*
%TO.C,C1*%
X184211252Y-127515000D02*
X183688748Y-127515000D01*
X184211252Y-126045000D02*
X183688748Y-126045000D01*
D14*
%TO.C,R2*%
X181473050Y-145357000D02*
X180886950Y-145357000D01*
X181473050Y-143103000D02*
X180886950Y-143103000D01*
D13*
%TO.C,FB1*%
X189659721Y-119980000D02*
X189985279Y-119980000D01*
X189659721Y-121000000D02*
X189985279Y-121000000D01*
%TO.C,J1*%
X193370000Y-125780000D02*
X194620000Y-125780000D01*
X193660000Y-125490000D02*
X199630000Y-125490000D01*
X199630000Y-125490000D02*
X199630000Y-117870000D01*
X193670000Y-125480000D02*
X194420000Y-125480000D01*
X194420000Y-125480000D02*
X194420000Y-123680000D01*
X195920000Y-125480000D02*
X195920000Y-124730000D01*
X195920000Y-124730000D02*
X198870000Y-124730000D01*
X198870000Y-124730000D02*
X198870000Y-121680000D01*
X193370000Y-124530000D02*
X193370000Y-125780000D01*
X193670000Y-123680000D02*
X193670000Y-125480000D01*
X194420000Y-123680000D02*
X193670000Y-123680000D01*
X193670000Y-122180000D02*
X194420000Y-122180000D01*
X194420000Y-122180000D02*
X194420000Y-121180000D01*
X193670000Y-121180000D02*
X193670000Y-122180000D01*
X194420000Y-121180000D02*
X193670000Y-121180000D01*
X193670000Y-119680000D02*
X194420000Y-119680000D01*
X194420000Y-119680000D02*
X194420000Y-117880000D01*
X195920000Y-118630000D02*
X198870000Y-118630000D01*
X198870000Y-118630000D02*
X198870000Y-121680000D01*
X193670000Y-117880000D02*
X193670000Y-119680000D01*
X194420000Y-117880000D02*
X193670000Y-117880000D01*
X195920000Y-117880000D02*
X195920000Y-118630000D01*
X193660000Y-117870000D02*
X193660000Y-125490000D01*
X199630000Y-117870000D02*
X193660000Y-117870000D01*
%TO.C,R1*%
X179720000Y-123093641D02*
X179720000Y-122786359D01*
X180480000Y-123093641D02*
X180480000Y-122786359D01*
D14*
%TO.C,CR1*%
X105695000Y-111900450D02*
X106965000Y-111900450D01*
X106330000Y-111900450D02*
X105695000Y-111138450D01*
X106330000Y-111900450D02*
X105822000Y-111138450D01*
X106330000Y-111900450D02*
X105949000Y-111138450D01*
X106330000Y-111900450D02*
X106076000Y-111138450D01*
X106330000Y-111900450D02*
X106203000Y-111138450D01*
X106330000Y-111900450D02*
X106457000Y-111138450D01*
X106330000Y-111900450D02*
X106584000Y-111138450D01*
X106330000Y-111900450D02*
X106711000Y-111138450D01*
X106330000Y-111900450D02*
X106838000Y-111138450D01*
X106330000Y-111900450D02*
X106965000Y-111138450D01*
X105695000Y-111138450D02*
X106965000Y-111138450D01*
X106330000Y-110884450D02*
X106330000Y-112154450D01*
X105529900Y-109576350D02*
X105768660Y-109576350D01*
X106891340Y-109576350D02*
X107130100Y-109576350D01*
X107130100Y-109576350D02*
X107130100Y-107518950D01*
X105529900Y-107518950D02*
X105529900Y-109576350D01*
X105768660Y-107518950D02*
X105529900Y-107518950D01*
X107130100Y-107518950D02*
X106891340Y-107518950D01*
%TO.C,U1*%
X182723600Y-120005800D02*
X182723600Y-120472459D01*
X182723600Y-122891941D02*
X182723600Y-123358600D01*
X182723600Y-123358600D02*
X183190259Y-123358600D01*
X183190259Y-120005800D02*
X182723600Y-120005800D01*
X185609741Y-123358600D02*
X186076400Y-123358600D01*
X186076400Y-120005800D02*
X185609741Y-120005800D01*
X186076400Y-120472459D02*
X186076400Y-120005800D01*
X186076400Y-123358600D02*
X186076400Y-122891941D01*
G36*
X186762200Y-122122700D02*
G01*
X186508200Y-122122700D01*
X186508200Y-121741699D01*
X186762200Y-121741699D01*
X186762200Y-122122700D01*
G37*
D13*
%TO.C,C2*%
X184305580Y-125410000D02*
X184024420Y-125410000D01*
X184305580Y-124390000D02*
X184024420Y-124390000D01*
%TO.C,C4*%
X191190000Y-125062164D02*
X191190000Y-125277836D01*
X190470000Y-125062164D02*
X190470000Y-125277836D01*
%TO.C,C5*%
X182598748Y-140085000D02*
X183121252Y-140085000D01*
X182598748Y-141555000D02*
X183121252Y-141555000D01*
%TO.C,J3*%
X116660000Y-100370000D02*
X116660000Y-101620000D01*
X116960000Y-100670000D02*
X116960000Y-105390000D01*
X116960000Y-101980000D02*
X117570000Y-101980000D01*
X116960000Y-103280000D02*
X117570000Y-103280000D01*
X116960000Y-105390000D02*
X123080000Y-105390000D01*
X117570000Y-101280000D02*
X117570000Y-104780000D01*
X117570000Y-104780000D02*
X122470000Y-104780000D01*
X117910000Y-100370000D02*
X116660000Y-100370000D01*
X118420000Y-100470000D02*
X118420000Y-100670000D01*
X118720000Y-100470000D02*
X118420000Y-100470000D01*
X118720000Y-100570000D02*
X118420000Y-100570000D01*
X118720000Y-100670000D02*
X118720000Y-100470000D01*
X119520000Y-100670000D02*
X119520000Y-101280000D01*
X119520000Y-101280000D02*
X117570000Y-101280000D01*
X119920000Y-104280000D02*
X120120000Y-104280000D01*
X119920000Y-104780000D02*
X119920000Y-104280000D01*
X120020000Y-104780000D02*
X120020000Y-104280000D01*
X120120000Y-104280000D02*
X120120000Y-104780000D01*
X120520000Y-101280000D02*
X120520000Y-100670000D01*
X122470000Y-101280000D02*
X120520000Y-101280000D01*
X122470000Y-104780000D02*
X122470000Y-101280000D01*
X123080000Y-100670000D02*
X116960000Y-100670000D01*
X123080000Y-101980000D02*
X122470000Y-101980000D01*
X123080000Y-103280000D02*
X122470000Y-103280000D01*
X123080000Y-105390000D02*
X123080000Y-100670000D01*
%TO.C,J4*%
X109340000Y-100300000D02*
X109340000Y-101550000D01*
X109640000Y-100600000D02*
X109640000Y-105320000D01*
X109640000Y-101910000D02*
X110250000Y-101910000D01*
X109640000Y-103210000D02*
X110250000Y-103210000D01*
X109640000Y-105320000D02*
X115760000Y-105320000D01*
X110250000Y-101210000D02*
X110250000Y-104710000D01*
X110250000Y-104710000D02*
X115150000Y-104710000D01*
X110590000Y-100300000D02*
X109340000Y-100300000D01*
X111100000Y-100400000D02*
X111100000Y-100600000D01*
X111400000Y-100400000D02*
X111100000Y-100400000D01*
X111400000Y-100500000D02*
X111100000Y-100500000D01*
X111400000Y-100600000D02*
X111400000Y-100400000D01*
X112200000Y-100600000D02*
X112200000Y-101210000D01*
X112200000Y-101210000D02*
X110250000Y-101210000D01*
X112600000Y-104210000D02*
X112800000Y-104210000D01*
X112600000Y-104710000D02*
X112600000Y-104210000D01*
X112700000Y-104710000D02*
X112700000Y-104210000D01*
X112800000Y-104210000D02*
X112800000Y-104710000D01*
X113200000Y-101210000D02*
X113200000Y-100600000D01*
X115150000Y-101210000D02*
X113200000Y-101210000D01*
X115150000Y-104710000D02*
X115150000Y-101210000D01*
X115760000Y-100600000D02*
X109640000Y-100600000D01*
X115760000Y-101910000D02*
X115150000Y-101910000D01*
X115760000Y-103210000D02*
X115150000Y-103210000D01*
X115760000Y-105320000D02*
X115760000Y-100600000D01*
%TO.C,FB2*%
X189679721Y-122460000D02*
X190005279Y-122460000D01*
X189679721Y-123480000D02*
X190005279Y-123480000D01*
%TO.C,J5*%
X124130000Y-100370000D02*
X124130000Y-101620000D01*
X124430000Y-100670000D02*
X124430000Y-105390000D01*
X124430000Y-101980000D02*
X125040000Y-101980000D01*
X124430000Y-103280000D02*
X125040000Y-103280000D01*
X124430000Y-105390000D02*
X142550000Y-105390000D01*
X125040000Y-101280000D02*
X125040000Y-104780000D01*
X125040000Y-104780000D02*
X141940000Y-104780000D01*
X125380000Y-100370000D02*
X124130000Y-100370000D01*
X125890000Y-100470000D02*
X125890000Y-100670000D01*
X126190000Y-100470000D02*
X125890000Y-100470000D01*
X126190000Y-100570000D02*
X125890000Y-100570000D01*
X126190000Y-100670000D02*
X126190000Y-100470000D01*
X126990000Y-100670000D02*
X126990000Y-101280000D01*
X126990000Y-101280000D02*
X125040000Y-101280000D01*
X127390000Y-104280000D02*
X127590000Y-104280000D01*
X127390000Y-104780000D02*
X127390000Y-104280000D01*
X127490000Y-104780000D02*
X127490000Y-104280000D01*
X127590000Y-104280000D02*
X127590000Y-104780000D01*
X129390000Y-104280000D02*
X129590000Y-104280000D01*
X129390000Y-104780000D02*
X129390000Y-104280000D01*
X129490000Y-104780000D02*
X129490000Y-104280000D01*
X129590000Y-104280000D02*
X129590000Y-104780000D01*
X131390000Y-104280000D02*
X131590000Y-104280000D01*
X131390000Y-104780000D02*
X131390000Y-104280000D01*
X131490000Y-104780000D02*
X131490000Y-104280000D01*
X131590000Y-104280000D02*
X131590000Y-104780000D01*
X133390000Y-104280000D02*
X133590000Y-104280000D01*
X133390000Y-104780000D02*
X133390000Y-104280000D01*
X133490000Y-104780000D02*
X133490000Y-104280000D01*
X133590000Y-104280000D02*
X133590000Y-104780000D01*
X135390000Y-104280000D02*
X135590000Y-104280000D01*
X135390000Y-104780000D02*
X135390000Y-104280000D01*
X135490000Y-104780000D02*
X135490000Y-104280000D01*
X135590000Y-104280000D02*
X135590000Y-104780000D01*
X137390000Y-104280000D02*
X137590000Y-104280000D01*
X137390000Y-104780000D02*
X137390000Y-104280000D01*
X137490000Y-104780000D02*
X137490000Y-104280000D01*
X137590000Y-104280000D02*
X137590000Y-104780000D01*
X139390000Y-104280000D02*
X139590000Y-104280000D01*
X139390000Y-104780000D02*
X139390000Y-104280000D01*
X139490000Y-104780000D02*
X139490000Y-104280000D01*
X139590000Y-104280000D02*
X139590000Y-104780000D01*
X139990000Y-101280000D02*
X139990000Y-100670000D01*
X141940000Y-101280000D02*
X139990000Y-101280000D01*
X141940000Y-104780000D02*
X141940000Y-101280000D01*
X142550000Y-100670000D02*
X124430000Y-100670000D01*
X142550000Y-101980000D02*
X141940000Y-101980000D01*
X142550000Y-103280000D02*
X141940000Y-103280000D01*
X142550000Y-105390000D02*
X142550000Y-100670000D01*
%TO.C,C3*%
X191200000Y-118012164D02*
X191200000Y-118227836D01*
X190480000Y-118012164D02*
X190480000Y-118227836D01*
D14*
%TO.C,J2*%
X157675302Y-133839801D02*
X157675302Y-146231562D01*
X157675302Y-148802042D02*
X157675302Y-149537001D01*
X157675302Y-149537001D02*
X170375724Y-149537001D01*
X158615562Y-133839801D02*
X157675302Y-133839801D01*
X164315563Y-133839801D02*
X161084442Y-133839801D01*
X171924702Y-133839801D02*
X166784443Y-133839801D01*
X171924702Y-147231562D02*
X171924702Y-133839801D01*
%TD*%
M02*
