M48
; DRILL file {KiCad 7.0.11-2.fc38} date Wed 10 Apr 2024 19:42:02 BST
; FORMAT={-:-/ absolute / inch / decimal}
; #@! TF.CreationDate,2024-04-10T19:42:02+01:00
; #@! TF.GenerationSoftware,Kicad,Pcbnew,7.0.11-2.fc38
; #@! TF.FileFunction,Plated,1,2,PTH
FMAT,2
INCH
; #@! TA.AperFunction,Plated,PTH,ViaDrill
T1C0.0157
; #@! TA.AperFunction,Plated,PTH,ComponentDrill
T2C0.0295
; #@! TA.AperFunction,Plated,PTH,ComponentDrill
T3C0.0394
%
G90
G05
T1
X4.2894Y-5.5181
X4.3728Y-4.3445
X4.5886Y-4.2402
X4.7035Y-4.3079
X5.0559Y-4.4217
X5.2161Y-4.2232
X5.2409Y-4.3906
X5.2886Y-5.4906
X5.3228Y-4.2969
X5.3941Y-4.3622
X5.6055Y-4.2252
X5.787Y-5.487
X6.0394Y-5.7323
X6.1102Y-5.5925
X6.3031Y-5.6181
X6.4346Y-5.7992
X6.4488Y-5.5945
X6.5177Y-5.6248
X6.8071Y-5.7748
X6.9846Y-4.8161
X6.9917Y-4.9472
X7.0138Y-5.648
X7.0157Y-5.6921
X7.0209Y-5.7382
X7.0311Y-4.7591
X7.126Y-5.3992
X7.1335Y-4.6067
X7.1417Y-4.7906
X7.1492Y-4.874
X7.1894Y-4.5866
X7.2209Y-5.0811
X7.2346Y-5.1862
X7.2697Y-4.5906
X7.3827Y-4.7508
T2
X4.3976Y-4.0319
X4.4764Y-4.0319
X4.6858Y-4.0346
X4.7646Y-4.0346
X4.9799Y-4.0346
X5.0587Y-4.0346
X5.1374Y-4.0346
X5.2161Y-4.0346
X5.2949Y-4.0346
X5.3736Y-4.0346
X5.4524Y-4.0346
X5.5311Y-4.0346
T3
X7.7213Y-4.7413
X7.7213Y-4.8398
M30
